<mxfile modified="2021-04-08T08:52:30.138Z" host="app.diagrams.net" agent="5.0 (Windows NT 10.0; Win64; x64) AppleWebKit/537.36 (KHTML, like Gecko) Chrome/89.0.4389.114 Safari/537.36" etag="ibEdrAGD6F77_ovRwQ7y" version="14.5.1" type="github">
  <diagram id="l8hXMBHkgcEJcSW0mbfh" name="Page-1">
    <mxGraphModel dx="1564" dy="836" grid="1" gridSize="10" guides="1" tooltips="1" connect="1" arrows="1" fold="1" page="1" pageScale="1" pageWidth="1169" pageHeight="827" math="0" shadow="0">
      <root>
        <mxCell id="0" />
        <mxCell id="1" parent="0" />
        <mxCell id="8--HhbSZYtI3ddgJnD71-25" style="edgeStyle=none;rounded=0;orthogonalLoop=1;jettySize=auto;html=1;sourcePerimeterSpacing=5;endArrow=none;endFill=0;targetPerimeterSpacing=5;" parent="1" source="8--HhbSZYtI3ddgJnD71-2" target="8--HhbSZYtI3ddgJnD71-12" edge="1">
          <mxGeometry relative="1" as="geometry" />
        </mxCell>
        <mxCell id="8--HhbSZYtI3ddgJnD71-24" style="edgeStyle=none;rounded=0;orthogonalLoop=1;jettySize=auto;html=1;sourcePerimeterSpacing=5;endArrow=none;endFill=0;targetPerimeterSpacing=5;" parent="1" source="8--HhbSZYtI3ddgJnD71-5" target="8--HhbSZYtI3ddgJnD71-12" edge="1">
          <mxGeometry relative="1" as="geometry" />
        </mxCell>
        <mxCell id="8--HhbSZYtI3ddgJnD71-26" style="edgeStyle=none;rounded=0;orthogonalLoop=1;jettySize=auto;html=1;sourcePerimeterSpacing=5;endArrow=none;endFill=0;targetPerimeterSpacing=5;" parent="1" source="8--HhbSZYtI3ddgJnD71-11" target="8--HhbSZYtI3ddgJnD71-7" edge="1">
          <mxGeometry relative="1" as="geometry" />
        </mxCell>
        <mxCell id="8--HhbSZYtI3ddgJnD71-27" style="edgeStyle=none;rounded=0;orthogonalLoop=1;jettySize=auto;html=1;sourcePerimeterSpacing=5;endArrow=none;endFill=0;targetPerimeterSpacing=5;" parent="1" source="8--HhbSZYtI3ddgJnD71-11" target="8--HhbSZYtI3ddgJnD71-3" edge="1">
          <mxGeometry relative="1" as="geometry" />
        </mxCell>
        <mxCell id="8--HhbSZYtI3ddgJnD71-28" style="edgeStyle=none;rounded=0;orthogonalLoop=1;jettySize=auto;html=1;sourcePerimeterSpacing=5;endArrow=none;endFill=0;targetPerimeterSpacing=5;" parent="1" source="8--HhbSZYtI3ddgJnD71-11" target="8--HhbSZYtI3ddgJnD71-13" edge="1">
          <mxGeometry relative="1" as="geometry" />
        </mxCell>
        <mxCell id="8--HhbSZYtI3ddgJnD71-29" style="edgeStyle=none;rounded=0;orthogonalLoop=1;jettySize=auto;html=1;sourcePerimeterSpacing=5;endArrow=none;endFill=0;targetPerimeterSpacing=5;" parent="1" source="8--HhbSZYtI3ddgJnD71-11" target="8--HhbSZYtI3ddgJnD71-6" edge="1">
          <mxGeometry relative="1" as="geometry" />
        </mxCell>
        <mxCell id="8--HhbSZYtI3ddgJnD71-30" style="edgeStyle=none;rounded=0;orthogonalLoop=1;jettySize=auto;html=1;sourcePerimeterSpacing=5;endArrow=none;endFill=0;targetPerimeterSpacing=5;" parent="1" source="8--HhbSZYtI3ddgJnD71-11" target="8--HhbSZYtI3ddgJnD71-4" edge="1">
          <mxGeometry relative="1" as="geometry" />
        </mxCell>
        <mxCell id="8--HhbSZYtI3ddgJnD71-31" style="edgeStyle=none;rounded=0;orthogonalLoop=1;jettySize=auto;html=1;sourcePerimeterSpacing=5;endArrow=none;endFill=0;targetPerimeterSpacing=5;" parent="1" source="8--HhbSZYtI3ddgJnD71-11" target="8--HhbSZYtI3ddgJnD71-19" edge="1">
          <mxGeometry relative="1" as="geometry" />
        </mxCell>
        <mxCell id="8--HhbSZYtI3ddgJnD71-21" style="edgeStyle=none;rounded=0;orthogonalLoop=1;jettySize=auto;html=1;sourcePerimeterSpacing=5;endArrow=none;endFill=0;targetPerimeterSpacing=5;" parent="1" source="8--HhbSZYtI3ddgJnD71-12" target="8--HhbSZYtI3ddgJnD71-11" edge="1">
          <mxGeometry relative="1" as="geometry" />
        </mxCell>
        <mxCell id="8--HhbSZYtI3ddgJnD71-23" style="edgeStyle=none;rounded=0;orthogonalLoop=1;jettySize=auto;html=1;sourcePerimeterSpacing=5;endArrow=none;endFill=0;targetPerimeterSpacing=5;" parent="1" source="8--HhbSZYtI3ddgJnD71-16" target="8--HhbSZYtI3ddgJnD71-12" edge="1">
          <mxGeometry relative="1" as="geometry" />
        </mxCell>
        <mxCell id="8--HhbSZYtI3ddgJnD71-20" style="rounded=0;orthogonalLoop=1;jettySize=auto;html=1;endArrow=none;endFill=0;sourcePerimeterSpacing=5;targetPerimeterSpacing=5;" parent="1" source="8--HhbSZYtI3ddgJnD71-17" target="8--HhbSZYtI3ddgJnD71-12" edge="1">
          <mxGeometry relative="1" as="geometry" />
        </mxCell>
        <mxCell id="8--HhbSZYtI3ddgJnD71-22" style="edgeStyle=none;rounded=0;orthogonalLoop=1;jettySize=auto;html=1;sourcePerimeterSpacing=5;endArrow=none;endFill=0;targetPerimeterSpacing=5;" parent="1" source="8--HhbSZYtI3ddgJnD71-18" target="8--HhbSZYtI3ddgJnD71-12" edge="1">
          <mxGeometry relative="1" as="geometry" />
        </mxCell>
        <mxCell id="8--HhbSZYtI3ddgJnD71-32" style="edgeStyle=none;rounded=0;orthogonalLoop=1;jettySize=auto;html=1;sourcePerimeterSpacing=5;endArrow=none;endFill=0;targetPerimeterSpacing=5;" parent="1" source="8--HhbSZYtI3ddgJnD71-19" target="8--HhbSZYtI3ddgJnD71-9" edge="1">
          <mxGeometry relative="1" as="geometry" />
        </mxCell>
        <mxCell id="8--HhbSZYtI3ddgJnD71-33" style="edgeStyle=none;rounded=0;orthogonalLoop=1;jettySize=auto;html=1;sourcePerimeterSpacing=5;endArrow=none;endFill=0;targetPerimeterSpacing=5;" parent="1" source="8--HhbSZYtI3ddgJnD71-19" target="8--HhbSZYtI3ddgJnD71-8" edge="1">
          <mxGeometry relative="1" as="geometry" />
        </mxCell>
        <mxCell id="8--HhbSZYtI3ddgJnD71-34" style="edgeStyle=none;rounded=0;orthogonalLoop=1;jettySize=auto;html=1;sourcePerimeterSpacing=5;endArrow=none;endFill=0;targetPerimeterSpacing=5;" parent="1" source="8--HhbSZYtI3ddgJnD71-19" target="8--HhbSZYtI3ddgJnD71-15" edge="1">
          <mxGeometry relative="1" as="geometry" />
        </mxCell>
        <mxCell id="8--HhbSZYtI3ddgJnD71-35" style="edgeStyle=none;rounded=0;orthogonalLoop=1;jettySize=auto;html=1;sourcePerimeterSpacing=5;endArrow=none;endFill=0;targetPerimeterSpacing=5;" parent="1" source="8--HhbSZYtI3ddgJnD71-19" target="8--HhbSZYtI3ddgJnD71-14" edge="1">
          <mxGeometry relative="1" as="geometry" />
        </mxCell>
        <mxCell id="8--HhbSZYtI3ddgJnD71-36" style="edgeStyle=none;rounded=0;orthogonalLoop=1;jettySize=auto;html=1;sourcePerimeterSpacing=5;endArrow=none;endFill=0;targetPerimeterSpacing=5;" parent="1" source="8--HhbSZYtI3ddgJnD71-19" target="8--HhbSZYtI3ddgJnD71-1" edge="1">
          <mxGeometry relative="1" as="geometry" />
        </mxCell>
        <mxCell id="8--HhbSZYtI3ddgJnD71-37" style="edgeStyle=none;rounded=0;orthogonalLoop=1;jettySize=auto;html=1;sourcePerimeterSpacing=5;endArrow=none;endFill=0;targetPerimeterSpacing=5;" parent="1" source="8--HhbSZYtI3ddgJnD71-19" target="8--HhbSZYtI3ddgJnD71-10" edge="1">
          <mxGeometry relative="1" as="geometry" />
        </mxCell>
        <mxCell id="8--HhbSZYtI3ddgJnD71-1" value="Tape&#xa;Storage" style="shape=image;verticalLabelPosition=bottom;verticalAlign=top;imageAspect=0;aspect=fixed;image=data:image/svg+xml,PHN2ZyB4bWxucz0iaHR0cDovL3d3dy53My5vcmcvMjAwMC9zdmciIHZlcnNpb249IjEiIHZpZXdCb3g9IjAgMCA0OCA0OCIgZW5hYmxlLWJhY2tncm91bmQ9Im5ldyAwIDAgNDggNDgiPiYjeGE7ICAgIDxwYXRoIGZpbGw9IiM0Q0FGNTAiIGQ9Ik00OCwyNGMwLTYuMS00LjktMTEtMTEtMTFzLTExLDQuOS0xMSwxMWMwLDIuNywwLjksNS4xLDIuNSw3aC05YzEuNi0xLjksMi41LTQuMywyLjUtN2MwLTYuMS00LjktMTEtMTEtMTEgUzAsMTcuOSwwLDI0czQuOSwxMSwxMSwxMWgyN3YtMC4xQzQzLjYsMzQuNCw0OCwyOS43LDQ4LDI0eiBNNCwyNGMwLTMuOSwzLjEtNyw3LTdzNywzLjEsNyw3cy0zLjEsNy03LDdTNCwyNy45LDQsMjR6IE0zNywzMSBjLTMuOSwwLTctMy4xLTctN3MzLjEtNyw3LTdjMy45LDAsNywzLjEsNyw3UzQwLjksMzEsMzcsMzF6Ii8+JiN4YTs8L3N2Zz4=;labelBackgroundColor=#ffffff;" parent="1" vertex="1">
          <mxGeometry x="710" y="508" width="48" height="48" as="geometry" />
        </mxCell>
        <mxCell id="8--HhbSZYtI3ddgJnD71-2" value="Mobile" style="shape=image;verticalLabelPosition=bottom;verticalAlign=top;imageAspect=0;aspect=fixed;image=data:image/svg+xml,PHN2ZyB4bWxucz0iaHR0cDovL3d3dy53My5vcmcvMjAwMC9zdmciIHZlcnNpb249IjEiIHZpZXdCb3g9IjAgMCA0OCA0OCIgZW5hYmxlLWJhY2tncm91bmQ9Im5ldyAwIDAgNDggNDgiPiYjeGE7ICAgIDxwYXRoIGZpbGw9IiMzNzQ3NEYiIGQ9Ik00LDM5VjdjMC0yLjIsMS44LTQsNC00aDIyYzIuMiwwLDQsMS44LDQsNHYzMmMwLDIuMi0xLjgsNC00LDRIOEM1LjgsNDMsNCw0MS4yLDQsMzl6Ii8+JiN4YTsgICAgPHBhdGggZmlsbD0iI0JCREVGQiIgZD0iTTMwLDZIOEM3LjQsNiw3LDYuNCw3LDd2MjljMCwwLjYsMC40LDEsMSwxaDIyYzAuNiwwLDEtMC40LDEtMVY3QzMxLDYuNCwzMC42LDYsMzAsNnoiLz4mI3hhOyAgICA8cmVjdCB4PSIxNSIgeT0iMzkiIGZpbGw9IiM3ODkwOUMiIHdpZHRoPSI2IiBoZWlnaHQ9IjIiLz4mI3hhOyAgICA8cGF0aCBmaWxsPSIjRTM4OTM5IiBkPSJNMjQsNDFWMTdjMC0yLjIsMS44LTQsNC00aDEyYzIuMiwwLDQsMS44LDQsNHYyNGMwLDIuMi0xLjgsNC00LDRIMjhDMjUuOCw0NSwyNCw0My4yLDI0LDQxeiIvPiYjeGE7ICAgIDxwYXRoIGZpbGw9IiNGRkYzRTAiIGQ9Ik00MCwxNkgyOGMtMC42LDAtMSwwLjQtMSwxdjIyYzAsMC42LDAuNCwxLDEsMWgxMmMwLjYsMCwxLTAuNCwxLTFWMTdDNDEsMTYuNCw0MC42LDE2LDQwLDE2eiIvPiYjeGE7ICAgIDxjaXJjbGUgZmlsbD0iI0E2NjQyQSIgY3g9IjM0IiBjeT0iNDIuNSIgcj0iMS41Ii8+JiN4YTs8L3N2Zz4=;labelBackgroundColor=#ffffff;" parent="1" vertex="1">
          <mxGeometry x="202" y="282" width="48" height="48" as="geometry" />
        </mxCell>
        <mxCell id="8--HhbSZYtI3ddgJnD71-3" value="Chat" style="shape=image;verticalLabelPosition=bottom;verticalAlign=top;imageAspect=0;aspect=fixed;image=data:image/svg+xml,PHN2ZyB4bWxucz0iaHR0cDovL3d3dy53My5vcmcvMjAwMC9zdmciIHZlcnNpb249IjEiIHZpZXdCb3g9IjAgMCA0OCA0OCIgZW5hYmxlLWJhY2tncm91bmQ9Im5ldyAwIDAgNDggNDgiPiYjeGE7ICAgIDxwYXRoIGZpbGw9IiMwMDk2ODgiIGQ9Ik0zNywzOUgxMWwtNiw2VjExYzAtMy4zLDIuNy02LDYtNmgyNmMzLjMsMCw2LDIuNyw2LDZ2MjJDNDMsMzYuMyw0MC4zLDM5LDM3LDM5eiIvPiYjeGE7ICAgIDxnIGZpbGw9IiNmZmYiPiYjeGE7ICAgICAgICA8Y2lyY2xlIGN4PSIyNCIgY3k9IjIyIiByPSIzIi8+JiN4YTsgICAgICAgIDxjaXJjbGUgY3g9IjM0IiBjeT0iMjIiIHI9IjMiLz4mI3hhOyAgICAgICAgPGNpcmNsZSBjeD0iMTQiIGN5PSIyMiIgcj0iMyIvPiYjeGE7ICAgIDwvZz4mI3hhOzwvc3ZnPg==;labelBackgroundColor=#ffffff;" parent="1" vertex="1">
          <mxGeometry x="684" y="76" width="48" height="48" as="geometry" />
        </mxCell>
        <mxCell id="8--HhbSZYtI3ddgJnD71-4" value="Customer Support" style="shape=image;verticalLabelPosition=bottom;verticalAlign=top;imageAspect=0;aspect=fixed;image=data:image/svg+xml,PHN2ZyB4bWxucz0iaHR0cDovL3d3dy53My5vcmcvMjAwMC9zdmciIHZlcnNpb249IjEiIHZpZXdCb3g9IjAgMCA0OCA0OCIgZW5hYmxlLWJhY2tncm91bmQ9Im5ldyAwIDAgNDggNDgiPiYjeGE7ICAgIDxyZWN0IHg9IjEzIiB5PSIzMCIgZmlsbD0iI0JGMzYwQyIgd2lkdGg9IjIyIiBoZWlnaHQ9IjEyIi8+JiN4YTsgICAgPGcgZmlsbD0iI0ZGQTcyNiI+JiN4YTsgICAgICAgIDxjaXJjbGUgY3g9IjEwIiBjeT0iMjYiIHI9IjQiLz4mI3hhOyAgICAgICAgPGNpcmNsZSBjeD0iMzgiIGN5PSIyNiIgcj0iNCIvPiYjeGE7ICAgIDwvZz4mI3hhOyAgICA8cGF0aCBmaWxsPSIjRkZCNzREIiBkPSJNMzksMTljMC0xMi43LTMwLTguMy0zMCwwYzAsMS44LDAsOC4yLDAsMTBjMCw4LjMsNi43LDE1LDE1LDE1czE1LTYuNywxNS0xNUMzOSwyNy4yLDM5LDIwLjgsMzksMTl6Ii8+JiN4YTsgICAgPGcgZmlsbD0iIzc4NDcxOSI+JiN4YTsgICAgICAgIDxjaXJjbGUgY3g9IjMwIiBjeT0iMjYiIHI9IjIiLz4mI3hhOyAgICAgICAgPGNpcmNsZSBjeD0iMTgiIGN5PSIyNiIgcj0iMiIvPiYjeGE7ICAgIDwvZz4mI3hhOyAgICA8cGF0aCBmaWxsPSIjRkY1NzIyIiBkPSJNMjQsMkMxNS41LDIsMyw3LjgsMywzNS42TDEzLDQyVjI0bDE2LjgtOS44TDM1LDIxdjIxbDEwLTguMmMwLTUuNi0wLjktMjktMTUuNC0yOUwyOC4yLDJIMjR6Ii8+JiN4YTsgICAgPHBhdGggZmlsbD0iIzc1NzU3NSIgZD0iTTQ1LDI0Yy0wLjYsMC0xLDAuNC0xLDF2LTdjMC04LjgtNy4yLTE2LTE2LTE2aC05Yy0wLjYsMC0xLDAuNC0xLDFzMC40LDEsMSwxaDljNy43LDAsMTQsNi4zLDE0LDE0djEwIGMwLDAuNiwwLjQsMSwxLDFzMS0wLjQsMS0xdjJjMCwzLjktMy4xLDctNyw3SDI0Yy0wLjYsMC0xLDAuNC0xLDFzMC40LDEsMSwxaDEzYzUsMCw5LTQsOS05di01QzQ2LDI0LjQsNDUuNiwyNCw0NSwyNHoiLz4mI3hhOyAgICA8ZyBmaWxsPSIjMzc0NzRGIj4mI3hhOyAgICAgICAgPHBhdGggZD0iTTQ1LDIyaC0xYy0xLjEsMC0yLDAuOS0yLDJ2NGMwLDEuMSwwLjksMiwyLDJoMWMxLjEsMCwyLTAuOSwyLTJ2LTRDNDcsMjIuOSw0Ni4xLDIyLDQ1LDIyeiIvPiYjeGE7ICAgICAgICA8Y2lyY2xlIGN4PSIyNCIgY3k9IjM4IiByPSIyIi8+JiN4YTsgICAgPC9nPiYjeGE7PC9zdmc+;labelBackgroundColor=#ffffff;" parent="1" vertex="1">
          <mxGeometry x="858" y="330" width="48" height="48" as="geometry" />
        </mxCell>
        <mxCell id="8--HhbSZYtI3ddgJnD71-5" value="Home" style="shape=image;verticalLabelPosition=bottom;verticalAlign=top;imageAspect=0;aspect=fixed;image=data:image/svg+xml,PHN2ZyB4bWxucz0iaHR0cDovL3d3dy53My5vcmcvMjAwMC9zdmciIHZlcnNpb249IjEiIHZpZXdCb3g9IjAgMCA0OCA0OCIgZW5hYmxlLWJhY2tncm91bmQ9Im5ldyAwIDAgNDggNDgiPiYjeGE7ICAgIDxwb2x5Z29uIGZpbGw9IiNFOEVBRjYiIHBvaW50cz0iNDIsMzkgNiwzOSA2LDIzIDI0LDYgNDIsMjMiLz4mI3hhOyAgICA8ZyBmaWxsPSIjQzVDQUU5Ij4mI3hhOyAgICAgICAgPHBvbHlnb24gcG9pbnRzPSIzOSwyMSAzNCwxNiAzNCw5IDM5LDkiLz4mI3hhOyAgICAgICAgPHJlY3QgeD0iNiIgeT0iMzkiIHdpZHRoPSIzNiIgaGVpZ2h0PSI1Ii8+JiN4YTsgICAgPC9nPiYjeGE7ICAgIDxwb2x5Z29uIGZpbGw9IiNCNzFDMUMiIHBvaW50cz0iMjQsNC4zIDQsMjIuOSA2LDI1LjEgMjQsOC40IDQyLDI1LjEgNDQsMjIuOSIvPiYjeGE7ICAgIDxyZWN0IHg9IjE4IiB5PSIyOCIgZmlsbD0iI0Q4NDMxNSIgd2lkdGg9IjEyIiBoZWlnaHQ9IjE2Ii8+JiN4YTsgICAgPHJlY3QgeD0iMjEiIHk9IjE3IiBmaWxsPSIjMDE1NzlCIiB3aWR0aD0iNiIgaGVpZ2h0PSI2Ii8+JiN4YTsgICAgPHBhdGggZmlsbD0iI0ZGOEE2NSIgZD0iTTI3LjUsMzUuNWMtMC4zLDAtMC41LDAuMi0wLjUsMC41djJjMCwwLjMsMC4yLDAuNSwwLjUsMC41UzI4LDM4LjMsMjgsMzh2LTJDMjgsMzUuNywyNy44LDM1LjUsMjcuNSwzNS41eiIvPiYjeGE7PC9zdmc+;labelBackgroundColor=#ffffff;" parent="1" vertex="1">
          <mxGeometry x="170" y="186" width="48" height="48" as="geometry" />
        </mxCell>
        <mxCell id="8--HhbSZYtI3ddgJnD71-6" value="Education" style="shape=image;verticalLabelPosition=bottom;verticalAlign=top;imageAspect=0;aspect=fixed;image=data:image/svg+xml,PHN2ZyB4bWxucz0iaHR0cDovL3d3dy53My5vcmcvMjAwMC9zdmciIHZlcnNpb249IjEiIHZpZXdCb3g9IjAgMCA0OCA0OCIgZW5hYmxlLWJhY2tncm91bmQ9Im5ldyAwIDAgNDggNDgiPiYjeGE7ICAgIDxnIGZpbGw9IiMzNzQ3NEYiPiYjeGE7ICAgICAgICA8cmVjdCB4PSI5IiB5PSIyMCIgd2lkdGg9IjMwIiBoZWlnaHQ9IjEzIi8+JiN4YTsgICAgICAgIDxlbGxpcHNlIGN4PSIyNCIgY3k9IjMzIiByeD0iMTUiIHJ5PSI2Ii8+JiN4YTsgICAgPC9nPiYjeGE7ICAgIDxwYXRoIGZpbGw9IiM3ODkwOUMiIGQ9Ik0yMy4xLDguMkwwLjYsMTguMWMtMC44LDAuNC0wLjgsMS41LDAsMS45bDIyLjUsOS45YzAuNiwwLjIsMS4yLDAuMiwxLjgsMGwyMi41LTkuOWMwLjgtMC40LDAuOC0xLjUsMC0xLjkgTDI0LjksOC4yQzI0LjMsNy45LDIzLjcsNy45LDIzLjEsOC4yeiIvPiYjeGE7ICAgIDxnIGZpbGw9IiMzNzQ3NEYiPiYjeGE7ICAgICAgICA8cGF0aCBkPSJNNDMuMiwyMC40bC0yMC0zLjRjLTAuNS0wLjEtMS4xLDAuMy0xLjIsMC44Yy0wLjEsMC41LDAuMywxLjEsMC44LDEuMkw0MiwyMi4yVjM3YzAsMC42LDAuNCwxLDEsMSBzMS0wLjQsMS0xVjIxLjRDNDQsMjAuOSw0My42LDIwLjUsNDMuMiwyMC40eiIvPiYjeGE7ICAgICAgICA8Y2lyY2xlIGN4PSI0MyIgY3k9IjM3IiByPSIyIi8+JiN4YTsgICAgICAgIDxwYXRoIGQ9Ik00Niw0MGMwLDEuNy0zLDYtMyw2cy0zLTQuMy0zLTZzMS4zLTMsMy0zUzQ2LDM4LjMsNDYsNDB6Ii8+JiN4YTsgICAgPC9nPiYjeGE7PC9zdmc+;labelBackgroundColor=#ffffff;" parent="1" vertex="1">
          <mxGeometry x="880" y="220" width="48" height="48" as="geometry" />
        </mxCell>
        <mxCell id="8--HhbSZYtI3ddgJnD71-7" value="Alarm" style="shape=image;verticalLabelPosition=bottom;verticalAlign=top;imageAspect=0;aspect=fixed;image=data:image/svg+xml,PHN2ZyB4bWxucz0iaHR0cDovL3d3dy53My5vcmcvMjAwMC9zdmciIHZlcnNpb249IjEiIHZpZXdCb3g9IjAgMCA0OCA0OCIgZW5hYmxlLWJhY2tncm91bmQ9Im5ldyAwIDAgNDggNDgiPiYjeGE7ICAgIDxnIGZpbGw9IiMzNzQ3NEYiPiYjeGE7ICAgICAgICA8cGF0aCBkPSJNMzguNSw0NC42bC00LTRsMi4xLTIuMWw0LDRjMC42LDAuNiwwLjYsMS41LDAsMi4xbDAsMEM0MC4xLDQ1LjEsMzkuMSw0NS4xLDM4LjUsNDQuNnoiLz4mI3hhOyAgICAgICAgPHBhdGggZD0iTTkuNSw0NC42bDQtNGwtMi4xLTIuMWwtNCw0Yy0wLjYsMC42LTAuNiwxLjUsMCwyLjFsMCwwQzcuOSw0NS4xLDguOSw0NS4xLDkuNSw0NC42eiIvPiYjeGE7ICAgIDwvZz4mI3hhOyAgICA8Y2lyY2xlIGZpbGw9IiNDNjI4MjgiIGN4PSIyNCIgY3k9IjI0IiByPSIyMCIvPiYjeGE7ICAgIDxjaXJjbGUgZmlsbD0iI2VlZSIgY3g9IjI0IiBjeT0iMjQiIHI9IjE2Ii8+JiN4YTsgICAgPHJlY3QgeD0iMTkiIHk9IjIyLjEiIHRyYW5zZm9ybT0ibWF0cml4KC0uNzA3IC0uNzA3IC43MDcgLS43MDcgMTIuOTA0IDYyLjUzNykiIGZpbGw9IiNFNTM5MzUiIHdpZHRoPSIuOCIgaGVpZ2h0PSIxMyIvPiYjeGE7ICAgIDxyZWN0IHg9IjIzIiB5PSIxMSIgd2lkdGg9IjIiIGhlaWdodD0iMTMiLz4mI3hhOyAgICA8cmVjdCB4PSIyNi4xIiB5PSIyMi43IiB0cmFuc2Zvcm09Im1hdHJpeCgtLjcwNyAuNzA3IC0uNzA3IC0uNzA3IDY1Ljc4NyAyNy4yNSkiIHdpZHRoPSIyLjMiIGhlaWdodD0iOS4yIi8+JiN4YTsgICAgPGNpcmNsZSBjeD0iMjQiIGN5PSIyNCIgcj0iMiIvPiYjeGE7ICAgIDxjaXJjbGUgZmlsbD0iI0M2MjgyOCIgY3g9IjI0IiBjeT0iMjQiIHI9IjEiLz4mI3hhOyAgICA8cmVjdCB4PSIyMiIgeT0iMSIgZmlsbD0iIzM3NDc0RiIgd2lkdGg9IjQiIGhlaWdodD0iMyIvPiYjeGE7ICAgIDxnIGZpbGw9IiMzNzQ3NEYiPiYjeGE7ICAgICAgICA8cGF0aCBkPSJNNDQuNCwxNi4yYzIuNS0zLjUsMi4xLTguNC0xLTExLjVjLTMuMS0zLjEtOC0zLjUtMTEuNS0xTDQ0LjQsMTYuMnoiLz4mI3hhOyAgICAgICAgPHBhdGggZD0iTTMuNiwxNi4yYy0yLjUtMy41LTIuMS04LjQsMS0xMS41YzMuMS0zLjEsOC0zLjUsMTEuNS0xTDMuNiwxNi4yeiIvPiYjeGE7ICAgIDwvZz4mI3hhOzwvc3ZnPg==;labelBackgroundColor=#ffffff;" parent="1" vertex="1">
          <mxGeometry x="554" y="100" width="48" height="48" as="geometry" />
        </mxCell>
        <mxCell id="8--HhbSZYtI3ddgJnD71-8" value="Business" style="shape=image;verticalLabelPosition=bottom;verticalAlign=top;imageAspect=0;aspect=fixed;image=data:image/svg+xml,PHN2ZyB4bWxucz0iaHR0cDovL3d3dy53My5vcmcvMjAwMC9zdmciIHZlcnNpb249IjEiIHZpZXdCb3g9IjAgMCA0OCA0OCIgZW5hYmxlLWJhY2tncm91bmQ9Im5ldyAwIDAgNDggNDgiPiYjeGE7ICAgIDxnIGZpbGw9IiMyNjMyMzgiPiYjeGE7ICAgICAgICA8cGF0aCBkPSJNMTEsNDRIOWMtMC42LDAtMS0wLjQtMS0xdi0yaDR2MkMxMiw0My42LDExLjYsNDQsMTEsNDR6Ii8+JiN4YTsgICAgICAgIDxwYXRoIGQ9Ik0zOSw0NGgtMmMtMC42LDAtMS0wLjQtMS0xdi0yaDR2MkM0MCw0My42LDM5LjYsNDQsMzksNDR6Ii8+JiN4YTsgICAgPC9nPiYjeGE7ICAgIDxwYXRoIGZpbGw9IiMzNzQ3NEYiIGQ9Ik0yNyw3aC02Yy0xLjcsMC0zLDEuMy0zLDN2M2gydi0zYzAtMC42LDAuNC0xLDEtMWg2YzAuNiwwLDEsMC40LDEsMXYzaDJ2LTNDMzAsOC4zLDI4LjcsNywyNyw3eiIvPiYjeGE7ICAgIDxwYXRoIGZpbGw9IiM3ODkwOUMiIGQ9Ik00MCw0M0g4Yy0yLjIsMC00LTEuOC00LTRWMTVjMC0yLjIsMS44LTQsNC00aDMyYzIuMiwwLDQsMS44LDQsNHYyNEM0NCw0MS4yLDQyLjIsNDMsNDAsNDN6Ii8+JiN4YTs8L3N2Zz4=;labelBackgroundColor=#ffffff;" parent="1" vertex="1">
          <mxGeometry x="358" y="490" width="48" height="48" as="geometry" />
        </mxCell>
        <mxCell id="8--HhbSZYtI3ddgJnD71-9" value="Report" style="shape=image;verticalLabelPosition=bottom;verticalAlign=top;imageAspect=0;aspect=fixed;image=data:image/svg+xml,PHN2ZyB4bWxucz0iaHR0cDovL3d3dy53My5vcmcvMjAwMC9zdmciIHZlcnNpb249IjEiIHZpZXdCb3g9IjAgMCA0OCA0OCIgZW5hYmxlLWJhY2tncm91bmQ9Im5ldyAwIDAgNDggNDgiPiYjeGE7ICAgIDxwYXRoIGZpbGw9IiM3ODkwOUMiIGQ9Ik00MCw0MUg4Yy0yLjIsMC00LTEuOC00LTRsMC0yMC45YzAtMS4zLDAuNi0yLjUsMS43LTMuM0wyNCwwbDE4LjMsMTIuOGMxLjEsMC43LDEuNywyLDEuNywzLjNWMzcgQzQ0LDM5LjIsNDIuMiw0MSw0MCw0MXoiLz4mI3hhOyAgICA8cmVjdCB4PSIxMiIgeT0iMTEiIGZpbGw9IiNmZmYiIHdpZHRoPSIyNCIgaGVpZ2h0PSIyMiIvPiYjeGE7ICAgIDxwb2x5Z29uIGZpbGw9IiM5QzI3QjAiIHBvaW50cz0iMjQsMTMuNiAxOCwyMS40IDMwLDIxLjQiLz4mI3hhOyAgICA8cGF0aCBmaWxsPSIjQ0ZEOERDIiBkPSJNNDAsNDFIOGMtMi4yLDAtNC0xLjgtNC00bDAtMjBsMjAsMTNsMjAtMTN2MjBDNDQsMzkuMiw0Mi4yLDQxLDQwLDQxeiIvPiYjeGE7ICAgIDxwb2x5Z29uIGZpbGw9IiM5QzI3QjAiIHBvaW50cz0iMjQsMjggMjYsMjYuNyAyNiwyMCAyMiwyMCAyMiwyNi43Ii8+JiN4YTs8L3N2Zz4=;labelBackgroundColor=#ffffff;" parent="1" vertex="1">
          <mxGeometry x="334" y="378" width="48" height="48" as="geometry" />
        </mxCell>
        <mxCell id="8--HhbSZYtI3ddgJnD71-10" value="Storage" style="shape=image;verticalLabelPosition=bottom;verticalAlign=top;imageAspect=0;aspect=fixed;image=data:image/svg+xml,PHN2ZyB4bWxucz0iaHR0cDovL3d3dy53My5vcmcvMjAwMC9zdmciIHZlcnNpb249IjEiIHZpZXdCb3g9IjAgMCA0OCA0OCIgZW5hYmxlLWJhY2tncm91bmQ9Im5ldyAwIDAgNDggNDgiPiYjeGE7ICAgIDxyZWN0IHg9IjEyIiB5PSI0NCIgZmlsbD0iIzI2MzIzOCIgd2lkdGg9IjQiIGhlaWdodD0iMiIvPiYjeGE7ICAgIDxyZWN0IHg9IjMyIiB5PSI0NCIgZmlsbD0iIzI2MzIzOCIgd2lkdGg9IjQiIGhlaWdodD0iMiIvPiYjeGE7ICAgIDxwYXRoIGZpbGw9IiM2MDdEOEIiIGQ9Ik04LDQxVjdjMC0yLjIsMS44LTQsNC00aDI0YzIuMiwwLDQsMS44LDQsNHYzNGMwLDIuMi0xLjgsNC00LDRIMTJDOS44LDQ1LDgsNDMuMiw4LDQxeiIvPiYjeGE7ICAgIDxwYXRoIGZpbGw9IiNCMEJFQzUiIGQ9Ik0xMiwxN1Y4YzAtMC42LDAuNC0xLDEtMWgyMmMwLjYsMCwxLDAuNCwxLDF2OUgxMnoiLz4mI3hhOyAgICA8cmVjdCB4PSIxMiIgeT0iMTkiIGZpbGw9IiNCMEJFQzUiIHdpZHRoPSIyNCIgaGVpZ2h0PSIxMCIvPiYjeGE7ICAgIDxwYXRoIGZpbGw9IiNCMEJFQzUiIGQ9Ik0xMiw0MHYtOWgyNHY5YzAsMC42LTAuNCwxLTEsMUgxM0MxMi40LDQxLDEyLDQwLjYsMTIsNDB6Ii8+JiN4YTsgICAgPHJlY3QgeD0iMjAiIHk9IjExIiBmaWxsPSIjNTQ2RTdBIiB3aWR0aD0iOCIgaGVpZ2h0PSIyIi8+JiN4YTsgICAgPHJlY3QgeD0iMjAiIHk9IjIzIiBmaWxsPSIjNTQ2RTdBIiB3aWR0aD0iOCIgaGVpZ2h0PSIyIi8+JiN4YTsgICAgPHJlY3QgeD0iMjAiIHk9IjM1IiBmaWxsPSIjNTQ2RTdBIiB3aWR0aD0iOCIgaGVpZ2h0PSIyIi8+JiN4YTs8L3N2Zz4=;labelBackgroundColor=#ffffff;" parent="1" vertex="1">
          <mxGeometry x="824" y="460" width="48" height="48" as="geometry" />
        </mxCell>
        <mxCell id="8--HhbSZYtI3ddgJnD71-11" value="Internet" style="shape=image;verticalLabelPosition=bottom;verticalAlign=top;imageAspect=0;aspect=fixed;image=data:image/svg+xml,PHN2ZyB4bWxucz0iaHR0cDovL3d3dy53My5vcmcvMjAwMC9zdmciIHZlcnNpb249IjEiIHZpZXdCb3g9IjAgMCA0OCA0OCIgZW5hYmxlLWJhY2tncm91bmQ9Im5ldyAwIDAgNDggNDgiPiYjeGE7ICAgIDxwYXRoIGZpbGw9IiM3Q0IzNDIiIGQ9Ik0yNCw0QzEzLDQsNCwxMyw0LDI0czksMjAsMjAsMjBzMjAtOSwyMC0yMFMzNSw0LDI0LDR6Ii8+JiN4YTsgICAgPHBhdGggZmlsbD0iIzAyNzdCRCIgZD0iTTQ1LDI0YzAsMTEuNy05LjUsMjEtMjEsMjFTMywzNS43LDMsMjRTMTIuMywzLDI0LDNTNDUsMTIuMyw0NSwyNHogTTIzLjgsMzMuN2MwLTAuNC0wLjItMC42LTAuNi0wLjggYy0xLjMtMC40LTIuNS0wLjQtMy42LTEuNWMtMC4yLTAuNC0wLjItMC44LTAuNC0xLjNjLTAuNC0wLjQtMS41LTAuNi0yLjEtMC44Yy0wLjgsMC0xLjcsMC0yLjcsMGMtMC40LDAtMS4xLDAtMS41LDAgYy0wLjYtMC4yLTEuMS0xLjEtMS41LTEuN2MwLTAuMiwwLTAuNi0wLjQtMC42Yy0wLjQtMC4yLTAuOCwwLjItMS4zLDBjLTAuMi0wLjItMC4yLTAuNC0wLjItMC42YzAtMC42LDAuNC0xLjMsMC44LTEuNyBjMC42LTAuNCwxLjMsMC4yLDEuOSwwLjJjMC4yLDAsMC4yLDAsMC40LDAuMmMwLjYsMC4yLDAuOCwxLDAuOCwxLjdjMCwwLjIsMCwwLjQsMCwwLjRjMCwwLjIsMC4yLDAuMiwwLjQsMC4yIGMwLjItMS4xLDAuMi0yLjEsMC40LTMuMmMwLTEuMywxLjMtMi41LDIuMy0yLjljMC40LTAuMiwwLjYsMC4yLDEuMSwwYzEuMy0wLjQsNC40LTEuNywzLjgtMy40Yy0wLjQtMS41LTEuNy0yLjktMy40LTIuNyBjLTAuNCwwLjItMC42LDAuNC0xLDAuNmMtMC42LDAuNC0xLjksMS43LTIuNSwxLjdjLTEuMS0wLjItMS4xLTEuNy0wLjgtMi4zYzAuMi0wLjgsMi4xLTMuNiwzLjQtMy4xYzAuMiwwLjIsMC42LDAuNiwwLjgsMC44IGMwLjQsMC4yLDEuMSwwLjIsMS43LDAuMmMwLjIsMCwwLjQsMCwwLjYtMC4yYzAuMi0wLjIsMC4yLTAuMiwwLjItMC40YzAtMC42LTAuNi0xLjMtMS0xLjdjLTAuNC0wLjQtMS4xLTAuOC0xLjctMS4xIGMtMi4xLTAuNi01LjUsMC4yLTcuMSwxLjdzLTIuOSw0LTMuOCw2LjFjLTAuNCwxLjMtMC44LDIuOS0xLDQuNGMtMC4yLDEtMC40LDEuOSwwLjIsMi45YzAuNiwxLjMsMS45LDIuNSwzLjIsMy40IGMwLjgsMC42LDIuNSwwLjYsMy40LDEuN2MwLjYsMC44LDAuNCwxLjksMC40LDIuOWMwLDEuMywwLjgsMi4zLDEuMywzLjRjMC4yLDAuNiwwLjQsMS41LDAuNiwyLjFjMCwwLjIsMC4yLDEuNSwwLjIsMS43IGMxLjMsMC42LDIuMywxLjMsMy44LDEuN2MwLjIsMCwxLTEuMywxLTEuNWMwLjYtMC42LDEuMS0xLjUsMS43LTEuOWMwLjQtMC4yLDAuOC0wLjQsMS4zLTAuOGMwLjQtMC40LDAuNi0xLjMsMC44LTEuOSBDMjMuOCwzNS4xLDI0LDM0LjMsMjMuOCwzMy43eiBNMjQuMiwxNC4zYzAuMiwwLDAuNC0wLjIsMC44LTAuNGMwLjYtMC40LDEuMy0xLjEsMS45LTEuNWMwLjYtMC40LDEuMy0xLjEsMS43LTEuNSBjMC42LTAuNCwxLjEtMS4zLDEuMy0xLjljMC4yLTAuNCwwLjgtMS4zLDAuNi0xLjljLTAuMi0wLjQtMS4zLTAuNi0xLjctMC44Yy0xLjctMC40LTMuMS0wLjYtNC44LTAuNmMtMC42LDAtMS41LDAuMi0xLjcsMC44IGMtMC4yLDEuMSwwLjYsMC44LDEuNSwxLjFjMCwwLDAuMiwxLjcsMC4yLDEuOWMwLjIsMS0wLjQsMS43LTAuNCwyLjdjMCwwLjYsMCwxLjcsMC40LDIuMUwyNC4yLDE0LjN6IE00MS44LDI5IGMwLjItMC40LDAuMi0xLjEsMC40LTEuNWMwLjItMSwwLjItMi4xLDAuMi0zLjFjMC0yLjEtMC4yLTQuMi0wLjgtNi4xYy0wLjQtMC42LTAuNi0xLjMtMC44LTEuOWMtMC40LTEuMS0xLTIuMS0xLjktMi45IGMtMC44LTEuMS0xLjktNC0zLjgtMy4xYy0wLjYsMC4yLTEsMS0xLjUsMS41Yy0wLjQsMC42LTAuOCwxLjMtMS4zLDEuOWMtMC4yLDAuMi0wLjQsMC42LTAuMiwwLjhjMCwwLjIsMC4yLDAuMiwwLjQsMC4yIGMwLjQsMC4yLDAuNiwwLjIsMSwwLjRjMC4yLDAsMC40LDAuMiwwLjIsMC40YzAsMCwwLDAuMi0wLjIsMC4yYy0xLDEuMS0yLjEsMS45LTMuMSwyLjljLTAuMiwwLjItMC40LDAuNi0wLjQsMC44IGMwLDAuMiwwLjIsMC4yLDAuMiwwLjRjMCwwLjItMC4yLDAuMi0wLjQsMC40Yy0wLjQsMC4yLTAuOCwwLjQtMS4xLDAuNmMtMC4yLDAuNCwwLDEuMS0wLjIsMS41Yy0wLjIsMS4xLTAuOCwxLjktMS4zLDIuOSBjLTAuNCwwLjYtMC42LDEuMy0xLDEuOWMwLDAuOC0wLjIsMS41LDAuMiwyLjFjMSwxLjUsMi45LDAuNiw0LjQsMS4zYzAuNCwwLjIsMC44LDAuMiwxLjEsMC42YzAuNiwwLjYsMC42LDEuNywwLjgsMi4zIGMwLjIsMC44LDAuNCwxLjcsMC44LDIuNWMwLjIsMSwwLjYsMi4xLDAuOCwyLjljMS45LTEuNSwzLjYtMy4xLDQuOC01LjJDNDAuNiwzMi40LDQxLjIsMzAuNyw0MS44LDI5eiIvPiYjeGE7PC9zdmc+;labelBackgroundColor=#ffffff;" parent="1" vertex="1">
          <mxGeometry x="684" y="250" width="48" height="48" as="geometry" />
        </mxCell>
        <mxCell id="8--HhbSZYtI3ddgJnD71-12" value="Security" style="shape=image;verticalLabelPosition=bottom;verticalAlign=top;imageAspect=0;aspect=fixed;image=data:image/svg+xml,PHN2ZyB4bWxucz0iaHR0cDovL3d3dy53My5vcmcvMjAwMC9zdmciIHZlcnNpb249IjEiIHZpZXdCb3g9IjAgMCA0OCA0OCIgZW5hYmxlLWJhY2tncm91bmQ9Im5ldyAwIDAgNDggNDgiPiYjeGE7ICAgIDxwYXRoIGZpbGw9IiM0MjQyNDIiIGQ9Ik0yNCw0Yy01LjUsMC0xMCw0LjUtMTAsMTB2NGg0di00YzAtMy4zLDIuNy02LDYtNnM2LDIuNyw2LDZ2NGg0di00QzM0LDguNSwyOS41LDQsMjQsNHoiLz4mI3hhOyAgICA8cGF0aCBmaWxsPSIjRkI4QzAwIiBkPSJNMzYsNDRIMTJjLTIuMiwwLTQtMS44LTQtNFYyMmMwLTIuMiwxLjgtNCw0LTRoMjRjMi4yLDAsNCwxLjgsNCw0djE4QzQwLDQyLjIsMzguMiw0NCwzNiw0NHoiLz4mI3hhOyAgICA8Y2lyY2xlIGZpbGw9IiNDNzZFMDAiIGN4PSIyNCIgY3k9IjMxIiByPSIzIi8+JiN4YTs8L3N2Zz4=;labelBackgroundColor=#ffffff;" parent="1" vertex="1">
          <mxGeometry x="323" y="220" width="48" height="48" as="geometry" />
        </mxCell>
        <mxCell id="8--HhbSZYtI3ddgJnD71-13" value="Calendar" style="shape=image;verticalLabelPosition=bottom;verticalAlign=top;imageAspect=0;aspect=fixed;image=data:image/svg+xml,PHN2ZyB4bWxucz0iaHR0cDovL3d3dy53My5vcmcvMjAwMC9zdmciIHZlcnNpb249IjEiIHZpZXdCb3g9IjAgMCA0OCA0OCIgZW5hYmxlLWJhY2tncm91bmQ9Im5ldyAwIDAgNDggNDgiPiYjeGE7ICAgIDxwYXRoIGZpbGw9IiNDRkQ4REMiIGQ9Ik01LDM4VjE0aDM4djI0YzAsMi4yLTEuOCw0LTQsNEg5QzYuOCw0Miw1LDQwLjIsNSwzOHoiLz4mI3hhOyAgICA8cGF0aCBmaWxsPSIjRjQ0MzM2IiBkPSJNNDMsMTB2Nkg1di02YzAtMi4yLDEuOC00LDQtNGgzMEM0MS4yLDYsNDMsNy44LDQzLDEweiIvPiYjeGE7ICAgIDxnIGZpbGw9IiNCNzFDMUMiPiYjeGE7ICAgICAgICA8Y2lyY2xlIGN4PSIzMyIgY3k9IjEwIiByPSIzIi8+JiN4YTsgICAgICAgIDxjaXJjbGUgY3g9IjE1IiBjeT0iMTAiIHI9IjMiLz4mI3hhOyAgICA8L2c+JiN4YTsgICAgPGcgZmlsbD0iI0IwQkVDNSI+JiN4YTsgICAgICAgIDxwYXRoIGQ9Ik0zMywzYy0xLjEsMC0yLDAuOS0yLDJ2NWMwLDEuMSwwLjksMiwyLDJzMi0wLjksMi0yVjVDMzUsMy45LDM0LjEsMywzMywzeiIvPiYjeGE7ICAgICAgICA8cGF0aCBkPSJNMTUsM2MtMS4xLDAtMiwwLjktMiwydjVjMCwxLjEsMC45LDIsMiwyczItMC45LDItMlY1QzE3LDMuOSwxNi4xLDMsMTUsM3oiLz4mI3hhOyAgICA8L2c+JiN4YTsgICAgPGcgZmlsbD0iI0IwQkVDNSI+JiN4YTsgICAgICAgIDxyZWN0IHg9IjEzIiB5PSIyMSIgd2lkdGg9IjYiIGhlaWdodD0iNiIvPiYjeGE7ICAgICAgICA8cmVjdCB4PSIyMSIgeT0iMjEiIHdpZHRoPSI2IiBoZWlnaHQ9IjYiLz4mI3hhOyAgICAgICAgPHJlY3QgeD0iMjkiIHk9IjIxIiB3aWR0aD0iNiIgaGVpZ2h0PSI2Ii8+JiN4YTsgICAgICAgIDxyZWN0IHg9IjEzIiB5PSIyOSIgd2lkdGg9IjYiIGhlaWdodD0iNiIvPiYjeGE7ICAgICAgICA8cmVjdCB4PSIyMSIgeT0iMjkiIHdpZHRoPSI2IiBoZWlnaHQ9IjYiLz4mI3hhOyAgICA8L2c+JiN4YTsgICAgPHJlY3QgeD0iMjkiIHk9IjI5IiBmaWxsPSIjRjQ0MzM2IiB3aWR0aD0iNiIgaGVpZ2h0PSI2Ii8+JiN4YTs8L3N2Zz4=;labelBackgroundColor=#ffffff;" parent="1" vertex="1">
          <mxGeometry x="810" y="130" width="48" height="48" as="geometry" />
        </mxCell>
        <mxCell id="8--HhbSZYtI3ddgJnD71-14" value="Analytics" style="shape=image;verticalLabelPosition=bottom;verticalAlign=top;imageAspect=0;aspect=fixed;image=data:image/svg+xml,PHN2ZyB4bWxucz0iaHR0cDovL3d3dy53My5vcmcvMjAwMC9zdmciIHZlcnNpb249IjEiIHZpZXdCb3g9IjAgMCA0OCA0OCIgZW5hYmxlLWJhY2tncm91bmQ9Im5ldyAwIDAgNDggNDgiPiYjeGE7ICAgIDxwb2x5Z29uIGZpbGw9IiM5MENBRjkiIHBvaW50cz0iMzYuOSwxMy44IDM1LjEsMTAuMiA3LjUsMjQgMzUuMSwzNy44IDM2LjksMzQuMiAxNi41LDI0Ii8+JiN4YTsgICAgPHJlY3QgeD0iNiIgeT0iMTgiIGZpbGw9IiNEODFCNjAiIHdpZHRoPSIxMiIgaGVpZ2h0PSIxMiIvPiYjeGE7ICAgIDxnIGZpbGw9IiMyMTk2RjMiPiYjeGE7ICAgICAgICA8cmVjdCB4PSIzMCIgeT0iNiIgd2lkdGg9IjEyIiBoZWlnaHQ9IjEyIi8+JiN4YTsgICAgICAgIDxyZWN0IHg9IjMwIiB5PSIzMCIgd2lkdGg9IjEyIiBoZWlnaHQ9IjEyIi8+JiN4YTsgICAgPC9nPiYjeGE7PC9zdmc+;labelBackgroundColor=#ffffff;" parent="1" vertex="1">
          <mxGeometry x="576" y="514" width="48" height="48" as="geometry" />
        </mxCell>
        <mxCell id="8--HhbSZYtI3ddgJnD71-15" value="Store" style="shape=image;verticalLabelPosition=bottom;verticalAlign=top;imageAspect=0;aspect=fixed;image=data:image/svg+xml,PHN2ZyB4bWxucz0iaHR0cDovL3d3dy53My5vcmcvMjAwMC9zdmciIHZlcnNpb249IjEiIHZpZXdCb3g9IjAgMCA0OCA0OCIgZW5hYmxlLWJhY2tncm91bmQ9Im5ldyAwIDAgNDggNDgiPiYjeGE7ICAgIDxyZWN0IHg9IjUiIHk9IjE5IiBmaWxsPSIjQ0ZEOERDIiB3aWR0aD0iMzgiIGhlaWdodD0iMTkiLz4mI3hhOyAgICA8cmVjdCB4PSI1IiB5PSIzOCIgZmlsbD0iI0IwQkVDNSIgd2lkdGg9IjM4IiBoZWlnaHQ9IjQiLz4mI3hhOyAgICA8cmVjdCB4PSIyNyIgeT0iMjQiIGZpbGw9IiM0NTVBNjQiIHdpZHRoPSIxMiIgaGVpZ2h0PSIxOCIvPiYjeGE7ICAgIDxyZWN0IHg9IjkiIHk9IjI0IiBmaWxsPSIjRTNGMkZEIiB3aWR0aD0iMTQiIGhlaWdodD0iMTEiLz4mI3hhOyAgICA8cmVjdCB4PSIxMCIgeT0iMjUiIGZpbGw9IiMxRTg4RTUiIHdpZHRoPSIxMiIgaGVpZ2h0PSI5Ii8+JiN4YTsgICAgPHBhdGggZmlsbD0iIzkwQTRBRSIgZD0iTTM2LjUsMzMuNWMtMC4zLDAtMC41LDAuMi0wLjUsMC41djJjMCwwLjMsMC4yLDAuNSwwLjUsMC41UzM3LDM2LjMsMzcsMzZ2LTJDMzcsMzMuNywzNi44LDMzLjUsMzYuNSwzMy41eiIvPiYjeGE7ICAgIDxnIGZpbGw9IiM1NThCMkYiPiYjeGE7ICAgICAgICA8Y2lyY2xlIGN4PSIyNCIgY3k9IjE5IiByPSIzIi8+JiN4YTsgICAgICAgIDxjaXJjbGUgY3g9IjM2IiBjeT0iMTkiIHI9IjMiLz4mI3hhOyAgICAgICAgPGNpcmNsZSBjeD0iMTIiIGN5PSIxOSIgcj0iMyIvPiYjeGE7ICAgIDwvZz4mI3hhOyAgICA8cGF0aCBmaWxsPSIjN0NCMzQyIiBkPSJNNDAsNkg4QzYuOSw2LDYsNi45LDYsOHYzaDM2VjhDNDIsNi45LDQxLjEsNiw0MCw2eiIvPiYjeGE7ICAgIDxyZWN0IHg9IjIxIiB5PSIxMSIgZmlsbD0iIzdDQjM0MiIgd2lkdGg9IjYiIGhlaWdodD0iOCIvPiYjeGE7ICAgIDxwb2x5Z29uIGZpbGw9IiM3Q0IzNDIiIHBvaW50cz0iMzcsMTEgMzIsMTEgMzMsMTkgMzksMTkiLz4mI3hhOyAgICA8cG9seWdvbiBmaWxsPSIjN0NCMzQyIiBwb2ludHM9IjExLDExIDE2LDExIDE1LDE5IDksMTkiLz4mI3hhOyAgICA8ZyBmaWxsPSIjRkZBMDAwIj4mI3hhOyAgICAgICAgPGNpcmNsZSBjeD0iMzAiIGN5PSIxOSIgcj0iMyIvPiYjeGE7ICAgICAgICA8cGF0aCBkPSJNNDUsMTljMCwxLjctMS4zLDMtMywzcy0zLTEuMy0zLTNzMS4zLTMsMy0zTDQ1LDE5eiIvPiYjeGE7ICAgICAgICA8Y2lyY2xlIGN4PSIxOCIgY3k9IjE5IiByPSIzIi8+JiN4YTsgICAgICAgIDxwYXRoIGQ9Ik0zLDE5YzAsMS43LDEuMywzLDMsM3MzLTEuMywzLTNzLTEuMy0zLTMtM0wzLDE5eiIvPiYjeGE7ICAgIDwvZz4mI3hhOyAgICA8ZyBmaWxsPSIjRkZDMTA3Ij4mI3hhOyAgICAgICAgPHBvbHlnb24gcG9pbnRzPSIzMiwxMSAyNywxMSAyNywxOSAzMywxOSIvPiYjeGE7ICAgICAgICA8cG9seWdvbiBwb2ludHM9IjQyLDExIDM3LDExIDM5LDE5IDQ1LDE5Ii8+JiN4YTsgICAgICAgIDxwb2x5Z29uIHBvaW50cz0iMTYsMTEgMjEsMTEgMjEsMTkgMTUsMTkiLz4mI3hhOyAgICAgICAgPHBvbHlnb24gcG9pbnRzPSI2LDExIDExLDExIDksMTkgMywxOSIvPiYjeGE7ICAgIDwvZz4mI3hhOzwvc3ZnPg==;labelBackgroundColor=#ffffff;" parent="1" vertex="1">
          <mxGeometry x="458" y="508" width="48" height="48" as="geometry" />
        </mxCell>
        <mxCell id="8--HhbSZYtI3ddgJnD71-16" value="User" style="shape=image;verticalLabelPosition=bottom;verticalAlign=top;imageAspect=0;aspect=fixed;image=data:image/svg+xml,PHN2ZyB4bWxucz0iaHR0cDovL3d3dy53My5vcmcvMjAwMC9zdmciIHZlcnNpb249IjEiIHZpZXdCb3g9IjAgMCA0OCA0OCIgZW5hYmxlLWJhY2tncm91bmQ9Im5ldyAwIDAgNDggNDgiPiYjeGE7ICAgIDxwb2x5Z29uIGZpbGw9IiNGRjk4MDAiIHBvaW50cz0iMjQsMzcgMTksMzEgMTksMjUgMjksMjUgMjksMzEiLz4mI3hhOyAgICA8ZyBmaWxsPSIjRkZBNzI2Ij4mI3hhOyAgICAgICAgPGNpcmNsZSBjeD0iMzMiIGN5PSIxOSIgcj0iMiIvPiYjeGE7ICAgICAgICA8Y2lyY2xlIGN4PSIxNSIgY3k9IjE5IiByPSIyIi8+JiN4YTsgICAgPC9nPiYjeGE7ICAgIDxwYXRoIGZpbGw9IiNGRkI3NEQiIGQ9Ik0zMywxM2MwLTcuNi0xOC01LTE4LDBjMCwxLjEsMCw1LjksMCw3YzAsNSw0LDksOSw5czktNCw5LTlDMzMsMTguOSwzMywxNC4xLDMzLDEzeiIvPiYjeGE7ICAgIDxwYXRoIGZpbGw9IiM0MjQyNDIiIGQ9Ik0yNCw0Yy02LjEsMC0xMCw0LjktMTAsMTFjMCwwLjgsMCwyLjMsMCwyLjNsMiwxLjd2LTVsMTItNGw0LDR2NWwyLTEuN2MwLDAsMC0xLjUsMC0yLjNjMC00LTEtOC02LTlsLTEtMiBIMjR6Ii8+JiN4YTsgICAgPGcgZmlsbD0iIzc4NDcxOSI+JiN4YTsgICAgICAgIDxjaXJjbGUgY3g9IjI4IiBjeT0iMTkiIHI9IjEiLz4mI3hhOyAgICAgICAgPGNpcmNsZSBjeD0iMjAiIGN5PSIxOSIgcj0iMSIvPiYjeGE7ICAgIDwvZz4mI3hhOyAgICA8cG9seWdvbiBmaWxsPSIjZmZmIiBwb2ludHM9IjI0LDQzIDE5LDMxIDI0LDMyIDI5LDMxIi8+JiN4YTsgICAgPHBvbHlnb24gZmlsbD0iI0QzMkYyRiIgcG9pbnRzPSIyMywzNSAyMi4zLDM5LjUgMjQsNDMuNSAyNS43LDM5LjUgMjUsMzUgMjYsMzQgMjQsMzIgMjIsMzQiLz4mI3hhOyAgICA8cGF0aCBmaWxsPSIjNTQ2RTdBIiBkPSJNMjksMzFMMjksMzFsLTUsMTJsLTUtMTJjMCwwLTExLDItMTEsMTNoMzJDNDAsMzMsMjksMzEsMjksMzF6Ii8+JiN4YTs8L3N2Zz4=;labelBackgroundColor=#ffffff;" parent="1" vertex="1">
          <mxGeometry x="204" y="94" width="48" height="48" as="geometry" />
        </mxCell>
        <mxCell id="8--HhbSZYtI3ddgJnD71-17" value="User" style="shape=image;verticalLabelPosition=bottom;verticalAlign=top;imageAspect=0;aspect=fixed;image=data:image/svg+xml,PHN2ZyB4bWxucz0iaHR0cDovL3d3dy53My5vcmcvMjAwMC9zdmciIHZlcnNpb249IjEiIHZpZXdCb3g9IjAgMCA0OCA0OCIgZW5hYmxlLWJhY2tncm91bmQ9Im5ldyAwIDAgNDggNDgiPiYjeGE7ICAgIDxwb2x5Z29uIGZpbGw9IiNGRjk4MDAiIHBvaW50cz0iMjQsMzcgMTksMzEgMTksMjUgMjksMjUgMjksMzEiLz4mI3hhOyAgICA8ZyBmaWxsPSIjRkZBNzI2Ij4mI3hhOyAgICAgICAgPGNpcmNsZSBjeD0iMzMiIGN5PSIxOSIgcj0iMiIvPiYjeGE7ICAgICAgICA8Y2lyY2xlIGN4PSIxNSIgY3k9IjE5IiByPSIyIi8+JiN4YTsgICAgPC9nPiYjeGE7ICAgIDxwYXRoIGZpbGw9IiNGRkI3NEQiIGQ9Ik0zMywxM2MwLTcuNi0xOC01LTE4LDBjMCwxLjEsMCw1LjksMCw3YzAsNSw0LDksOSw5czktNCw5LTlDMzMsMTguOSwzMywxNC4xLDMzLDEzeiIvPiYjeGE7ICAgIDxwYXRoIGZpbGw9IiM0MjQyNDIiIGQ9Ik0yNCw0Yy02LjEsMC0xMCw0LjktMTAsMTFjMCwwLjgsMCwyLjMsMCwyLjNsMiwxLjd2LTVsMTItNGw0LDR2NWwyLTEuN2MwLDAsMC0xLjUsMC0yLjNjMC00LTEtOC02LTlsLTEtMiBIMjR6Ii8+JiN4YTsgICAgPGcgZmlsbD0iIzc4NDcxOSI+JiN4YTsgICAgICAgIDxjaXJjbGUgY3g9IjI4IiBjeT0iMTkiIHI9IjEiLz4mI3hhOyAgICAgICAgPGNpcmNsZSBjeD0iMjAiIGN5PSIxOSIgcj0iMSIvPiYjeGE7ICAgIDwvZz4mI3hhOyAgICA8cG9seWdvbiBmaWxsPSIjZmZmIiBwb2ludHM9IjI0LDQzIDE5LDMxIDI0LDMyIDI5LDMxIi8+JiN4YTsgICAgPHBvbHlnb24gZmlsbD0iI0QzMkYyRiIgcG9pbnRzPSIyMywzNSAyMi4zLDM5LjUgMjQsNDMuNSAyNS43LDM5LjUgMjUsMzUgMjYsMzQgMjQsMzIgMjIsMzQiLz4mI3hhOyAgICA8cGF0aCBmaWxsPSIjNTQ2RTdBIiBkPSJNMjksMzFMMjksMzFsLTUsMTJsLTUtMTJjMCwwLTExLDItMTEsMTNoMzJDNDAsMzMsMjksMzEsMjksMzF6Ii8+JiN4YTs8L3N2Zz4=;labelBackgroundColor=#ffffff;" parent="1" vertex="1">
          <mxGeometry x="394" y="106" width="48" height="48" as="geometry" />
        </mxCell>
        <mxCell id="8--HhbSZYtI3ddgJnD71-18" value="User" style="shape=image;verticalLabelPosition=bottom;verticalAlign=top;imageAspect=0;aspect=fixed;image=data:image/svg+xml,PHN2ZyB4bWxucz0iaHR0cDovL3d3dy53My5vcmcvMjAwMC9zdmciIHZlcnNpb249IjEiIHZpZXdCb3g9IjAgMCA0OCA0OCIgZW5hYmxlLWJhY2tncm91bmQ9Im5ldyAwIDAgNDggNDgiPiYjeGE7ICAgIDxwb2x5Z29uIGZpbGw9IiNGRjk4MDAiIHBvaW50cz0iMjQsMzcgMTksMzEgMTksMjUgMjksMjUgMjksMzEiLz4mI3hhOyAgICA8ZyBmaWxsPSIjRkZBNzI2Ij4mI3hhOyAgICAgICAgPGNpcmNsZSBjeD0iMzMiIGN5PSIxOSIgcj0iMiIvPiYjeGE7ICAgICAgICA8Y2lyY2xlIGN4PSIxNSIgY3k9IjE5IiByPSIyIi8+JiN4YTsgICAgPC9nPiYjeGE7ICAgIDxwYXRoIGZpbGw9IiNGRkI3NEQiIGQ9Ik0zMywxM2MwLTcuNi0xOC01LTE4LDBjMCwxLjEsMCw1LjksMCw3YzAsNSw0LDksOSw5czktNCw5LTlDMzMsMTguOSwzMywxNC4xLDMzLDEzeiIvPiYjeGE7ICAgIDxwYXRoIGZpbGw9IiM0MjQyNDIiIGQ9Ik0yNCw0Yy02LjEsMC0xMCw0LjktMTAsMTFjMCwwLjgsMCwyLjMsMCwyLjNsMiwxLjd2LTVsMTItNGw0LDR2NWwyLTEuN2MwLDAsMC0xLjUsMC0yLjNjMC00LTEtOC02LTlsLTEtMiBIMjR6Ii8+JiN4YTsgICAgPGcgZmlsbD0iIzc4NDcxOSI+JiN4YTsgICAgICAgIDxjaXJjbGUgY3g9IjI4IiBjeT0iMTkiIHI9IjEiLz4mI3hhOyAgICAgICAgPGNpcmNsZSBjeD0iMjAiIGN5PSIxOSIgcj0iMSIvPiYjeGE7ICAgIDwvZz4mI3hhOyAgICA8cG9seWdvbiBmaWxsPSIjZmZmIiBwb2ludHM9IjI0LDQzIDE5LDMxIDI0LDMyIDI5LDMxIi8+JiN4YTsgICAgPHBvbHlnb24gZmlsbD0iI0QzMkYyRiIgcG9pbnRzPSIyMywzNSAyMi4zLDM5LjUgMjQsNDMuNSAyNS43LDM5LjUgMjUsMzUgMjYsMzQgMjQsMzIgMjIsMzQiLz4mI3hhOyAgICA8cGF0aCBmaWxsPSIjNTQ2RTdBIiBkPSJNMjksMzFMMjksMzFsLTUsMTJsLTUtMTJjMCwwLTExLDItMTEsMTNoMzJDNDAsMzMsMjksMzEsMjksMzF6Ii8+JiN4YTs8L3N2Zz4=;labelBackgroundColor=#ffffff;" parent="1" vertex="1">
          <mxGeometry x="299" y="70" width="48" height="48" as="geometry" />
        </mxCell>
        <mxCell id="8--HhbSZYtI3ddgJnD71-19" value="Security" style="shape=image;verticalLabelPosition=bottom;verticalAlign=top;imageAspect=0;aspect=fixed;image=data:image/svg+xml,PHN2ZyB4bWxucz0iaHR0cDovL3d3dy53My5vcmcvMjAwMC9zdmciIHZlcnNpb249IjEiIHZpZXdCb3g9IjAgMCA0OCA0OCIgZW5hYmxlLWJhY2tncm91bmQ9Im5ldyAwIDAgNDggNDgiPiYjeGE7ICAgIDxwYXRoIGZpbGw9IiM0MjQyNDIiIGQ9Ik0yNCw0Yy01LjUsMC0xMCw0LjUtMTAsMTB2NGg0di00YzAtMy4zLDIuNy02LDYtNnM2LDIuNyw2LDZ2NGg0di00QzM0LDguNSwyOS41LDQsMjQsNHoiLz4mI3hhOyAgICA8cGF0aCBmaWxsPSIjRkI4QzAwIiBkPSJNMzYsNDRIMTJjLTIuMiwwLTQtMS44LTQtNFYyMmMwLTIuMiwxLjgtNCw0LTRoMjRjMi4yLDAsNCwxLjgsNCw0djE4QzQwLDQyLjIsMzguMiw0NCwzNiw0NHoiLz4mI3hhOyAgICA8Y2lyY2xlIGZpbGw9IiNDNzZFMDAiIGN4PSIyNCIgY3k9IjMxIiByPSIzIi8+JiN4YTs8L3N2Zz4=;labelBackgroundColor=#ffffff;" parent="1" vertex="1">
          <mxGeometry x="550" y="378" width="48" height="48" as="geometry" />
        </mxCell>
        <mxCell id="FxiHw-7HybhJhLXKP8Io-1" value="" style="shape=image;imageAspect=0;aspect=fixed;verticalLabelPosition=bottom;verticalAlign=top;image=data:image/png,iVBORw0KGgoAAAANSUhEUgAAAXQAAAGuCAYAAACAxv0aAAAAAXNSR0IArs4c6QAAAARnQU1BAACxjwv8YQUAAAAJcEhZcwAAFiUAABYlAUlSJPAAAOIWSURBVHhe7Z0FuBxF1oYbCO5hcSdAcHcJ7q4BNizOEmBxFnd3l+AEd1gI7iy+QHDX4AnB2R9Z5u/39NSdmrrV3VXdPXd65s73pHNnevp8fepU1SmvGqMSItDw559/Btzir34Zj3XQQQcddFASjDHGGMGYY44Z1Dl05cjHGmus6p0OOuigg3TgO3799dfg//7v/7qun3/+Ofjss8+Cjz76KPjwww/l8zvvvBOMHj06+PHHH+WZ3377TeSQH3vssYNxxx03GG+88YIJJpggmHzyyYO+ffsGU0wxRTD11FMHs846q1wzzzxzMMkkk8hz448/vvzlwqH1ZnzzzTf1Dh1n/r///U8M6wtkKSUU9M+u6HDU0LFFPTocNZBluZrJgex3330XfPzxx8Enn3wSfPrpp/KZCwfO35EjR4o/aQQmnXTSYIYZZhAHP8sss8g144wzyr2ZZpopmGaaaYI+ffpUn05GGewJ8nJg824O/ffff5dS0hVKCY1GlPApLTscNeSVBx2OenQ46pGVg+dxGi+++GLw/PPPB2+88YbUur/88svg66+/Ft/hA96pQ9fHFYoD3anRTzXVVMF0000X9OvXL1hsscWCJZZYIphnnnlinXtWW+goC8crr7xS79ApTWkC0YxxAaIUAroSKOAbkA5HhDLoADoc9ejtHHSR3HHHHcHtt98uXSbUzH/44QfpMgFw6XwuwFkpZ5xFHiRx0MtAtww1+WmnnTZYbbXVgoEDBwb9+/evk2mXeAVPPvlkvUP/448/pD9rwgknrN6JB2IUACgCMBJ9774B6XBEaJQOyMPjinbnKMKmvYXj3XffDa644orghhtuCL744gvxDcibzys+V+SVBz4chHOcccYR577KKqsEO++8c7DMMssIR0/a04YiOAA8Dz30UHeHTqk70UQTVe/YgQjP6kakSYMiruhw1NCxRT06HPXoKQ66TKh933///cHFF18cPPXUUyKDrILpaPhN/z0NeeVBHg4cJtdcc80lNXYuavAMwmIPV/A+3Z5wIu/rzIvg4EL2nnvu8XfoPE7E2xIGpC7ocNTQTrZANs5ptAMHzXgyW7tx0KXy/vvvB7fddltw7bXXyiAn6cGE+U74bM8lgThQyCJfhA46B93La621VrD11lsHiyyyiDh3fk9Cmj1dUAQH4Uae57nuvPNOP4fOo/Sxm0r4ZhTTcfRWjjLoADoc9egtHAxoPvzww8EDDzwQPPLII/LdBl6lOxo8RqXC+hR3R6pz5JUHRXPQHbP00ktLX/uqq64azD///F3P6Wh0nPhwKHkVJi+HzmMoofp7IGA2jG6gNMBBPxzyfO7tHNg6rw5w8LfD0eEwEcfx3//+N7jmmmuCm2++OXj55ZeDUaNGye82IFP/TmqFUc3QFfUceeVB4zgYP5xzzjnFqe+www7yWcnE2RNH7IqiOPDVQIWL61//+pebQ1cEOHM+c2VRQg2qgKwBaSeOX375RT53bNHh0NEoDgYGhw0bFpx00knBm2++KTNVkpwiMmONRfeD7gR9a8X1HH/+SYUwu3wROrhw0BXDAqZtttkmGDx4sMyYwTcqe8GZJU6K4KBizV9VQCHPXyeHzs8kCi4+c5Ew8gQEEBD6NV3Rzhx55YlM4qTD0eEANo7PP/88OOigg8Sh8xvPJAGZ7k6we402CTaOP/6IChgXNEoHVw5ksTt96yeffFKw6KKLdd0nzzbDmdPlzV/kcejI8xfg0KNPMUAQBfTA09ejCFxgCwgJ1Dcg1DbajaMoHVT/mysayeHreDocNRTNwWdmrVx55ZXByiuvHNxyyy3S3cL9JPDeeidIzTqvI404XNFIHVw5sBOV3Bde+E+w2mqrB/vtt5+MM0S8zfMbQOlg+uLEGjrC6uIxCLggcwFylCh6s4/ESSLtaQ7TGGXgQDavDsijR4ejw6Fz/PTTT8EzzzwTXHbZZTINkXztAt6lmvIK8Cm9XJCXoww6AJODv0x33HXXXYN1111XVqTyexJ4X1Hxig9WOiFvFgiJXS6Q8JO6IDENlARkUEJ3xL4BaScO7GkWTPTT+cijQxEJo8MRoV05nnvuuWDo0KHiyOlqcQXvqs/j1Gb9a8V5OMqgA0jioD99ueWWC7bffvtgww03jK1p86wZr6pmXuNNhs6BjM5hItGhcxsS/hIwLlcgY3azNKvPqR04OraoR4ejHoqD6/rrrw+GDLkweOONN2XwzBW8t1FOkHvsmshFrRaHxMV9dKSiw0WrgjnxdBOxU6MaQC1Ch6I5+I2wbLTRRsGxxx4r0x51NCptJO0q6eTQVeBc0aiA9FaOji3q0eGoh+LAGZ577rnBRRcNCUaOHNXVEnQB7+0+cEj3hF+fd58+Y8mOh3PPPU94zSWbYs0119yy+yGtDcLFxbNKBv3Vxawv9Ob68ccfZIHTO++8KzNyXn/99eCtt94Kvv/+e3nWhqLC4cNBfFFbHzJkiGwIBlSc9HTaSHXoXHmcOUAJItMVHY4aOraoRyM4yCjUFluZg+uII44ILrnkkromvgt4b/eBw+S+ZmQAtl9ggQVkpSVOjY2vJp54YvEZ/Ea3Ec+q5+MQZwvle/id3/BPI0aMCJ599lnZt4Qupa+++kp+B77hMJHFFgC5pZZaKjj//PODBRdcsGlpI9Gh+8KmBAqoSHVBmTl8+zTzciBXZL8q6HC0FwfzyNnC9uCDD5ad9rinOF3Au3Ca+jttHPyuDpz4y1/+Eiy++OLBCiusEKy44oqy7zjdJUrGNyzImWNLrvL4q5deekmc++OPPx588MEH0l1DLV7XyQW8K2+BQA396KOPClZeeRUp2FRYuFwRZw8XjsIcuqkEUEqkRYpCmTlU6ejDoWdY4MNhyiNDGPLo0OFoLw4GO6+66qrgvPPOk1oq9xSnC3hXmjPnd5zUoosuKrsTLr/88sHcc88ttW/As3nCklce6BwcqDF8+HCpwXOxCvbbb7+VylUSeJdLwZYExcFK08033zz4xz/+IbbyCQs+B9+T1R6FOHTEzZoozkvvK0tDh6OGji3q0eGoBxwcMnHGGWfI8v3vv/8u5Iu6JFzBu+odGPI1Do57owbOVrPzzjuvLH+nZq7rmDcsRdgCWbNAgIPv2Ig+d1ou7FfDoRx6JU0BmSRbuMDkGHPMMYKll14mOPnkk+WADRfEhcXHHrkdOqIooQzFiym9UcIVHY4aOraoR4ejHnBwbuThhx8uuyL+/PNPmZxP90G/iINugm233TYYNGiQHOnGrBRqhybyhqWn7MkzauYMXTOnnnpq8PTTT9c5ze62oGaeXKPXEcfBd7qmzj777FSnXoQ9QC6HjphZwmaJlA5HhI4t6tHhqAccrPLcd999ZeXn77/TNC/GmcO93nrrBYceeqjsMohuPGtD3rA0y544Sxz7rbfeKnvZUIOnJm3aogh7Kg5q7XRVMViKXW0owh4AHu/tcxUQMUsU+nq4XNHhqKHM4aDZZ6ulxQEOM4F2OPJzjBo1Mthrr72Dm266Sb7DpzhdwHt154OzYU4zuwqyxwv7lXAvCUWEhUKpmfZEnn71Sy65OLjgggvlLFTVb53HniCOY8kll5QVu6wy1W1chD3h4EI2k0Pn5fqgIUQogOPgswvgwHHoASkLB/Lw9BRHGXQAHY56lIWDfPbqq68GBxxwQPDoo48Kl7pcwbv0Pl5WOjJDZffddw+WXXZZcSJpKCIsyOLQQVb5IuOExUu0dhhcfvvtt8WvuYB36fYE8Cm9bGBKJ+sE2FMHWV0PkCUsuG7keZ4r8wEXJDIlpkoUVyVQQC8QQG/lQF6PVJBFhzJyINfsDAtaneOFF14IDjnkkOCJJ54I8yeHIvh3Cyjnw7s5xGGrrbYK1l9/fTkh3wVFhUVx5JUHRXFgGxYuMcDMKltmD2kusRuUTO2d9d0sSWDR1emnny6rS/EbecOi5NEH3HXXXe4OncfMAy7I9PT1uCoBh62J0Vs5bM3PdrIFCdQVHY56wMEhzcwx56zI337DEWV35nPMMUfw97//PVhzzTXls3ICaSjaHs20ZxIH89cZOL3oooukW0uvpCkgk9WZK8w+++zBaaedJjOIQNaw4KuB0omLQVGnWFUEujHouEeJWuCSAYdZOvZ2jna3hSvKxGFm+mZxsDiGJvq9995bdeb+3Sz08eIsNt10U+la4LR7piDmceZ57VHWOJlssslkqibz+jnJie0KdCh78jdClH8VpwuQ/fjjj2RQlm60rGGhYq2/t6ZTWFuv/o0FBKpWroAS1OBcoQxqdk30dg5AZOTVocNRHIee6ZvJcfXVV8vJ+7/+Cl9UE3QF78X59Okzthx+zHzohRde2Gt3T1tYsuZ7nSOvfBE6xHFQ0DFVkxk/zIbBZiDSG1epO/NscRKqE/znP/8JzjnnHGkV+IZF76oB9S2GFIcOAcI6AX09riU8gMOsOWVJ5O3IgTz2zKuD6n9zRYejHmXiYN40Tf7999+/2iqO8qArovf2CaaY4i/B0UcfLXOvWZ5fRFiKSKeuaKQOaRz8zupY5vrj3CeaaMLwbs1pZokTvUBA9oYbbgjOPPNMmXHjAltY0NP0xWMdGaL6WR4mEeGkACTqAiQKSCBzAXymEnBg1GZzIA9PMzmwc7N16HCUh4NZFwzMcTKOqlUqThfwLroO1lhjDemnZa9u1aTv6bDk4SiDDoDa+korrSQtmy+//FIWdcGnOF3Au8xatOJgewLAQLXyuTbQ8iQs+GHFRzjMgomZOrEOnc/KkQOEfZw5sraRXK6e5ihD4rBxkNmarUMRHEUUTB2OX4P77rsvOOqoo4KRI7+We4rTBbxr+umnD/bcc08pEBh8K8KZ97Q9yqADUBzIsdKTXRR/+ulH2WfeFbyr3pmrrppIL3wTWxLwDnartOnGs8oH8jsXedZ05gCHHtt3opNncebUMPQ+TRIXijSDQ4/YLBxm4iiKoww6FMHhk1E6HPVQHOw7woDciBGfhGne35mz1wpz1XfccUeZjsiioVazR9niRHEgy4DpKaecGvz1r3916nLmXUnOXIE94BnjuP3226t3ajD1AITF5swVUjVDKZcAKKCE6yBEHDocNXRsUY925KCr5brrrgueeebpbjMY0sB7xxtv3OCwww6T+eVMOW5Fe5QtTmwcM888c3DMMcckHjsHkPGZEcOMJuLvo48+qt6J1yPNFyf+CkleZ05zIq9BeytHxxb1aFcOtnm98sorwu/UxvxmTow//njB2WefI5tqUStvRXuUMU6AycF3Ni1jp0tWfNq4eSbLjJh33nlHpqny/jxhifXWkPg4c15uKkFz3segHY4ayqAD6HDUo2gO9jJn8dCoUdGAmyvIm+xVfs011wZbbLGFvD+LHmb3RE9zNFIHukpc4cPBHHWmlTK/n0JUAZl6Zw5v924WG2iZsVqVxUHRearZwuLusRPAy835kUoJFHIBsrpBQbtw6JHiwpFXHnQ46lFGDqYosjEW85IVpwtw5osttpjs4qf2Bsmqhz5G5cuhZl9k5cgrD5I4XJGFg3EKjvxjAFrN748qwErv5G4WGyjcWXT02muvSS09S1hyO3RebBqDvh6fSFEcKvDtxkFzyZUjrzzocNSjrByXX355cMcdd3R9dwHvYtc+avXst837mxEWZM0ZaD4ceeVBszkYrzjwwANlzQB+ova86maJOF2ALAUCK0gpqGnB+YYF5HLotoTRcebZOTq2qEc7c7z66ivBBRdcIPdcwbsmn3yyYJ999gkGDBggGb5ZYTGdoA9HXnlQFg7OWt1pp52CgQMHVmvo/jVz3qUGUdHp9ttvk3NS6XZy1UMhs0PnxZQiZs3cp++rw1FDxxb1aGeO//3vj+D008+Qnf1cwXvJ9H//+y7Sd4sOrWiPssZJHg4WczH/f8kll6g6c7+BbXMQlT50av4//vhj9V460AVkcugIm6U8fT2+xuhwRGiUDtTgfDlIoB2OCI3gAMOG3R38+9//7toxLw3Re8cOBg3aWvrcSRutao8s8uq9/C1LOHQO5Nnv/Igjjgxmm62ffHcBz8XNiGEK4xFHHNGlYxzQQ3/G26EjTED0ko0ERjPFFR2OGhqpg08CVRz8BR2OxnB88cUXwRVXXCFLyV2g3rvhhhsFp5xyiry/le2RRR6b7b333nLgM3O2yxAOGwcD1Mcdd5zsnZMGZOoHUeGtd85szvbII49Uv3WH6cyBl0OHgOk1/AUqIDgfPrsABWy10d7IUQYdQIejHo3iAExLe+qpp7ryUBKQIdNzTBy1NWZTtLo9gK88J/Hg3NjPnV0KmQ0CymgLusNYJERcxYHniNfaOyPHrDgVWEVKIU6BZoJnqcCpdKT+Ojt05cwh4jPK0EzxMQZypjHgwCC9kaNjixp6A8cPP/wgx50xXTENyJDp55lnnmCvvfYKZphhBunjbXV7+Moje+mll8pnFt+wqIdByMcee7SUtiDOWOTFYd428Fx3Z969pg1433PPPRc88MAD8lmBz7ozB3DKX/k/BQg28oALV5SJw2xyZeEogw4djhoazcHmW0xLSwMy9K1y9uf2228v0xOZTdEO9vCVZ44+M4J4N/jxxx+Cxx9/PNhmm22DQw89VGqxaehpW1A7p4to9dVXr96JgIyazRLBXjPXwZ7pHHKiWiXo0TngoooiOXR7ZOUAREZeHToc5eXQ8wr7X+tpzwZkokw/phzgvNlmm8l85yL1cEGjOHzlr776qrAyqWwW1WapXI4aNUr2eucUpk8//bT6e3c0yxaTTz55cPjhh3f1p0dhx92aNfPkrjfe/fDDD8tOinzWp1mC+tp+ikOHAGGdgOaFqt67AA5bM8XXoO3IgTz29K0pmDp0OMrLodIGh1YMHz5cPscBGZXpp5hiClmFyIrEIvVwQSM5XIE82wjfcsut1Tv0G0f+SAF+lstvvPHGMnho1tbhMB1xEYW0CwfPcUgGLazI+evOvHtYkkDtnBOURo4cWacHOpi+ONWhcymQsCCBzAW8HGOoWglyKqN0OGqDOq5I0sEVHY569AQHGZHTg5KATJQ5o7+DBw8OlllmmR4PC7LN5lDyN9xwY9eJPoSNy4bnn39eTtJn9SyfkVccSkbp4OPM83Kwz8uWW24p+6mPOaaS6V5JTgPvveGG64M33nhd/DHfbc4cxDp0XqicOQREho8zR9YsoSnZ4OlJDmTLytEu4ehwJHMwQ4P9zuPAc2RO9fxKK60Y7Lbbbk0Ji7lysqc5lDyLa6iV/vFH1F+s+OLAdMazzjpL9oNnJoxZm22WLWabbbZgm222CSaddNLwTtTFkhYWHbyLtPHNN6ODiy66SPrP0SGuUIl16LrSEPo6c7Nko9nhY4yiOMxEXiaOMujQ4Wgsx8cffxwMHTq0q7Zqgud0Z86xZyeccKL8LVKPNJSBA3nlRBkMfe+9d6X/XPG5gEHn448/Tmrran/xLOEwnXlWDv5yLukqq6wSyo7pFRbepQ+i3nXXsOCVV1621swV4n+pQjlzVxAAmyPucGTj6NiiHq3GcdtttwWfffaZPG8CGT3DhqyyT8u8886r3UtGu9hUyauCj6l61EoVnwt4J/b89tvv5GxWasYUDK62BKYeeWyhOBjU5qTPqJbuBhWW8FN0I0wbP//8U3DeeecnhifRoSOYVBqYsEUqzZS8CaO3cnRsUY9W46C2ylRFug9MIGMOlC200MLS5wqXC9rFpqb8qFEj5azN//73v/LdBaY9f//9NxmEXnvttcMWzwldteUkNNIWc845Z3DIIYfI9zSYYQlZQ77o4qi60aNHV+93R6y3htTHmRMAMyC+gxAdjhrKoAPocNTDh4NFIe+//343R4JMlLdqmZtMzxQ8l2XjgPeb3RtZwtIoDronXGCTf+ml4cEHH3wg312AjFk44vyoITPzhfnqq622WvDMM8/EFhJ5wwGSOPjMuMh8880nv8UhLiyKE34Wp8XB3WMnwAwI0APigrJyINfTHGXQAXQ46uHDwVzpxx57TLpbdPAczlx/Hj5mQnAQMY49DTgq9NC7BXzD0mgOF9jksQUFoetOlMjUF46R81NxpPDEE09I64eVpiNGjKgrZPOGA7hw8J0tHOLi2DUsOHRbqw/kdugYhoCol6IUfU4+CaPMHBi/JznKoAPocNTDl4O5w88++2zd3Gieq3fmUYZlettaa60VzDrrrNX78eD5ImZfNJsjTp7uhKeffloKxDQg092etdqsDuKPAWpOBKIlRB89z8XpgfN1CQfw4VhppZVkOqoJnnMNC60+Cj0bcjl0WyJvJ2fe0xwdW9SjlTmYYfHSSy9Vv0UyNKVrz0eZlWu66aaTvl4cQBLQw3QcWcLSbI44ebp6qD2/8MILcj8JyMTZMwnsp3P//ffLfiucNDR6dO0sVz0crkiyhQ0MjHIGrB7XvmGhds52ADZkdugEhL5EvYmhIsUVHY4aOraoRytzULvEmatuA2Tq+0VV7asitbLllltONuFKQrvYNEkeB8Yy97SDHZLs6QLew/bFF1xwfsAqUzb96ilb8NtSSy3V1ZduDwvOPD4szEVn0FjfghldQCaHjrBZY6HE8TVGO3PQ5HLlQJ6EkVUedDjq0UwO0gKzW5BHpj7D4lCiTAvgY1Vo1HdqRzvZNEmemi6zOGxgKid74XD03sQTTxTeMZ15xOkCFSe///5H8PTTzwSDBg2SgoT3uyKPLeaee+5g+eWXr/qZbAUT3S6vvx6tHNXD7u3QESYgeqmEYj7NlN7A4ZrIlTx/ga886HDUo9kcLFdnz3NkIketO/P6pjQZmwHROOTRQ6FMHEnydLXo3VQK2JAa7Q477BDccsstsvCKjctw7FmcuRknrOLdeuutZTOtV155JZWP3/PYAsfPToxsiazr4RMWBttx6NTWdXg5dF4GAaUCUAHBAfLZBXDYasS9kaMMOoAORz3ycjCjAqeO46g9H2VWxanAWZRxyKsHKBsHiJNnyb7yLToYNGbaIQ6TrWlZMHTZZZcFxx9/fLDYYosJjwt4V1ycsE3taaedFmy33XbByy+/XP29O6i45bUFHIsssohsCxAVLva0kQRaExR+5px0Z4eOodWe6HxGeUoaAuMaEORMY/Rmjo4tarBx0B/Zihx0G3R3HN1rX/SbM1XRhnayh84RJ//hhx/GDvQxkMjsEF2HmWeeOdhxx51knxxW17JVQhKQSYsT9MQxM0htA7/bBkB9bQEHe90TpvHGG7ebHi4gLCycYs8aoN7v5NBRQjlzoALiWjICOMxmSm/n6NgiQhyHT3O+LBy0YNnKFdkIUTwrTh1bbbWVHFxhop3sYXLEyd9www3Wk5x4J46PbYTVd8VBGpt//vnlyDcKUZ7jdxPco6+69ps9Tig42OBLvUtHI2zBHi/jjz9BNz3SEPW7R11FX3/9tXxWSHXoKEETQX9p3oAAanDtwEHEZuUAeeSL0KHDEcHGkSWdM/uA5nv1TsgXXSbg3nzzzatN7hqK0qOsHDZ5fr/22mu7nlOInh9T7MRnmw7cY68UZgpRw7/kkkuCv/zlL9Vfaxzhp+hGQpwcdNBBwcILLywyOhplC1po7Jluvi8OPBa9M3qeVs8bb7xR14+e6NBRAgV0Q9O8MBNhEuAwm2xZMlujOHxrkiYH9sjKkVcedDgax5ElfbE6VCGpKb3mmmt2W+bPs3n1KDMH+c0GZpiw6EcHz+OIZ5pp5mDFFVfsko/TQf3OgRIs8acQ4NSgPn14vuYw4+IEx8rpUDhqHTxrOmJf3xPHQRplPrxLWkWmtqd6DWw+hp0VUh06l4KKVMhdoAJim0VSFg5XNIKjDDr0dg5ki+R46KGHJM+gG5cNvIP5z/rJ8MiSMfPqUWYOmxPkGU4d0vdY4fmo0jiGHAjNu+PkbejXr5/0rZ933nnB2muvo+1Fbo+TiSeeWByr2XeuwqFkksIRhzSOddZZx9rFo0PZI/xTReSXuSi8SHsKsQ4dBZQzhxCjRqRuThRZMyCqVHLlQLadOTq2aD6HOciVh4M+YA405rPitIEMTN8v7wE6ByhDWEBPcLCohy0SVLcBzyg/Q9cJJxFRa/bVAae5/vrry8yVM888I1h99TWqhUQ94GTqKP3ZzKZR6ClbMIbCDJ448Jzpd2llKN/MJmZffPFF1/dYh64TUJpw6feSADmlhh4Q30ixFQjtxlEGHXozh5nZ8nK8//57oVP/uet7HJhTzZmhoBF6tBIHLRq14pFn9MFL9reZccYZc+kw7bTTBltssWVw/vnnB6eccorw6WC2CYPT+v2etgW1dBt4TrdHSCl8cCswWeW1117rupfY5QIoHWwlWxwgtjlzn2ZKh6OGji3qUSSH3iVQBMfbb7/TbaGHDQsssIB0AzRKj1bhYE+SJ598UgaReV4fvAy/BltuuUVdrTkNcTrgRJnmuOuuu8rCpDXWWEPuAeKCVoDycc2wBacZKX0UTHuErCFvvTNXYDGUup/oqSHN68xpYmQxRoejYwsTZed4++23uzJxHHgPS7+ZmdHbbYq9uIDpvOabb/5grrnmdvY/LjrwnYVId9xxh9TYGZTmJCE1dbRZtmDwloJFARnTHnEzcwA1dPW+WGtB6uPMITQD4juA0OGooQw6gA5HPZA1u3sUx5tvvtl1Pw4MvFFbpCbfCD3Mml4SmsnB86zIfO+998Jw684Lpxh1Q+DoXOCjA79RW2awlcJk5ZVXlvtZw6EjD8eqq64qf5GxO/OI0wavLhcXmAEBKiAo6IJGcOgGbSWOMugA2omDmnNRHHpTWnHQl/nJJ5908cdhpplmkpqhjaMIPVzRbA4GkJniGe0Xr8IdOa4pp5xSVtBOOOGE1fvxyKMD/ecgD4dCXg66XahAR5Vo3R7Jzhywr4vaoTK3Q6dkICB6RlH9Vnx2QaM4aOq0Gke7hAOUicMcoCqagyXYZCqeiwPPMcNFLXxRHGR8Vz14v02PVuNgD5JHH31Ue7bmvOgWmWOOOVJ5yhAOUAQHh5tQwNSed3PmgEKE3RdBLoduy2xlceatyNGxRT1aiYOpY2TqOPAci1yY3cK8Z53DFehhOo5W5ED+scceFZtV7wgXF05w8cUXD6affvrqb3a0iy0AHNTMawvNavZwxbvvvit/Mzt0lKA/Um9iEBCffsAORw0dW9Sj1TjYUyNuhgsy9IuOPfY4wdRTTy2yvdWmSv6mm26uOizlvKKWDa2XtB0U28UWQHEQXtKGaQ9XsLkZyOTQUcKssVCy+gakERw0dbIYtJkcZdABdDjq4cPB1Dv60U0gowa5SN/UPHuzTZHnvFU2MAsZQ67oUmDQmBp6HNrJFjoHssyZN+3hAt49atQo+ezt0Hk5SuilEgnVp4nRSA4fgyoO/oJmcJRBB9DhqIcvh82hI6MPcpFp6SvtzTbluvTSS6vdFFFtVAEudkxkUNSGInTAXzSKw8d/waFXRplvT2GvvruCdwMKSeDl0HkZzUpKFqAHRBGnAQ5bzbw3cpRBB9DhqEcWDhy6qlwAnsOZ156vCAdTFvPoQaGQNyzN5MBO110X7ayo+BTg3HLLLavf6mE6wCw6wGH2dxfJ4QrFodILHMzoYbWqT8Gi6+zt0HHiak90PkNGfxGJ1NUYyJmR0ps5OraoodU5mIanZ1DTmVMbJdOnDfYpxOnh43zKyMGJ+yNGfNrFp4O+c/a4MYF83MCjjw5l5qBQYPzAZaomqE9f0awh4OTQUUI5c6CU8ClN4DCbKb2do2OLCO3AoTIpMvSZ8zdCFM9ccDHDJQ3tbNPrr78+dvCYo+UoOHW0sy1MDpy5vgNnHKIxmRrgVbtVpjp0HqbmoZQAeQMCKJHagYNIycoB8sgXoUO7cvR0hlVOyr7KL+qiZP8WeJNQhrCARnGwOpT7JtgKYdNNN61+i9DutjA5cOZJe9eEItXnozQEJxegBQQSHToPo4BSAlCCRgM9boDDbLJlybA2Dpo6rmgUB/bIypFFHrm8OvQGDp/0VQQHDn3MMcloNYdtDvrpJ+nY0Kiw+Oa3ojhMB0ZYbMfMgS222KKu9WKTL0KHMnMkOXRkbAdcKMAPYj0zjkddAEKVuPjsAhUQvW8RDjJsERyuKCtHFnkyWh4dkO1w1FAUB12S1awSontFCEw22WTVT93RyLD4OJ8iOVT4FQcDotFS/3rgyHbYYQd5DsTJF6FDmTlw5jh6E8hEfebVG2H60n0zUC3EVIcOIEQBsyM+CQTADAjKkkA7HBFHM3QwB2Q6HMVw1PKG6maJOHXQxLahSD3KzPHUU0/VOSEFzgPlfE2ebbQOeTlwxo3iwMeajp7nTL9L+jLtCCeIdeg6gXqRTQkbeJnpfEjMPgYtE4cZKUVxlEGHDkcxHJFclNkUpwn4TfQWm9KCYe9zGwYOHCi19FYIhyuycKhKswIy+gB7SCl8cJtQXTWpneG8QH9JGngZ3QpmQMySJwll46DZBJrBUQYdQIejHiYHNS/uqfRmg6pFKbSzPUwOdgQcPny4fNbB7pNLLrmkOLreYos46L4WGXOAPe6AC0D6A4meGtK8zpwXZTFGh6NjCxNl5wg/yfc46CtJe5tN2Wvk1VdfrX6rgW1y2YGyN9kiDshwIZM0W8qG1Bo6pD7OHEXMgMR1/sehw1FDGXQAZeIwu8/KxMEMjbT8QhMcxHH4NOlbiYMBO06nV2eHKuCEcOicGFTGcOCIe5KDGj0Fgt2ZR5xxUGfUunvsBJgBAcqgBMoFNmP0Vo4y6ABIYGXi0JuwZePo27evfE4ChVoShytajYOzQ2+//fbqtxrmmmuursFQUKZw+NbMi+CoLd5U6dHNmYNop8YCHDolCgHRMyz9RRiUzy6wcaiSrbdxlCkc5qAOHGSWVuNAttEcHJeGfZPwww8/tERYXODDQVcLC4p00JrhHM1+/frJ90brEIc4Dp+8UhQHBV9tFa27MweFOHSb4yjCmfdWjlYIhyt6G0eaQ0eGedi90abXXnutPK/A8xNPPFGw1FJLyXL33mQLGxQHc/QjO0WOXHG6gHEIkNmho4RqQgIVEJ8mRoejho4t6lEkh5nZGsGR5NCRoV9UbaBU9rAkwZcDB3XjjTdWv9VsMckkkwZLL710r7KFDToHf3/9NfqcNABqA7OFQCaHjhJmqUQzxzcgJgfNlLwGbUWOdgkH6K0cHE7AbyaQUYNccLGJUm+wh8Itt9wSfPvtt9Vvtb1u6Dvn3NDeZAsTJgc19J9//iX87ufMeffss88un70dOi9HCb3mhDP3aWLEcfgYQ3HoBm1FjjLoADoc9fDloA9TnRWqwOdo5kt0j/7Rb775xksP8kjesDSLg37lIUOGiOMCkW0iW2y99dbeDjBOBx/fA4etItlsDkCXnDq93xW8GxuqsQgvh87LSZR6BCmD8tkFcNhq972Ro1E6qMTV4eg5DuKN04jU1EWe43Pt+ahFygIbHz3KMGCH88nCwVTFF154QT7znLLNjDPOEKy99tqF6eAKxcFfoDh8C5VGcAAOqdDXKqRByXG4NDt5AmeHjhNX02r4DBn9RSRkRZwG5MyM0ps5GqWDT0bpcNQjDwfNXuXETWdOM5ra5aefflq9l4wy2cN0pK4cV199tbyf52r2qARbbfVXGXPoCR0U4KAyWlYOnDuFvSv09DXffPN1FZZODh0lanMka0r4lEpwmM2l3s7RsUWEduGYe+65JXPTT4xshNqMBZySS6ZtB3t8/vnnwWOPPSaOSrcHstttt518dkGR4dBrxGXhYHEVHKQNbOaCaByiBk55cnboKIECyqAgb8IAvs2URnBg0GZygGbrUEaOvOmrWRzUlMYZh8VFujOPLkDNLC3Ttos9Hn74YZnVowZBI1SCFVZYUc7OdEG72ALEcShHjEM3V9KaCEWq74zsCScXDh0+kOjQeRgFlBKALgGlhAuQNZt9ZHpqMq5oFAdhaSZHGXQAZePwyShl4phjjtmD8cefoHqHe7VWGODzyJEjYw95sOnhW0AWxaE7H1rnVOrgxfHgF5LAM5wd+tNPDPDVF25/+9vfnNKIqUMR4SgzB78ntd6QsR1wAYfu0McII6crdog4iDkOitumQ0dY77tJA3K2jEKE9iQHiZFEVjYOIrUdwtHhqHFsttlmwQMP3B9+rnfmCiuttFJwySWXBLPNNlv1ToSyhAUf8MUXXwSffPKJOBgG6kaNGiWrGOFnJg8nL9EHPt1000k3EzN8dOf0n//8J9hpp52C1157rXoncuboBSdySWiULZQTLSPHE088Ifva2ApLnov8LpVs7kT25FnGbdiWmIVF//rXv+IdOgrwk7qUAq4BQT6uptDhiDjYA7rZOnQ4iuU466yzgsMPP1wysg1kwEsvvTQYMGBA9U45wkIe/+CDD2QR0NNPPy2Dt1999WXYohglXUUmWOGJE2Eu+cILLxysueaa4pB4//nnny82iFoiNWcOKBjYjCsOceHAmbuiFTmOPfbY4LDDDqt+qwGZWiUaXxzxKrf917/+Vew9ySSTiEOP7TuJCCKQKHxq5rzMLJXoL/IpYXsDRxl06HAUy7HGGqt3fbcBR/nxxx+LLChDWL7//vvgqKOOCjbccIPglFNOCe69997g1VdfkT5dmzMHOGa2xKVr5eyzz5YT+wcPHhy88srLwXPPPSe/h5qJTkovavVUYuKQFA5XtCoHYw4mkNEHlENK4YNbYfHFFxdehdTOcBw5lyt4GbV8VUNRAaFQcEWHo4aOLepRdo6FFlq4a6MkG5B5++23xeGVISz33Xef1KxPO+3U4K233paFLRykgOOgZu0CVr+OGDEiGDr0ymC99dYXJ2/jWGyxxUQ/G8oer43koBb/7LPPVr9FQMYcUDYPuKAbig3OqPUrJHpqSLM4c71U4mVZjNHh6NjCRCtwcK244opyPw7sPsiqwGaGhZr3xRdfLDXr119/LeRRm2epLhI3Zw54L87n99//kD730aO/6cbBM+zdYkOZ4zWrM/fhoA9cPzwbGdOZ2+KE7YepPPC8Qqy35iEfZ04AzIBQgvgYo8NRQxl0AMia/YBFcfg0YVuJg1WQSWArWbozmhUWugJw5vTZfvPNqPCO6TgiThfwXrvzqedgrxu6B0zYwoEjzmuLojjypnMXDvq+FVztCRZZZBEZoNbh7rETYAuISlx8dkGHowaaanl1KJJDbzoWyeGKVuOgC0OdIGMCGeaiv/vuu8LTjLA89NBDwQknnCCzV0Lp6GZGZx5V+tI5+vfvLw5Ihy0cvk601TkoXIcNGyaffewJN/bkYBUduR06TQwCojsOXkbi4rML4jhIpL2NA3lzMCWLDu3CgWyrceDMl1lmmeq3GniODItd6GcmnfR0WHDi//znP2VqYu35eMcRBxUWFw50o7uFPUcUbOGga8LHb7QDB90tTBHlOVd7AqZ+smMl79CRy6GTME3n5WuMJA5XwGF2LbQiR7uEAxTFUUTa6GkOfltllVWq3yIgQ1Oav+Cee+4Rzp4Oy3nnnRe8/fZbXXqErMKnOF1ghiWNg2mKTGuMap/x4fCpEbcLx9ChQ6VW72NPwO6KrEw2kdmhExAyrN7EyGKMojjyRkqzOdolHKC3c+BgmX2gul2QMftFWTGKU4ffBUWEha17L7jggpCreqPLcfgPgOphSeOg/5zTiUArx6uJvBxff/21dH+FYiHc7UmLh7n/+mwqdAGxC4viwMvMEokXkIj57IIORw1F6ECBaDb5dA7ilX5bFo4ww2L48OHy98033+xahs5z9U2+SDfFqTDllFNKf+hCCy0k09BY8cjeHDPMMIPIJunhgrSwuKAMHMgeccQRstCoNpebzBplWIC9//3vf8fO/gBFhuWggw4KLrzwwvA7G+3V9HAB7/LpElBgZekrr7wSzDLLLKIH/gXAQ1cR4XAF8tiSv6CVOZgeyqIgut4iHjd7AvIeXTXM6ed53s915513+jl0hFVAEFMBoUTiswvgMB1Yb+VotA5MjXv88ceDRx55RJw3F0uv1bMKyGTJrCRgHDmrH5dccknpZqBmyg5yRYelFTnuvvvuYK+99pKFRHE23WKLLYLrrruu+q0e5DPTmfvqoXPssssuwY033hDm8/rN9tLAu7KkD4DTuuqqq+RZpUfecIAiOXydeREcjz76qCzEYnGWjz0Bi7/22WefrudV3ODQnbtccOA4fEiUM6d5QUBcDYqcmVF6M0ejdCCeOJiXzLT77rsH5557rtQEWPyhnlVAJmtm5T0fffSRNBvPPPNMcRh///vfg4cffkjC0YpxUhQHmX7RRReVQy8Qi7MpqzKZ8WICDipPefXQOZAPb1n1iAPv6t6/65Y+kCE96HoUEY6iOVxRFAcLsahkRbsrutsTMB6x5ZZbSqEAl4Kyg5NDR1A5c6ACQunoCjia3WcFysTRCB3YEGnjjTcOdt11V3HiLDUn8m1AxncwxoTiwAnSpTNs2F3BtttuKzqwSZML2i1e4cDm7K+x+uqryw6McTal6X3ZZZdVv0XQOUBePQAc7LvCfVcgY+8vd0sfFGgLLrigpA2lRxHhUHuIu6JsHNTK6Wr77385P9Qvv62zzjoy91yXQReFVIeOEgRCJygio6jmkivakQMUoQPAMey7777SH0ut74cffuhKfDbw3u6ZNbpcYeP47bffg9Gjv5XuBrpgTjrppOq+HnbY7NlMR1w0x8CBA8Wxx4E4uuuuu7q2Tm1kWNZaay1nHmTypA/k9957L2n96XoUEQ44XVE2DuKb8auXXnpRbOmT38Ycc4xgt912Ey6F+tZ1ikNHkECogAAGZHwiBVmzCasGdVzRrhxF6EAiYWMfpoWdc8450pzTI9wG3lufWeGN4toVaRzoQKFy6KGHSo39xRdflG4IHWZYlD2KSF95OXwL2TiOmWaaKdhqq60SuZiHzOISWsFF6GE6H8XB+IaabZIEZOzOPOJMA++ihbb88gOECyg9XJEUDleUkYNJCLfcckv49+cuThfw3o022khaPOo7OpiFSqxDJ0OqC0Dgm1EojUigqqaoOHwcWDtz5JVn2tPJJ58se08zc8UlgaB3lAj0zOrfzeLKgZO6+eabJYMz44PpesAMS9nitYh0rjioVU0//fTy2QYKPpZ/02VVhB4qHuAwnQ/z0JNODEKme9z6OfPllltOFi+xuyKw6ZEEl3CkIY4jS9ookuOll16SrlBXewLey1bFu+22u7yf79jCdOYg1aEDCAgEBHx2AQrHjQZ3OGo2zSrPjJU999xTti5lQyQX8K76OPTLrCArBzM9jjzyyGDnnXeWaWyNihOcYNk4qKX/4x//kM828Bx7kLPtLA6gSD1Mm84777zB8ccfL9NPTfBcnvSBHMvRma7JxlF857LpEQfXcCQhicMVjeDAn55xxhldU4VdwHuJkw033FBsyuekgj7WoevGU6WBq0FR3DQGfU4+kdIbOLLK08XCQbv0U9OUcwHvohlde2eUURWnC/JysKMcU6t2221XceoAriLjxBU9zUFBxvx9E8hgU2rp119/vZzD2eiwbLLJJsGBBx7YVYMGSg/+RvBPH3T7sXCJwVB8RpoeJloxXuMAh1m7Z2yLg7NdgQxxwpYJ6667rozF4MzxxXGI/6UKhJMITBAQnAw1DaCM4dNc6nDUYMpzVBVzUF9//fWue2ngnSSM8FN0oyuzug/IFMUR/gtros8HxxxzjNTae0u8khmJNx2mTR966EGZ/QC3K7KEhQUpzIE+/fTTZU8QUw/fuKW2T83ziiuukEKLd/vatFXj1QbFoTtzxrZY2EVB4QJkVJwsu+yy0rIi3tL0QCIWkGZx5npAaKbkNUZv5dDl+Uw/+SGHHBK899578t0FvLN7Zo0uVxTNQXjuv/8+afqrPnUXlCFOQFaO9dZbT87gBDabMkOIo9uiXRDTkScsOAf2Qn/ggQfk4OZJJpm02sVDV0Fy3OITeA81xz322CN44YUXZByHY+nQwdemtnAU4UTLwkHNnt0towVm6UBGpQ0qApxDy7iHiy/2XvofBwJgNjFIIASGzy7ocNRgyrOAhz5zFvG4gvfUO42IV3G6oNEczJenb93Wp6uDZ6nd6DUn7MnlimZzIMcCLML7++/U1JQ9VAEZ2ZRZQXRdMM85DjY9cKKkL1foHOy+ePvtt0tfPrNu6OdlEQ0XQBecG0v5WSxFrZECin1aeCarHkWHA5SJg3RBFymFp8tYFzIqr/B5wIDlw5bPlbIiOw2Jh0T7gICUwYliSAza6hym/E8//Rjst9/+svpT3UsD76FEr72v3mm4oCc4qP1QuzvxxBODSSedVO6ZaFSckGF5f09yvPXWW9LdwV4cUdbrblPCNmTIEBknsaGRYQHMnuJi/QBdBfxGTZELB85fkFePRoaDtOGKRnKwvoD4ru3ZEg9k9LxC4Xn11VenHpiigEMfK6wtHFn9Lsrg1FHEFSRK0xEjT6JUiqWhw1GDKc93DvBlm03ixgW8pxWcOSB8DJASNhYi1Z6NwLO2jOITJzYOaps+BUJRHHR1EFZmtEQrBbvblO9vvPGGDDKaB2UUpUccB/GFI6E7hdk5bL7GxbRLVijyHMirR155kMThikZykLavvPJK2cuGinISkDHzyvbbby+FAQWcCzirNr1TJgEobOtz8jFGh6MGmzzNYJaG4+RdgAxNNv5GiByG4nRBT3OQGS655BKpxejAHmbhmCVObByumQQUyYGsvkDEZg/A8vDTTjtNasgKZQtLVo5G6ZBlKX4jOd555x3Ju8xgSgIyZl6hW4vxFCovPsjs0AmIzXn5GqPDEcEmz+AYc3pd560io/rfIuBEo8sVzeJguh6zLtSAYDunDbosDj744GDCCeO7NqnFU5gzNRW0iz0aqQM1XFc0moNKCjN/mI2WBGS655U/gxNPPKnbeaFJQBfgrr0GW0AoSfJGSm/lsMlz7+ijj5bNtVyAjN2JRpwuaCYH4X3mmWfEieHM2jltkOk5d5QZInQdxYFBNLZzwClQU292WJDNy1EGHRrNwb0bb7wxuPzyy8XucUDGzCs8vvnmA4M11lhDfk8D/EoH4O3QbQEhUfoYg8GBDkeEOHmmk7EQgZI+DchENYt8jrjZHDRN2RucVbBZ7QnKnDbI9KrLiHnJ7J6XBNYdnHrqqTJICUwOF6CH2S2QhcPsJ87CUQYdGsmBg6VVxcpg9bsNyNgqPkxrZdEX2+SmAX7zHV4OHWGmKKlSRw8In10AR5wxehtHnPy3334b3HDDDdX9kpOBDE609r7sjrgMHNTS2agKR8j3ZsRrUobNy6EXCAyQshfP/PPPX71TD2S4brrppuD888+XlovJkQalB3+BHhZXFMkBmq1DIzlYGLbffvvJ4TJxQMZW8eFIOfbAUdsmJIF0xWW2AJwdOoIkKEXCC2k6EpC0lysgZxsM6a0cNnkyK/uIc6KJSjRxQIZSvva+bE60TBxkFmb0jB79TaY4QT5PnMARd4hBIzg47YlZTPoyfMBzyqakk0suuVimMhalhyuK5iiDDqARHLQsWfhnO7BEARlbXiHfb7755sH6668vnElAD3wDfxUUn5NDR1A5c6AC4lNTgMNsfvZ2Dps8vCweSluEgAwJI/wU3ZCEkW0mStk43n//PSnQfKDiRK85ZY3XnuTgd6ZrcgqNesa0Bzb9/vvvZUyFaXAusOmRZQZH0Rxl0KERHLSmmQFOCzMu7SMTl1c4xZ/jCuPWYiigh16oAHgVYE8EBARCJ8iayBUHCtBM6e0cwJTnoIr77rtPnokDMt0TRnS5oswcnHl54YVDJOG6wBYnRaTRnuJg1ssOO+wgXS9JNmWhzwEHHCCLkpIQp0fUzHdDozjKoEPRHLSgaD3dcccdsWkWmbh45Te63maeeebqb3agh94CBeiAvEJiqCBAWA+I78AQsmbXAhw+TZ125bDJs+AkaaoTMvUJA84onlzRGA6VQIvh4EAMl1o6z5px4lvAImtm2J7mYNtZNu+aaaYZQ1mVLbvblJYbg2YsxtLvK+TVAzSSwxWN1KFIDnouOLCCg5tJhzYgE5fOKRiYwso2CjwXB5410zk6mAVT/TcNOHN1AQhwPD7GoGaPEnozxdcBtjOHTZ6SPg68M4pAPWH4d280hiPicYULB7ZQ6c8GW5z4ZljFod7bTA4OAdl/f3UwRLxNn3rqKXECrCbVf29kWLKk86wcZdABpHFQG2eHSQ5ijztmEZm4dI4z52B1TvVKAnqYY0PoEPHWo/udKmzOHAI+u4CXm0ooY3Q4Ig4cui7Popq4/ZJ5rt7+8Rk+Dq3G8eCDDwaff/559Vs9eLbd0gagL/3QQw8J08Y4XZwmuE+33N577y01dfJpkXrYOFyRl6MMOoA0Dhb7sVsoU0+ZlWYDMnHpnLzPHvnI0xcfB6UHTh3AhSy8NsQ69JoSnQMuGsVhgl3Z6EM3wfM02WrvixKF4nNBK3KQaXDqJpLixBVl5SBzb7/9DrLsOy7TApr6jzzyiBQAzFUvQg+zNtrTHGXQAaRxMCWRbi9WgsZtdYxMXDrnHjNaONSdo+XiYOoBkpw5iP+lCoSTCEygBH1OeomCMXyafb2Vg9N8TPA8CSP8FN3oShh5By9bg4PuBR29IW2wrzjbCu+4445yPw7IsV/IwIGbdxV8efRQjqMZHGXQAdg49NkszDZiOw5WgfLZBmSS0jknOjG4zeZnPGtDmh5x4K2xgCSLM9eVoJmS16C9gYNn2YtaB893TxjR5YpW52CQWNmvN6UNZr6wyGTVVVeNzYPIjDkme/58IysTqbFTiyxDWNrFmcOh7E+LkVW7F154oRynaAMySemcff+PPfbYrhlNNqTpkYTYJyDxcea83FSC5oGPQduNw2y2wRHX9KOvWO8v5vn6hAEnCSPic0F3DpW4WoeDWR0jRoyQZ0174nh8mtKtxsHcZI7q4xR98zfTpp9+OkJqfbfeeqvzZm6NDItrXqGVkUceFMVh5nnFgYP94IMPpBuMk4fo3rIBmaR0zl7yZ511luzTEockPVzA23PDZlDlvPjsgnbk4C/QOeLAMV76O6PCVE8YNNmi311g53Bzogpl4CDzkJlMe2bN9K3GsdRSS8kulOyNripYcTZl1gtTH+kS4JjCJMTpkZRGTeTlQI74zatDURwqTeoc1MTZX4i9yTltSr3HBDJJ6Xy++eaTjdYY84hDkh6uiFJIDlB62ZTAgfHZBe3OQXMpjYO+UGR4hoRRe9bPAYJ24mDwj1NflAxc2JNEXuNNBrK2OGkVDvpcqdlttdVW8lySTTlK7rzzzgsGDRokC11sSNLDFXk5kEtaRu+CRnPQYqZw3H///YPHH39c8rYNyFAz52+E+jgZMGCAxMmGG24o320oIiwgl0MngGbzwFeJ3sDhUoNTG3F1Txj+NfN24vjzz//V7TToak8F4oRapHpvmThcBrkUODUIp855o8hGsNuU9zD2oE72J00q5NUD5OVQ8nqtOqsOjeLgXFXGJXDEOHaetQEZ0nn4KbphxAnbJBMHnMEap1sRYVHI7NBRIqvzUuhw1PDNN9+ENS8ShZ4wossVvLN74mptjv/970+ZJuZrT1D2tEFN2xVwsDsj+7lsscUWIUdUq4uzKc9TW2d/EfrhsWFReuThKIMOIImDzbU22WQT2ZtfPzHKBDJ2Zx7FybzzzivOnFXAcemliLAAeICfVBU2JeiayJvIeysH8sxnDf9UoRxgxOcC3ml3oq3NgW2oufjGCe/LG69l5GAVKbszDhy4RZjx4xekKLCugQUwG2ywQfDwww91TbVrVljKGidcDMAfdthhcjwgO56q323geXs6r4gzZl/za665Rpw5z9pQRFjIH7qeaOQFmxL0D/soQQbtcERQ8vRHRsjmAKMSPZ8TLSsH8On6wqZmlwAZpRkcZj9zERzMX2bvkIUWWki+p4FnnnrqyWDDDTeSxSyPPfaocDYjLGWzJ6Alw5m2q6++uhR+SbVywHvjKi3slsiiobvuuqvr3FgbiggLsno4AFo5A2E67ikVgK4En10AR1xAehuHLk8hkMcB1t7XXhx0uZD4XdGITJ+HQ+leNMfIkSO7ulGSgIwqIKk43HjjDdK3TjeMuRdMHIoMCyiLPf/3vz+6ThdiH3M2xUuzh27PCLV0Tq38uOOOk9ksjHnEoYiw8D4uM/6dHTqCRRxwQUCU0Xo7hy4/3njR3h3quwt4DzWF2vuyOdEycwD6jl1AnOSdKdAqHDiitPNmkbHZ9JNPRgQXXHCBTKGjT555/nEoOiyNsIULdA7y3d13D5OZQOyHw744ti03TNjtGenE4CcDqGyDnHS4M88XERYKA/4qKJ2cHDqCRR1woZdKvZ1Dl59gggnDe/LVCciQuMJP0Y1q4lJx5IJW4MCmrJpMQ6PiNcvMiUZz0NfLUWdJC4iSbAroVnj11VdlH27murM3iXmoSiPC0kx70oXGlsybbbZZsMsug0Onfk/dlNgkxNuzIgeUXHbZZTI9Ed3igB55Z7PAoRcIAB4FNEwEBCigE2TNKIoDBWhitAtHVnsAJT/DDOyDXYuYJPBc98QVXa5oFQ7sOvHEE8vnOBQZJyZH1Lx2Q09x4Ihfe+01edaGNJsqII9jZ1oeffLMd2dZO1055PlGhKWn7YksW9uyOI2upi233EKc+ujRo7scaxri7Mm+9bvttpvM96eLJSm9FREWOPRWPUAeLoVENgh0Z46grwNE1hxcor/Yp4lRdo6s9tDtOeusszpFLjL2zBrp5IJW4sA2aU1YM6NkSaOtwkGGZsOyjz/+uHqnHi42tYHfqa2yKdgyyywjfcrPPvusOHvSa1FhcUWcvIsOyFAovf3228HQoVcGW2+9tbRCbrrpxtC5/+LsyIHNnuOPP0Gw8MILy+HdZ599dmqXYJ6wKCBr+h7kTZ8xRui0u4ptulV48UQTTSTOnAsCRaIIIHMBhjP7mZUT7XAEEqlKnloDy7uJtDjwXL393TKrjlbjYHvRBx54IFhggQWqd2qwxYnKKDXeZDSSg7h1hSsHC9DWXnvt4KWXXqreqQGZIuOF9y+44ALBcsstL06eKXgzzDCD/J6EvPbIKs8yfQZ62UaDLilm9nz6qepSyWYL3ZmzTmSeeeYN/vrXv8r4w3TTTSfPJIGw0EXCX+BrC6A40B157I/vMePhX//6V7xDR1g5dS5baZAE5M0SxTcg7c4xwQQTyGfAPHQ2Y/rhhx+qd+rB8yqjRciXWSOUn4MpenQvmN0uPNsb0xebb7GwiAyuA5lGxQvfp5lmmmD22WeXi8KV7hmm5eErdOS1h488z9CqeP7552XeOKfuf/jhh3LRzWKGQ3G6AFndFuTVv/3tb8E222wjOyXSXZIGW1iQw5e6AlkKN5y60gl78NdEokPnNmT8RdhGEAdkCIheKvkGpLdx8Ay76pn7fwOe796MjgZkXNGqHAw00XpBTgFbmU3YLHHSihxrrbVWcO+991a/RUCmp+IFx8p+7RSwU089dbDEEksEK664YrD00ksH008/vaTzrPZwsQWOmjEE8gn7q1AjpxLEhSwo0hZ8XmGFAcEhhxwqBVh0PGA6mpE2nBw6JL7OvKcDYkMrcrD9KbMOdPB8T2XWJDSLg75c9o9W6M3pix0UmetMPlXIYlMTWTmQw8FzUWtkUU3//v2lBjvPPHNLTX7uuefpVou3wbRFpfKn7OHz7rvvyfxwnDjH7bHHCs/RQsEOqpIEirYF3Ut77LGH9MH37dvX2Q/a4pXZLHn9aBpHqkPnyquET3ML9GYO+orZKxk5wPPdE2iUSF3RyhzIUAuj5QJ6c9rgeZzLueeeW70TyZQxbsOvXRz4D2ry6qILjf5fFVa6E7io2TOQyZ5GTJ9k9SZzwwm3gv7ZRFHhGG+8cUP/N7HsbMkMFiYr5I3XnqosJDp0X/Bys7nlO2gYx8HlCmRVnxNoJQ5qHXPOOWfw0UcfyfNlzKw9ycGgE/2hZH7sWNTgUityYIfFFltMptuBrDbVoXOQLv/4A52o0fZc+ig6HBH8OehK6d9/zmCVVVaVMQqmIWaJV/K8ei969SQHDh0r5AZK5HXmSRyuUBz8BVkN2iwOwsvoOc9HLaN8ibzVOWjqYjfsaBaO3Pep9cRx+MZrszhYhahvrFVkvDDtbs899wz+8Y89pEsnqdKhI68eRYcjgh8HU2I33XRTOYnoiiuulAVWrejMFXLX0LM2D3R0OGpgtH6llVYSjgjZEzl/I7QeB2nwxRdflJk/ZkHvGyfIFsFhOuKe4mDO+WqrrSbbuiJTdM38iCMODwYP3lXuv//++8GTTz4Z3HbbbcETTzwh+tqQV4+iwxHBjQMnyWAuA8x0580ww/ShY58y5IqmqrZS2tCRu8ulXZwoKAMH8swz3m677YKHHnqIO8JFInUF7+yeyFuPgz5MllNHMjV79sTgkolmc3D0Gdu6MsOjyHjh3f/85/6yA+Nkk9Vmb1D4MWuERUW33HKLHMGmH2mnc0Tw0yOvPMjCoWrjzCOfY445ZKYOPFniRKEs6Qvk6nKxKdFx5tk5lDxTwtjGk0UMJM78ibw1ObbZ5m9SwTDtmTejtBoHTnzYsGGyaKZoJzhw4OayMlR35gDdOJ2eWSocjMzpR8x/Z1tY9tXJo4epQxHhSOLAxow9sLXB8OHDZWUnpwexYA2eLHGiUJb0BeABmWrovNxswvr29XQ4ajDlWQVIRmOqlit4Z/dEHiV0V5SFg5WQQ4YM6Zrz24w4AWXguOeee2S2xYgRn4TfiokXnAVdDTg3TtVxBe/77rtvgyeffCq4//77ZS44LUoKHfwGXQaaO7GiTx8qOMWnL8JErZaLmjerWtddd12ZNcaiKOQU8sYJKAsH9uZC9s477/R36DYlsgyAEvkdDrs89xik4QxJamZpQIYEXXtftoxSBg6axWwQRZ8xrRu4fBM59muHGTFsnHXwwQeHhduFIY+ae54tXnQnSM2bPbtZzu8KW1gAW++ykvett96S2Vk4eKYdsvKZQVy6bvArINJDtVizhYMCYcIJJxKnPcUUfaUlQf/3jDPOGMw111wyqMvfySabrCpVj7xxAsrCge2UM+fydugQKCUUEUqojOcCOGylUm/kiJMnUskg9PVRW9eiqBuQaRdnjt0IM3t049jhUvZwBWnTLCBblQNHuf3222v7tuSPl9lmmzUsIC6S/bvVvTS4hoXfmUeOU8ehf/vtt+LQOYyD/nh+4y/b/uJnSPv4Ey7SOPEPLxUiuh1w2upi0RJpgrnsfKbrZ9ppp5XaN06dmnlaeNopbSCr5FX8ejl0HlPOHCIIMDqR4Ao4iEQ4QG/nwNZx8tiYmiqrR+P2vUame/Ozcf2RcSiKA2dz1llny3J/7NCb0way11xzdbDrrrsJVxHxwtL8q64aGiy77HLiBFxQVDpn0RA8fEYWPrijMNUcG3qpS7V0eZ6Vo+OMM27Xu7PECe/W3+XLgSxhaDYHYdFbPcpezrNcFIGKBK5mGLTdOFR3Spw8TW7mpRNRPK8DmXZy5uOOO06w3Xbby5mO1FaaMVOgTBwsIGL/bqYPZrWpHi8sXb/22muCFVdcqVs6i0Mj7MGc994cr0VwqBYNcnAQn/x1muWCII5cKQGKcIBk2rwcrezM4QBJ8iR+lnozIq8Dme5ONLpcUTaOKaecSha3kC6wR96M0uocdE88+OCD3Mls0/CTfGfmFLM8ll8+avm4oFH26O3xmpdD76oByMOlkMgGge7MEfR1xMiaTQzVlHKFjaMIPZrN4SLPBkGXX355MMUUU8h3ZOxONNLJBWXjYFCLlZAMbGWxp5lR2oHjqquuCn788Yfwc754of95//33DzbaaCPRxwVFhwUoDlc0UodW5TB9D/JmgVD/TQPOnEsBApywT4lCYYAS/AVw+DrzOA4fY9g4fA3aCA5XeQ6+OPHEE2XwJ7J/PidaJo5ppplWdphceeWVxR5Z0oaeyNuBg0FETtrJGy/jjDN2sP322wV///vfxbG7oKiw5Bn0yysP2p0D+Siu69H9ThW6Q1cEOB8+u4CX2wKCMy4DB+FpNoerPM+wqIMVpLXxjexOtPbO5nJMNdWUwaGHHhqst9560vzEHq6w2dM3o5SV4/rrrws+++zzru8uUDblb4RKsOmmmwX77be/zA5xgS0sWeMFJwR8OZBXky9AVh3amQN5mzMHsQ4dQQUceRyBDRQEeRNGmTjMGktRHK5AnkKMQTKazgwgwqX4XMA7aYrzN0LkhJvFwSDdQQcdHGyyySZSeyxLnDSb45dffg4uvfTSrgzsAmVT/kaoyD4lp556qkzrc0FcWHxaoHk5lLzuvBg0zKJDO3KAtN6JVC+NI/d15vQX6QHJkjDKxJE3kefh0OXpcjn22GNk9RsnjruCd+r9qiGr8FGzdkWRHOONN36w4447yjalrAZttTgBjeK49977pHbuCmXT8FN0I4yXJZdcMrj44kskvbjApkcW55OHI04+i+9pZ440eya+AZK8StD8zJsweiuHTX7qqacJrrxyaDBw4MDU08YBMt0dcXS5okgOTkxnscx+++1XiDMvS7wW4czJa1dffbXUylygbBp+qn4PgvnnXyCs4V/WbWZUHOLCkjff+3CUQQfQDhyxT0DiowQvJyHqStA88Gl+UptuBAcZttU4kuTpRx86dKgMJrK9LL/ZwH27I444XVAUx9hj9wnmnLN/cMwxx8iRcqz0a6d49XHmcRxsV8v+PS62RcbmzNkugp0E+T0N6GE6jixhycNRBh1Au3Bk2pzLBEqYfdVKCT67oJ04sCF7XLD8mRVy6gRyCkhKWvqMcWjsqWHjdNWB59hml75SjmrDSSio99Wez+aIi+CgJr7BBhvIqensfEfT0deJ2uzRThzkPebhX3HFFfJ7EpAx42WmmWaWbXaZEUUlKA1lsEeZ4sQceGxFjtz7oYO45gHOxxWtzsHzHD7w9NNPBy+//HLw9ttvizNnpeevv7JnRS3BwQUnEcVxczg4MiEH6xJxPEcC1SM1SQee43gy5i2z4RL7ZyBTlpr5HHPMHuy1196ygyKzLVz6AXX42sOGVuBgvxa6otjiNQnImPHCknh2p9xss82ELw1lsEcrxIkrysKR26G3uiPWkYWD5dnXX399cNNNN4lDpyb+++8cehstzSWzwYcjtAFuHBz2Zpe4QYMGhZly0/B+VCKjg+tgCu/GGbB0/v777wvv6I64OQOgzGBhUQtdANjSNSwKtjhpRw5+u+CCC4J//vOfEo9xQMaMF2TPOONMmWtOJSENZbBHGXQA7cQBcjl0mxK9xZmzPSg1IqaXcTo5dgN5arREHtMR+/efS5Zps7Wpbzh4Fyels2T8iCOOCFsKb3npAAh7Xme+4IILBkceeYTsG0KrIwpb70gbNqRxUDHgRP9rrrlGvtsQFy9M/SSuXbpZymCPVokTF5SFA8CTaT90wMvzDi61GgfdJ5ztiBPHmeM4FZDJ48xNebYIZcENx7DR1+4CMxx0vXDKDF0x7FPNNqY06ZKQNRwkQPRcdNFFg8GDdwkGDFihy8E0Mk6S0Eocr7zySrDOOusEn376afVOPZAx42XssceRLhoGxieYYILq/Xj0VFjSQD5qtg7txIH75kI2k0O3KaFmovDZBfQT4VyK5sAYlGxFc7z55pviGJlSRqbTTCbPUQOtPe/vzG3ybKjEQiIGyqabbrrqb3bEhQN7koGeffbZ4JFHHpH9tekaos+dpn3WcPAcBwiw98rss88eLLTQQmFtfMVg4YUXFtvp/YC+CRTZdhigAi4c/EaL7KCDDqreqQcypjNnHj/dc0cddZTT9MSeCksakMW/gGbqEJdXXFEWDmSVM+cq1QEXvgHpCQ62t8WRcz3//PMSATqQaYQzV/L0o1Fzo1+cAVQbXMKhQNOeU925qLWri5YHNXr2XYdL1wMuNgaj1cBClZlnnlmOLZtlllnEoTNtEufeThmlJzlo6TEw/s4771Tv1ICMmT7GHHOsYMMNNwxOOukkiYM0lNEeWeXLUiiVgQM7qvhQaaRzwEUCB7XYAw88UKYFspWpCWS6d0/49TV3P1+xuzw60ZVBZJm1say2UHIUWDhxHD2Zjfj9v//7rySQPn3G7kpkcKqLlgPTLvlNoZXiNQ1FcZCPVIZL4uBEfWrb6lkFZGzpi7nmN9xwgxTwPJMEHz3igKyaucW4DoU7FY2s9mi0PeOALPHaDhzYQ43bIU9+5XIeFOURMjtK8JmrGZHSUxwcfrvXXnvJrBHCbQKZvM484lDvTJYnsugv5QQjJWMLRxGj69iCv+pKQ6P06C0cSy21lHSJ6UDGlr4mnXQy6TqLW7+go6iwfP3113Is4AsvvCAFOU6dw5dpOapDvJNg6tE54CI/Bz6Jv8jBgU/gr/MBFzh6/iq0qzPn9yeffDLYeeedg//85z8ezjy6XFHjAOny6HvHHXdIhKFjXDjyJi5lC5VQ0tBIPXoDB2kNR6kDGVv6mmiiieX0oqzO3KYHLTPSle2IQzhowalFaz/99GPw2WefBTfeeGOwzTbbSNcbe/Egz+I55WR02PToDfFqQ1EcetcXQB4uhUQ2CGh68hcgSFPbx4nycrOJUUYO7lMz32WXXYLXX3+9K8w6kLE785qB01DP4S7PHtks62ZpuG2mgK8tzMTV4ehZDipJxKfq2gHI2NIXhyGz1cPyyy8vzyTBVQ+c+WGHHSZHHO62224io4AsfftXXnllcPbZZ4d5IWo9cp98oX6n64f+fNYZsLfQPffcU2WI18MVcfK9IW3YgKzpv5A3C4RYh07E6U4NAvpTfUoUEitK6P2RvgHpCQ6MxOIglqYzE8QGZKKw53PmOoevPDU69kJhEJO4UeHwHZCxFWwdjp7loAXI+IzKY8jYnDkDn9SS2Q43Le+hh8vgJRUCjja89tprxdEA9Adw8Du/HX744SEXY2bJ6ZRV0bQemJHFif+uesQhrzxodw7kbekhNoXoDl0R4AD57AJeHheQsnEwHZHd/z744AP5boLnMF7tndmdeT2HnzzxcffddwfHHXecNIF9E4bNFjT7Ohz5ONT4EnDhIB4vu+yyrrUMyNicOVslsNJ2/fXXl7hOgtKDzA+S9LjlllvkyD+6StCFwXbmsiuOYcOGBaeddlrwww/fix4qbGlgxhR5yVUPG3zCEYeycCDbCA7k4wr3WIeOoIKtap8EEolZY/ENSE9x0C995JFHSv+gDciQ2Wr2iBK44nRBHIcrdHkc0O233ya1pyLixKel0+4cDFBl4dAzmwsH6xpobZFRkenuzP8UDvqqt95669SFQz56UJs+4IADZLATm5GGLrroIlnz8O23o6VLj9r7J598LHzKPi7g+VtvvUVWUgNfm2a1p44ycZBXi+QArNdJ4hgrdGZHVj9L5NG3p2oDEBLhvo7D7C/Kktl6goO+8n333Td444035HkTyNgyG7UWV+TlsMnjCF5++RWJJ/pV09BKcZKGduCgO4NpqDiNuLSx6qqrBueff37iIj9g0wPHEZdnmWUy6aSTSm1a9eGTD15//bXglVdelSmKDz74gKSxLOmcjejYl4grSQ8TvuGwoTdwJKUvppYmvgGSLEqoWTHI43TyZpRGcLAUngzDLnc8bwKZ7pktulyRlyNJHhuzrzjL+/US3ERP2TMNZeboSWfOYORjjz0WfP/99+Hz3eOW70sssUTAgGMWZ44eSXmWZ6j5P/DAA8HGG28sg6077bRTWPMbJ7j33nvlPFM2l3NNowBOFRbWbDz66CNSWLn6jizhMNHhiBD7BCQuBLyUSKR0YIP+++67T1ZWMjhCZvPtLyIh6AFpBAfP3H777bKoA8doAhm7I404XZCXw0WeaWUHH3yw2N0Wjp6yZxrKzuHjzOEwM5sPB9MUWd9gi1u4Vl99denjZvVtEvLoQbOdlb84DuRYdcq+QUWl80cffUz2p4E/DXntCTocNXgt/edRahhquTiHOHzyySfS//z555/LzoP0n7HakClPW2yxpSjkAgJiDlCpgBTNQR8mBy6wr4kJnqMgqz2fLZHn4fCR5zm6XTjcgDnKqhCOs4WvA+xw1JCXg7zFgDYbaikOFbdgvfXWE+eatgrUVw+e4xmdU+egm2W33XaVLpeaXumAz1Yw4Sf22WcfGedJ2lwOHcwBvyxx0uGIkLpSlOlL7PuBA+SirxkHzug4XRaM0ken8fB0faSy2RBdAi5ABWpOekBoYviUbK4cJFgOAqCrwgQyeWrVIC9HFnlqXBwczeAWc5Z5lsyax54djnoUwUGrlemHtamxUbwSvwMGDAjOOOMM2Xo4idNXD/Ir3SoUFhyiQoGvc1Apo8uFw1l0zkUWWUR4WZthA890T6e1sSE2lKO1zr4/PGuCZ83WUpY46XDUgEPHEXYhLB0qoZOuhAmrEtZgK3PMMUclbJpVwuZfZYIJJqiEJQWx1XWFLw3vjSX3o2usyphjjiG/bbTRRlXWZIQBqPzyyy+Vn376Sa6wgKiECav6qxt8OMLEXQkNVReOtLC4Xnk58siHTr2y9dZbV8JCuEftGYcORz3guP322yXtmXE7/fTTV0LnVwkrVNWn7fDVI6ycVQ455BDJu2HrrfLhhx/WcYSt6crmm2/eLT9sscUWlXfeeacycuTIyl//+te637hc0invfOCBB6z6lSlO2oUD3HHHHRWK2G5gLimj8HRJ0IVCjTx8YV0/bRipYelhq0kSn4HIhkrJ5ziEOnTrL6JUUt0GLvDhYMoWzUBKQh1pYXGBjYO2z+yzzyGr6ThRhhk1bCtAbWmGGWaoPhchrw401Zg9cdRRRzrZIg49HSdxaEcO8lWUJ4jXqDYbOkQ5qYhZLUm1sSx63H///bIoibxLTZnZLYoDPubC84yeH9gIDn3YFpl58GyJrIP3JtXMAS1G9vNfeumlu+lXtjhpBw4Aj/rQBVVDHzRoEL/GXuFLLSX0mHXPzDLLLJWwuVdl7g5KILNU4v0+8OHg2YMOOqgyzjjj1OnpEpa0S3GEEVGZdtppK2uuuUYlzLxSAwojqqpBd5x33nmVFVZYoRJmnFB2nEJ0QP7ss8+uhIVwQ+0Zhw5HPRTHm2++WW3l1uJ2/PHHrxxwwAHVJ+Phqwc1/ccee6wyySSTyHtovZ111lmVL7/8UuTJ42GFrTLnnHPWpSFaCrfeequkWa63335b8rH63SWvkAf+8Y9/VMLKU1WberRbvDabg3iCh7/U0K0O/fTTT6+LJP0iUsOaRGKkctFVQ6KygQSXNyC+HC+++GIlrHXU6egalqRLccwzzzyVwYMHVx566CHp9nDF999/L5lr++23r8w444yZddAz2l/+MoV0LYUlf/Ut6cCe6J03TjocNegcO+64Y13cTj755JVjjz02lTOLHjjTsKYt6WKaaaaRCsPEE09U2XXXXSsvv/xy5bXXXq0MGDCgLg3RrXr++efL+8BTTz1VWXDBBeU3CoSlllqqsvXWgyr9+/eX77Z0Sj7YbrvtKp999plwmIA7rz172m/YUBYOHDk8qQ4dp6RHlH6Fza0ux5HkfKgdXHnllVXmGppRsuHY9t5778p4443XpV9RzpwaCeMF99xzT2X06NFWPTA6v40YMaLy7bffiv7qvgrHF198UfnXv/5VWWuttazvirts4VAFDH2YvCMNRSSuDkc9dA4qE1NPPVVX+iJvnHTSSfJbErLqQXonc6+22mqVa665pnLyySdVZphhBkmrAwYsL+NjelonX1CDVxWAZ599trL00kvLM6SvZZZZpvLkk/+ufPPNN+L0xxtvXGte2WabbSSN20BYVMGU1Z5lK6SbyYEPQYYr1aEzIDLxxBN3i7DImSvngQOMH7Cja+OYY46pMkfgpWZACJwPsnC88MILlUUWWaRLNxJpLRzpYbFdcEw44YRSK3/99dfFbroe1FLodqFmtvjii1fmn39+cbL8XW655Sq77LJLZeTIr7uF47333qtstdVW1gxjXknhwKnznrfeequqkR3Y03QaWeKkw1GDybHPPvuEtdpoQgFOla4/nGMS8upBJv/oo48qP/zwg3T9UbmiS4X0QVpRaYh0csoppwg/IP2ts846Xc9MNdVUlfvvv1940OOss84M8/bYXfLq2nbbbaVLxwY9LM2KE1slsFU5sMdvv/0ml3LoINahU8rOPffcdRGGg4lqgtHl4gBxdrwUFBEpWTiQufjii8X5olNRzpxEvf7661c+/vhj0UUZ9ddff61cdtlllXnnnVfeSfPULj+OFDL0WdLfreTRl77LVVddVZ4zZdXlEg7ia+ONN5ZuHRts9lR6uKIMHKSxsobl448/qvTrN5vEB3mI1hyFPc/FoRF6kMb2339/SRN6GqHlqtIHeX+vvfbqGmfi2auuukp+h+PRRx+tzDzzzHXyXJtttlnl66+/Fg4Tph5liJNW58DH0JpSDp17AIduHUplzwDOi1QIE2L1Uxh7YRSG8nKlgQ2AmCETvss6khsmGPnugqwcYSKVubSh8UQmz0wSoDhmnHGm4IQTTpCZANiL+5zLyf7SYa1c9sfgnaHBq5L1YFtSVtOxDJvDfpEF8LCwhC122GfaBtdwhIlFtjWFP4z86t0IcfbU4zoNzeQgbCxwCx2SHLTADKYyhuWee+4NRo4cJd/ZCpe1GczR5jcbsurB88gCkwOweIgV3NgNwMsujiwAYvEPz7KTJ2sZSCthJSE4+uijZIYWeYyFhKxKZl67DvTiFCOOJlSI04N3liFOWpmDGUmKAyAPVxfCh7qgauhcO++8M7EiNcFQSC5KbJ/aLE1+uiOK6C/KykFtd9ZZZ42p0fr3mSPHQNMTTzzRpQclJf3VdKnY5PSrXo+aDuuuu27l1VdfrWodYciQIZW+ffsmyLuHIywgxHYAe5o1hSxx0iyOzz//XLoJmIGBPejOYBC4bGGhW2XNNdeU+KFm+/jjj1eftiOrHjx7ySWXSA0aeZODgVAGNVU64S995HRFAt7LuNmUU04pv0800USVf/7znzLuA8f7779XCSsqkt5UeoKDGV2MB+AXqNnTxUOYyRvU2PPYtFFx0soc+EB4+EstnXs6Yrtc+Hv88cdLpOkXmUdFqMvFrJIHH3ywW0DCEqb6xnTQpZLHGDhFdCfR+TpB/SLscISlqiy8Qhf0QL9bbrlFMmyafRSH0sPUgf51lckAkUYzWT1nyvuEg64fZlXQF5o3ceWNE5CHg8ITO2APVbjNNddclQ8+eD+THnkrHHEcZLCZZpqpstBCC1UeeeSR6tN2ZNUDmbAFJlMgl1xySRnQ1DnoEmShkD5dd7bZZqtb9BO24rq6UnDmOOdPP/1UOBjn2XPPPWXKpZLnIkyE78QTTxTHTlysuOKKld12260StkBCjj2la8knLAqNjBMfwFGmvIIsf8OafjdnDmIdOrjiiitkYBSHwZXmrMyL5yeddNLKjTfe2BUQFPOBrWTz4aDgoC+6KGeOPDUu5terSHnmmWdk0DONU+dQetieY166PlOAmg4ZxSbvGw6mkl566aXSn5onTsyM0tMcpFFsopy5ssfBBx9cfcINjQwLf3GECy+8sEzf5bk4ZNWDZ4444gjJp9iAVZ0MaioOLiYm4KRVGuAzFRCVfu+66y5ZEc5vFPpwMCkCGyt5NZ9dXf369av8+9//Fr2pIJDHVSuYgoNZMPTNM3PLNSwKjYwTH/B8Ht8DiuZAnnDFcSQ69Lvvvtup1mm7kCGDkUBY5MKgim9AcMZ5jUHTfKKJJqzL9FkGQJXjIDw33XRj10Av+u23335y3yarLp0jTQ9aAIcffnhdWGkyM084bzjommAJOM1rbJrkZGywxUkzOHj++uuvk+l2uj2oGX7wwQfVp5LR6LC88cYblU033bQybNiwxBpZHj3OPPNM6ZJTccuUV7o4FQetY+a7qzSArZjtotLvc889JwUO8lx8ZoqlcuYXXXRRN2dON9fzzz9fpyN8zNyhwoEe6623nnQfEh4fm5YlfZWZI8kHJjp0Io0I1iPT5TKdF10G1Ah94BsQG+BgzqzSI6sT1MMy11z9w9rL29U3VCqvvPJKt9lA5mVyuOhB1wtNZ0A4iBMyTBHhoPBZffXVwia1fb5wHIqKk6I4mI7J/GjdHtQO6X5Ig02PIjMsv+FMmV1Ft1kc8uiB42bMhrgdf/zxpOZNZWDdddcJW3ifSO2Y7h49HZx88sld+tAdwiwt1fpm4RH7yShnToWOSoQuz9jR008/3U1HWiBMbyQu6M7JUmFodJy4opU5cOixQ6ycMxiW7tVvbggTRrfZF4yKM7rrilCvbqPBYUaVkXZXwBE2TeTg5+qdkC/bbBY9LMstt3zQt+8U8g39OK4rdCzy3QYbh4se7MbHAQfMEMIW8HCA9bzzzpM7HGFSCR588KHgyCOPEn4XFBUnJgej/Fk5QucSrLPOOgEHMyh7MDuD8zA//PBD+W5DnB6hY5PvLkA2iSMspGTHUmY8YScb0jjSEDpzmTEz++z9ggsvHBJceumlYZ6dMrj33vuCTTbZVGawqBkpYSEuJ/uznxD6hI5CzhTllH7sEbZigzPOODNYdtll5Xn2a99999270ge6sYtnWEAFiy22WDcd55tvvjBvLBv6i76yD8xSSy3ldUJPXluADkcVYYR2Qa+hUzqwE1tIJqVz2sVzqhZYq0mOWQkTgOzy5gJqa2bfV1Jz1QbF8dJLL8k8cKWHTee4yxYWmpMMsCp9eEfoZK3yXHH2sD1ru1iuTbeC6u+m24q9X8xZL0lXkg78xp4baQtciooTs7ZRBAfdA0sssYSERYWZ/uRzzjnHWjNulB42Dp6LQ5F6vP/++8JBXzZrGuhSI60qe4SOQPrF1bgMchdccIHU6LEbtW66Rcn38NANQ8tHT6ssSIrbSkLpwYwYBld9w1KkLXo7R2INnbMHmS9L6Z6GMGFUSw+zJvqnzF+ltpyGsDnRbZ9nahOhI5LvLtA5OPXljz+io7RUSeeCuLBQQtJqUfqEhg+ef/55+WwiyR4uQJ556SeffIrYD0wwwQQBR4Zxok3eOJFvYc2MI/jYfTJ0BnLPRJFxotc2iuJgf29qotSGFULHFNx8881ddlMoSo8wczlxxLU8fDjioHNw8hAc5NcVVlghmGuuueS7AoeecDZB6JQlzi+55BLZCTF0FFKjp0YdOnxJK6wbOeaYYyRdK/0AtXN2XSQP6ND1IAykTZ+wFG0L0OocedNorEMHM800kySUJPBSmvT8jVDvODjhiIvEFAeeNY1B4vEJiM6BUWh6//GH36nlSWHhSLCw9le9H70vrPVUv9WQZo806PJ0vZxyyikBDhxb0M2wxx57SOZMgqsOJKArrrhCTjvCdjp4tsg4AUVzcHEqPgt2amENgmeffTZ45JFHJB2AIvXAZiArBzo1ggOENTQ5r5TKBuC32WabrcvJX3755cERRxwh+XHiiScKdt7577IoS3WPnHjiibKdLuEE6EVhySK5o48+OnjvvfckH7NAiRPK8oSlkbZoZQ7+giwcINGhs1qUyI4DL8VxhJ+iG+I42Bs5UgoQSGpLKrAmSCBh87jOGLzTt29V5xg+/CVxtnHvtCEtLNSQdVuEzSKp5ehwsUcSTHlWk958803aWEAgBwjvsMMOEtk2+OpAGFgdeNddd3UVuo2Ik0ZxkEYZX6Amo0D/I/29tHLKFhYVD0Vz4Gw58YhatgLPcwg66efCCy8MDjvsMPl97LH7BGussWaw7bbbyipROJAdOnSo8AMc/Omnny5jOTh1zuBlBTRH6LE6lzNI1ViFb1gabQtXtBNHF0KyLoQlc1cfOmBEW98PWb/Cl8b2z5oXc1lt/W9hALr1F9GH5AMbB6siWWhh08V2uYSFGQP64hD6tnnWhyPpsstHfcPMH9f3lyaMthlISRxJF3KsJGSqXaPipJEcjC+Ye4wQJqboqb7hntAjDo3mIN9yWhVh1m2g7KDSg0ofzBlnARs8cFx33XV1C494jjzL2Am/0zevFg+pdEXfO7NifMPSCvZ0RVk4ADyJfeggrssljNiw9DBrgVFN0AbOJVW1GwWeNUdyqWX5lEo2Dt5Ds5P7LnANS2joOk7k6IZRn33sYSJenvwV7YnDPho0yQCtBWrVnECjkMaRhDA9BM8884w0x4mrouOk0RzUMukXDp1N9U6EE044vm6mRiuExYYkDtLEOeecI90gxKMJ7oUOQvKFSh+nnXaadMMgz0yXXXfdtSttkd/322+/4B//+EdXLZETtuhrj9J7JZhwwomCAw88MFhuueW8w1J2e7qiURy0vH04iF8lD4jhWDDg0rdvX3mRAp9pjoWfohsOzuvtt9+uc+h8NpsYGMPMkEmI46CJyXQtW+I2gYyrIw5LzyCsCXbxoivTtXw4bHCR550cas24gLrP9DGavySAvDoAOG677VYZJKV/lO9Z4sTsB+wpDvrSl19+efms7PHee+8HZ511VsuFRUdcOoeDvm4Kdgr7JCh7hJ/k89xzzyV5mEOc99prr65Cj4qCOipRryyMHDlSDpH+5ZefZdouXTd0v2QJS6Ns4Yqyc/gWCEpegViOBeScLai/JGzCy8sjuDkOzhellgB4Nm8iT+J47rnn6voR44CMT8GE8d944w3pOwcMVDKrwLdw0+GjAwNZzFBgh0GFQYMGySyPPDoAXQ8KDhwELRLfBEqc8Bdkidc8HBRs7FDJrn964XbFFZdLhcJXD3MANEtYiuKwpXPAAObxxx8vtbw4IKPbI2ycB3vuuZfUuJn9Qj84FQbif7PNNgv2339/qcjp4J2sgWCH0UMOOaRrDCdLWEAjbOGCojiKKKRNDl97IstlVlyJ6USwlat6EQmDl0eInIZSKgk4I0p5Xp43IHCYJZviwNnidKlNJwGZLGFh9gS1dEAht+SSS2qLr9ztoeCjA/eZucHh3SoDM+uGmlJtq2N/HUxb/O9/fwT/+te/pEmNnV1QVLzm5WBq3VprrRl+qtmUtEcXAwUU6YN3JEHpQaYDecLSaI6FFlpIWmr8ZgP3dWeOPbDvgw8+GAwZMkQWxSl7r7nmmjLLhanKOtCDmvtOO+0s3ToMhpLusoYliy3QMa89i+RQNiuSw7ebhXDwVwEekOrQVQ29ey0Qx5HerQF49p133pH56LpBs4wGm31OOscXX3zRVeOIAzK2RO4Slv/85z9dUzBxdv3795eTzX3tAaII8NMB+9FfqsKIDjgxVkwSpiw62GxBgmNmBDNFkmwJ0uLEBXk4aPkR7y+++ELw0EMPBpNNNnnVtjWb3njjjTIeRMGHw8IJDh48WAouwqrQ7LAouHIQlquvvjrYeeedq3dqQCYunfOXcPMeQN84Dp5psTp0PRinYN4/XbB5wpLFFmYFrrdz6K0MAI9CqkPv169foC9kCflCMhKFn+N488036gJCqRQVEm4gIGYiNzno+zUXlOhApnsidw/LN998E1x//fVSS0cPmqarrrpqMNFEEztzgJoewE8HBi2ZToYu6EDtaeDAgcEcc8yZUQe7LVigQ+HBADO2t8ElTpKAHA6ZFhUJnQs+Cn1q0/TtUoukRnnllVfKgSIM1tE1wDJ1nDS1Rf5SsA4cuIU8R7cC3CosZAAKYi7s9sILL4gD23TTTYOVV15Z+pJ5X56wgLz2AGkc2IqFP7Q4+A1HSzzRfULTH3A/zpnrgBNngp2peX/11VfyHDai8sCl64HzyRuWstnTBWXi0AsEgDxcCmOED3XFMpmLl6qVd/zEXF72jaDLBMEos9gzuA3IkLgGDdo6OPvssyUB+fY5EQCzZDM5+I3aCl0Qqq9Oh9Ij/BTd6HJgNeOkAY4pp5xSBifnnntu+U5mYJ8M5nGrcYIk1OuRTYdxxhk7OO+888WRE6HYgsE/Fn/ErfrU4WOLlVZaSeYoUzvTEx/PxsUJDpnfqAWSnvisvqvPOCbS1FdffRmMGvWNOBHGPrinLmyrJU8rfMISBwrFbbb5W7DddttLvCqb+qRRwkz4bPZwRRoHDpZ4Pumkk4JddtlF9luhls5z2JMFYueee25YcH0T2k1EQtjtASeDyHSpkp4/++wz2YOFGS/MWWfAn8FRxd/T9ugJe7qgTBz4NfID8qRR5PU8SYsz1qFzmwslqP28+OKLXfdcoV7MX5q5DzzwgJTyjTAGif2AAw6Q2ooJXY8I/ple51h33XWlO4KmKnowA4Cj5NRKujiYevD+rDqwHPuaa64O42YZ0YFWA90IN954o9gsDqYOabbgOfpXcRYciYczVrVd3klN/qefuH4Wp8J3ChU+85dnuPjMb+p30hkD7OEbohdljJMiCmnFMe+88waHHXZosP76G9S1StOgMpuyO5xZM2wcBzXyU089Vfq5sR21OwbEGeug243nsTNdZbTgorQYVb5MexD/DOjDR0HN1EVWJHNUI9MWGUdhlss111wreb/osKQBuY4zr0Fx4FuQJ/5In/zVgUPnoS6EkdC1sCgkkQnu3Bs0aJDXIhmu8MV1BzJMMcUU1sVFSUCHsCnsNOk+rOHJiS02PbovtvEPi84xwQTjV0477bTqm6MNdcJaTd3iDPOy6WF7Lu6yyQ8YMKAStqCqWlQq7777biWscVnlubLagngMa3Ny4PQaa6xRWXHFFWRTLDaC6t9/zspMM80ox5eFFQHhtXHoVyPipCgODntg61hXkEbDykSuhSFpHOSbsLIi9tX1J7ycHMTCH8URFrRySn+0wZZ9UVn//v1l0aD+DjY6Y7EQNmAPdTbsgitLWFzzrA155QHPtyMH8sRxHEfifuhhiSKC3GPlJYnfljhsly2j4BQ+/vhj4XYB7zeNQWTHgYMNwqZzqh4uKyf1K46DlXPsSa2ArptssokXh+1Z2xUnH7Z2KmEtq6pBZDNOoLE5tiJ0iAro7BxcefXgaiQH91dffXU5gi0NvmnUhjQOPnMcpH5QhXnhiNn7n7wLB385VWujjTbq9iw8nDZkOgXOLWBfdVZYH3bYYbKfetFhSUNP2NMFZeZIKhBSV4qC0DnIBj9hQq/eSQbPdW8G/ynNBuajuyDUTZqVyAE40wYQmFIYBr76LV6P0EbV7+lI4qC/l2ZqaGD5haYq/Ztq9ahCXj2S5LHRNddc07UnO8/SPcI+3DqKsAUIafhfPhdtT1c0moO09+STT0rzlTQbB1saLWLQ0ORg50h2xWQsywZkRo0aKeMn1113nejMmAAzetgjnZ0UFehKZRdSulEYy1JAD/rKwz8yY4ruQ8aKig5LEnrKnmkoO4cebzaMFda+j6x+FmEcFH08CiiBo7zsssvkJUngpd0zSnQBNpbiSgI60E+rB8Slz4mBO1aJgjQ9XJDGgS1GjRolA8ZM7eR5Zhzg0Fnwgf559XCRZzCRdzKgpfrVmJ/MAiH6qnvCFi5oJQ76f3mOQUN9xaSCLY1S4UjLbDrSOEhfTJNlXIgpvzboYSGPsn0DM6+YTkueoZKxzDLLSDrlYmfN1VZbrc6xKD1IM4svvrhsgUuaLjIsacgrDzoc0Yr8WIcOCRcgYTDQol5gA8/aM0pNZtZZZw3WXnvt6rfuoHZBZtID4uLMGTDYc889UxxYvO4mXDkY4AubQZJpVMZn4JDtRmmN5NHDVQe+s9UB+16zjSyZNVotOZYM1jLAlVUH0JP2TEJPc9ACGzBggEzbRU6BNNoTA2U48X322Ufi0AZbWEiLDz/8sOQh0iFpklo5Uzw32mgjWQinv0PXAz5a4jPMMEPhYUlCT9kzDWXlID+7cuDQSRGpmGKKKYK//OUv1W/dgeJRqZ+cURh5j4MKCH+BjzHefPNNmXblqkcSfDioRTFzh5klqruHedHMNiFzZNXDNxwsNGI1JPOIAXYjA+OQxhxTlep+OoCi7NmKBQJTJnGmzJ5SIG1mqXDocOH44IMPZN97nLMNSWH56aefpCuQNEiNHdB9wjREfeZOT4UlCUXp0K7OHA7izIeDVJEKiOlWsIHfSFz8jRCfUdT+ySZ41oxYmhiuAfn3v/8tf131iINPWBSoFdF3zpYDqktq8cUXC9Zbb13p84o46J9108OuQ7r8o48+Khs10cLi2amnnkr2CY9W//npALLqoUNxhJ+iGy3G8corr0jTF/CsWeHwSaPAhePTTz+VlZ8sprJ1cbqEhbzEVESc+ssvv1y9W0NPhSUJReqgwt7bOYCTQwc2h85LfTIKNUiVQRRItNzTI9al818HNalmOg5aB2zfSji4xh13vGDbbbcLbdavyuHWxxuvQ7o8iYFuMdYLoAO+gP5S+kSxpasOII8eCu3Awapc7KrSKHIATt806sLBwCdOmNW56jkdPmHhfSzTN/NtT4UlCWXQAbQThwKpwwn0Jergpd0TV3TFgdqjvhMiATFHcimVoma+G+Bg8MhHDxP2sLg7DnSg6+Wyyy7tCgv22n77HYLxx59Avqchrw6A5jYrCHFCAFuyO95UU9XvnpeEIvRoFw4qGUWl0TQOfmfrYmrmauaUDt+w0BfOZlqMpyj0VFiSUAYdQDtxAHiAsxSDLAq8tHviihJYEngptVnAs2ZA6HPyKZWQfe+9d2UPlwhueuiID4uf4xhzzDHCWvphMjChIoW9pdnrJS1yitIBjldffVVm/GAD7MlAKasL9YwdhyL1aAcOmrtmzSlLGk1L57zjggsukCmoPGvCNywzzzyzTLtkKqKCix5pKIKjDDrYOMivrciBT1XygFTiBE44Abw0clBm4qqRxoFn1FmfZn8RkeLTX6Q4nnqKmRx017jrocB77RklGwezXphmxhJswkKY1D4ocShaB3DRRUNkXr5KGBwEzH4zPBeHRujR6hxMBlCFMd+zpFFbgaBz8BvndjKQaZtr7hsW8iljKcx6UnDRIw1FcZRBBxuHjxMtCweySl4hSq0OUAdGUxPl5RH8MgrP4dBxxAQIZIkUeBQH3S0cppwlw2YtmBRsHPTnU9NS4WOqJk6d2S8mitLBzPBsdsUGS2wrC3gHBxqwf4cNNo4i9Gh1DuZmk+b5nsVxuAz0U5PmBCAVVzp8w0I3C1zEs3IMrnokoSgO1RWYR74IHdqBA1lq56qrRYHU4gQStNp5LUKUsJRSLuDldI/kCQgcqmTjM4OAemJzAe8lo+QJSxwH0xdZsTd8+PDq/UAWqLCLnYmidAg/RTeqHNjjoYcekm1hVX8sA2T0p7uvZM2vRytzjDHGmLLpFQ49Sxolw5JxAZxwmLUvxl3YDph1BCZ8wxIdQrFTsMEGG8i7gKseSSiCA52VA8srD+DwHTRsJw7ihPhQHAAeQIpJBQQI1/rkVOLy69PknaomkjUgep/T119/FRYQn4WBqwUsDbzXnlHy9s9GHOjIVDFWajJICXAGbOvL1qwKUQQ0RgfAPGp2hFRH1vE8KwE33nhj+Q4abQtXlJGD1ZLEFwtz8qRROG3pnD3ZccBMUzThGxaeZ/EQ2+mqsRJXPZJQFIfetZBXXumgusJc0G4cZgUWHoVUJghULW+qqaYKv1PKkMD8Mwoy7HMNKKV9A2Imrg8++DD473/dTvcHSo/wU3RDMkq2sCRxUHqyVQKOHb0BA1XbbruthLvGAYrSoXuGZ2EJB3KoxTGsHGSfF7VVgQtHEtqVg3S5+uqrBXPN1T93GjXTOc+wipjZSH418/iwUNFivxdaYcBFjzQ0iqMMOrQyh14gAOThUkhkgwDnxF8E2YMbMp0wDbxMT6A///xTGLD/hvfcS2l0MI1BFxCbUnHfBaYeYehCviizuMKH48svv5RT+VWLhBVfm2yySbDiiiuGurNiD44ideie4Yk3VpCyzzWfAatHOfFn4ok5xCSdIw4+esShjBx8ZmBxww03Cm00SfSAA+LSqJ7OiQMW1+23337SJafiRCFLWBijYVBVzTd30SMNjeRwRSN0wIeVhQNn7suBM1dpJkor6mjQGuq/aUBQT3AIRjuy+WWU6IW1BEpt8bvvooOWXUBAzD4nDEo3BpmDQKbBpkeUUSJOF2ThoA+bAzdUC4cphLvs8vdg6qmjsxuz6GDP8PEcdL2wJ4hapUsi2GGH7YMll1yqGp50DhNZ9DBRVg66WDipJ20TOR2kUXPQUKVRHcxiYVdEfWxDIUtYOG2I6Y7sJQSS8oorysDRKB18l9E3ksPXmZsc6BDl33p0v1OF7tCVQaeffnr57gJkSKD8jRAl0J9//iV2K1ATBCBudB3d1IyZJMTpoThdkJWD38lwd955p3wmLAMGrCDTCKmlZ9Eh/BTd8AgHS9g52QZbocM000wr0ysnn3xyZw4Fux75Wm1l4mAjOrYgds20vA+7kukAnCqN6uA5nDknCpmVkCxhoXJFC3CVVVYReaWHkonTIwll4LA5L18d2p0DeZszB/a7IRBUoDThMk8FjwOycQmUGrqLQ8dhk/AJEIBTH1BhwJGtY1VAbUjSwxV5OZiTThM7Grz9n0TonnvuIYNurigiHBQq115bm05JDXTvvff2bnHZ9WgfDuKL7Y9doNKoigc49TSqA2fO/HB9z36QJSwMfNLqYudSMrePHnEoAwfypvPKokO7coC02j0pKRGUBFwoRHOU6VFJ4LmkBEpfEt0ASSAgZv8ZjlAvlXDmbIwVhzQ9XFAUx4gRnwQnn3xK13e6XM488yz5noaidPjjj9+Ds846W7Ze4DvxiFPgrFcXFKVH2TlwuAwkqxlKcbClUTKsrebEgOXJJ59ct3MjyBIW+DmEgo3XiEMfPeJQBo52CQdoJEdagZD4Bkh0JWiOmvOYdfB89wQaXQppNXQCYAaE7h4zIDimuEznokcaiuQI4ya4/fbbg+eee64rLEwzS4vgosPBZlPMkee96EBpzwIkDuZIQtns6ctBeAkrGYJKyRRT9JX9beiuYAXttNNO18VBRmJ2ErtX8tkGWxo1KxyAfnIGLNm4rQhnDtiC44gjjpAtcV31SEIZOMqgA2gHjtgnIDEJyBD0u9rA8/bMFimlgKJxDt3WXxQ3GBLn0F31SEIjONhpkqmMnByjgFOPQyN0+O9/fwkdzPXV1bURD/tk0/VCgrGhrPaEA39L+mC6HqskcXYLLrigDBKyh856660XDBw4MNhhhx2kNcJZLuxIedVVV8vCK9YK4BxXWmklcfgK7DdEAUwr0ARp1OxWsFU4SMd33HFHcNBBB3VL7/H2SHbmzGihtk93naseSSgDR1nDge9rRY4xwlpIVyqiRoHDpRZjAzMlaOqp/ccVMCAv5m+E5Ax78MEHB0cddVSdoyYgrs4ccF4iy9lHjx5dveOvhw2N5GAeOE3vrbfeWhwo/dps4GUu+0auUU4UbLXVVuLYqOUBau4sfKJWqqOReqRxkIBJh7QIcdiTTz5Z+HlyseGkk04i+6zwnS0V6FNWFzLqUvdIQ6QvBoT5C9BLpS+2qx00aFDdIh+OcrvyyivrjmxL4tBB2J544glZBfraa6/V1fSz2oN1DDhz+s1d9UgCsj75zYa8HGXQAdg4yJ++jrjZHGwj4eXQcTw4IByRAi/tnkCTm44k9OOPP77rPTxPQAgQcAkIOwhSu0IOZNHDRE9wsFEXMx2YcsaRecw+ueSSS7qmsfWEDji5s88+WwpnEj7vZqtVapPq1KNG6sEpShQmLFTj4jQsLpwoF/dw4rQI0S+kCWvQ40hGJV0wh3688caX78rZJoF3mjU4PX2RhtiaAQeu4gFwwPK5554rhUoahw4WDG2++ebB888/3/U8yGpTbEEaWX/99YXDVY84+IQlDnk5yqADaCcOb4dO05Gjsa6++mr5zkuzJFBWTJ566qlSy+L1Zn9R2gACtRNq+XCArHro6CkOwsUqQRb8EGGs5qRLgGP0ejIcbLZGS2ummWaS7xQu2223nXQT8HxWPSgslGPmYnodC9KYITXjjDOE96YRZ65G67mwifqsf8+SNky4cnDiFF01zHJRYMyIGS/cNzNbnB4Mqq677rrdDqnIGrcUWqRzWlC8s6fskYS8HGXQAZSZw9eZA2+HTmKlm+O8886Tl2bN9KyY5Ng2MnuWgOB86PelTzqPHgo9zYEzw1GwahTzs2kW9vjtN+Yn91w46HqhZq4SH4ULcTNyJIeQqF01o/UIcJAuWItAfzUFAp9x1MSjukeXCHLEqwLfcY4qXiPeZBSRyH04eJZa+pAhQ+SzAmezXn755V1N+CQOavrU6umbV+8EyGRJX8hRyNIapQXTk/aIQ16OMugAGsXRjAIBwEPPiZdD56WcqnLCCSeELyRx6gk0SqQuoF+S/kAcgh4Q174v9oMh891yyy1hBJgZxV0PwHubwUGXC4dhAAZ4caTsYR5FR8/oAGht4diR51lq6Jw4jwOmZo2z5qIbhNp3GuAwa7O+fZrN4mAnUAZVGbgmQzEBgG0AmMbI5yQOpuLSfcbYjt5tg0yWeEGOQXNmIbFJWFlt6usEme2TR74IHdqJA3/BhSwOnZTmDBI5U9zGG48ZEdkdIM3aH374vi4gPomLQofDJFrVmQOcJrN0GDfApsccc0x1JW7P6QDoN2dfETUgwxmk7NpHE5/aKU6F2RUuzhwOM4H6Oo1mclBwMcWQgozZMYwzUGlIc+YUyAzyUzgW4cwBM3aOPfZYKVDKbFMf5wNHXvkidCgrR5YCQckrkNqcgTAZm0OQI7gnUAUUxxmrXRKVMXwSF4aAI5SObvSwE1TIy8FBGGq2Agt8Djnk4JCTXSl7TgdqpfTR0s2CHgBOEpdvhics6r2tyrHNNttIVx7dHAxC0lpN4mBxGytAGVDVF7ohkzVeGGPgUBQKUwrZvPYoEwdoh3A0gsPXmavauQ5nh44gtY8JJ5xAXh4l0O4lRBJQnET+008/ilPOYgz0wJnX5qBn1yP8FN1oEscVV1wuO0YCWj90fWy66aby3QVF6MCzzMl+4IEHu5puvokLORIoCRXAQT9gK3IwBsCJPwzYI5/EwfvuueceGf/Q55ojkzVe6OqiO5JuSbNgymqPPBzIFslRBh1AK3MQr6RxxQHgAU4OHQKVuKixjDvuOPKZGocreKFK5D/99LMEKktA6G6hMIj2xFAZJZseEZrH8eqrr0m/F7bFFhNMMKFMxaS/Og1FhoO5/DfeeKMsqMkaJ7wbwAlHTw8MNYODmTF0T+mLxZRNw0/RDY94QZYNt5glQ+WpDPYwuwXycpRBhzJxUHny5dALegCPQuqgKD+rxMXnRx55JNhjj38E7733fvWJdPBCPZEzoHr77XfIrna6Mkng3SqBvvTSS7JjIfPi9YClwdQjZA3lowznCjtH9gKhf//+0sTnNCHuE+HM0Sdjq5qmiaJ1AMy8YbERe6WrGrp+2aDHCYAzS+0ejttuu02m+sHhk8AV4NH1KJKDxUv0ratzYXnugw8+kNWo6kQoYNo0fNI5XrAZ01eJe/ZoQY5KC3bRjzN0hRkWpspycLSrXVS86BxZ41bnSNsLSkejdGhlDvwDQJ64RF7Faeq0RX5SVXv1GEdn7bzzzsHrr78u39PAi7sn8kowdOhQccouAUIHvZnCgg1mheirRNMQp4fidEHxHJE88/JZQUozH1DzYwHXk08+2WV3hUaGA9B/y9x0Vib269cvmG222bqmIzJ+QtpQqzPhUfrx2XcsRI9XFs7ceOMNwY8//iTTUulSo0+a9JiERtoDDuzA4Cj96fJLGF4qFNtvv71sS6yHP6se2GyNNdaQtQnYHhnyIrtjcujzN9/kTed/BrfccquEwcWhm/kNGQr8PP3Evhw2+SwDj+3EQc2c9EYcw4Et+auQ6NC5zYUSShEUYHYGS9dx7GlQL+ZvhFoiZ9Bn8ODBUkolQQWEvwAupvex45y54VEc7Ik80sMVjeBQtqXflIFJCkoiibAyY4I9y9XKTdCscKATqyWZC43DZ+75lFP+Jejbdwq5N9VUUwbTTTe9OH4WE1EL4z1JMOOV9+PI6b5gWip/1WdaYlzYghklXMR9o+1B64mCli4QlXGYq892yPzV02RWPZBl9TD75nMotZLhEAzWWtiOqYsDLd9IT12PqIVATd/FoRMm3fmgX56CGvhylEEHYOPwrVUXyaE7cwpHMy4THToKKKfOhQIQ0M/KlC5qj0ngxUmJnCYs83aTpsPxLAEhQEAZg6Y5zV1N9VjY9cjXPVEUxx9/1LpUmDJHf/oiiywi33Fue+21l8yEwQZlDAeZY4IJxpcCaaKJJpbpl6QdnDrOnROaqOFzUfOkzxHwTltfoi2RkyYZBFcXtXZq78zOeffdd4KPP/4kvD6WWTqkB5+wAHM9BYCDAmz//fcXZ44jAAxgs8nXgw8+KIURyGtTWj4U3iwygwuw3fL++/8zeO+99+S7K+LCAtjCgE3Ikhy6T7zEIa8DK5sTLRMH8sqZ2zhSa+iQ8BcSlRBwNMxPfvjhh+W7Dbw4LZGzMIj+QhK0DbwXXXRj4BD4e/fdd0tGS4OLHmnoSQ6mqWFX5UDYNIuCC4fVSuEgsZHoCAcJmL/EHU6esy+5WFjFXGscPektydGYIG2o7hgSO861T5+xQv38OJDnLyBsrK9QHISB+ecqLihMOJqO6Ym8E+S1KWFmIRLdhyr8itOnmyUtLEDtjRMHxYH+IOLwH/TLw1EGHUCZOZIKBCeHDomuBPfYlhSnagPPuyRy+s+pNah+Yx1JAeE3tjbdeOON5bc4uOqRhJ7mwM4MTO65557ynbCS4XfffbewpI5s0QrhiAPhG3ts+v1wvqSraEuAWWedTVZD0vWgLmr5tsRvSxs9kdnoEmEfI/IIKMIetFJpBagM2lNhMVEGjnYJB2gWh1Mfuo2A+dJMc6M5oIOXdk/kUUI3wTxbmprmFD2eNZt91JJU3xc63XzzzbKbXRx89IhDszjoemFeOCsEeY74YH+QYcOGhWGPHEYrhMOELwddHnTV0I/N/t84fD5TAKgWAIU8XXYkdPhdwPt8uhWo/bMdAmm+qG4W0jJ8jJuoWR+ka3SI08MGZGx5pRkcpFP+Al+OvPKgmRz8rp7xTV82ZOVIdOhJYPvbiy++WF6qwEt9Muyiiy4qCuDAFGx9ThhUH8jgN/bWwMnZ4KuHDc3kIKzMemG/HJwVz9NfTLOcmUWtEg4dRXHQrTLppJPJ0vzpp58umHHGmaTLhi0T6B6hEOAv3Qt8Jh0jp+CSvnSQF9i8jEFQuhqBPSzuzpyCiO7Ck046UQaSAe+hX54JB7q+afjzT2agqfeqAbOo9eOKMnCY8lQi6S7Ko0NPciy11FLSNWqmL+R9C5U8HJkdOie/ULtQS52jCNQDnp5h6T+lJkq/KiAg+qwHuGyZDU4yGU7PBDLt4MCYRcLsCmYlqPDTxbXTTjvVbe+ahHaxBUjjIO0xIKucOd14/GUGjtoNEqdPNw7fKShVRolz5oDBV2ZicWwf6TJvWJBnK97TTjs1mHfe+eQ72Y+4ZbCVCQcusOvh191TBo4idEia2eOKvByMrZx00kndKgu+NXPTmfty4NBJUF0IHWrlxx9/rH6Lx2mnnVaZeOKJCW0lfGklrDmFV5/qNVYlNJD8lnSFGavy0UcfCV8YkMovv/xSCTOQXGFBUQkLF/nNBM9ecskl3fiy6qFfZeBAfuyx+1TWWmutyltvvdVli9GjR1cGDRokv9vk9KtdbMGVhyPMCJXQeVemmmqqymyzzVqZd955K4sttlhlzTXXrOy8886VU045pXLHHXdUwpqxpH0TYcaqfPzxx5Uws1bCSk5mPdQ15ZRTVu68885KWCh3pfPhw4dX+vXrZ33edrVL3LZLOLjCwtjZf8XBxwfGgbRMseQNFpZQaoTGyFzChkpLiRTq0a2/iD7RuFKJ57l05NFDoQwcSp7gMecauyhb0IVANxM7HyahXWwB8nKQvlhtOXr0N8Enn4yQ7YqHD38pePDBB4IrrrhCtllgTcXSSy8tm6NxYPRTTz1VlY7eT5cOg6HMbpl4YnWYdrawHHTQgcHyyy8v8cl3unF4P6tOXVAGm4K8HDZ5Bv3z6tAsjmhsK3vN3OYDfTkUCI036JLhZXkilYymunjMgETNHzt4Rv+d73n0AGXgMOXVnG4VVn5feeWVZTCZrgIb2sUWoJEczP+naUsaxKlyGDSrPtl7fJVVVpGj+d59992uygMXc7ijw7T99zEiDrfbbrtgxx13ki4e9IKDbkPzzNE4tEu8xMm72EChbBxKhO9JlVEbeJ/pA305gNKbEHmDGvo443BKum6M6HIFCowaNVJqUYCAuHb+q2fskeKnRxk4bPLUyE3HzXcWGzHrAxkd7WIL0AwO0iOZSg2EMi2W2S3sosh9bL/99tsFW265VcD5pq5Ajh006WPFsaMX72C6IvsiuTgQe1haz5mDdgmHycH3tMqoCd7pW6E1odKtgrtkFThgpo4xih0BwnrSNChjfPvtd6IQ30n41F5cgEM3DZpHj2ZyxMmz4IrINcF0Rvb3YABQoV1sARrHQYZ152BGEVsxsI+L2maA81DZjoGN1FwyHTNaNtxwQ1lAR56BAy6222WglVZCGsYcMy4s7s6nTBztEg6dI4xWyas+tWr8aN5ulkjv+jSNVs5AmJkota4AjBEZxBV6ZlMzNgiIqzMHBLp7pGTXI0LPcyTJ22roCkx7Y/YF8mUIB2gcR/dEm4R4DvcMqzionePQmXGEcyaNssqVrpe0mWDkj5VXXknO4GWtBZzcY3sHDsRwma2kZPKGpVwcoB3CUePgu68zzzsjBlkqw2YLT1k4FQjS583fqA89OllHKeUCFNcz248//uAdkKhGzyczUsriONw5kuSpoeNEbMDR02RfcsklSxGOxnL4ZbaiOUijrBK999575TtgYziO6uNZG7g/++z9gj322FOm55K+6RelX55j5fQN1+JQVnvk52iXcICIo/Y9HTxvOvMs/e4UCooDwAPQLhUQUDNXBBNPHNVO8hqDQalaqZ0O9KCZUn8EXusmjiR5BkXjauiA31mcMs44qlumtW1RZg5mZHFmKPu5ACohHFVnS7twsGEZA6DLLbec1OrJsGRi1hEwo4V0nIR2tmlZwtGMGTHKf6E/gJO05OsDdV8M4FFIZYJA1cwVppjiL2Hg3LtI4iLl++9/SE3cCjzHAAJ/o/7I8iSO7ByguzwRjMOO64ZStphvvvllpgR9eq1vi3JzsPMhx80pcDjLDDPMUP0WAQ72qll//Q1kP3vijwyLMyee2PY5Lb23v03LEQ5XvwOK4FB5FjkAZ5beCb1AAPgKuBQSV4ryk6raq8dIpCjBBkpMuUqD3RiRQZjfe8oppyTWRIHZ5/T0008HG2ywgdTwXZGkhyuK57DLs5JxyJAh1u0NTFu8+eYbUvMbPvxl+e6CctoCFMVRvPMizWPnM888UzIiOOigg+QwaQAHUxrXXnsdOROUApkuMzIgz9BtQ9ylwdSDfOcTFtAuHHnlqcn+9tuvoVz1RsiRlDbYV8fmi9L04BjCY445pvqtO8w8ixPmPT7OXHEA0hoc+GK9du+0OVdkgEgRFFBKsEDCdqKOjrQMy3xfBohUBrGBgBAxKjPA+eKLL8qyeP1g3iSk6eGCRnDottXBDBbsYh4YbbMFuPbaa2Xnvux9s823RXEcfs6c1k2UKdI5BgwYILtfMjAK2PWTraSjWQ9jhfG1mWRs9pohw5LhvvvuO9nigtktSXkleicL7aLvhI3afoJIN7QLR1E6cAgPGwBGXWXpaYNj+tiXRTlJVz2YRszeVDYoRwwXgMO3Zq44SD/Iox+VBd2Zg8Sl/yGJLD3lXkgm33Wst956lZCQoFmv8MWpS2pDp1wJC5AqY3fwzjAjdFsO+9xzz1XCTFPHFXe56JF2NYrD9hwXS8Rvu+22qhUiYIuwRWJdGsxS8v33378S1jCsfOoqsy1agWPuueeuhJUYsTn48MMPuzjYquGll16SuFHx4oqkuHVFWTh4Pg9HXnmgOK6//nrZYsQ1bYTOv2sLiCL1KIoDefxhHEfi0v8woVY/RTVzszRgWp3+jA7uu9ScmLoV6lH9Vg/u01wNE5l8h1ONBoeZL7FWr+CqRxIayREHwqfPcFG20Et5fWSc5j3Nf7ZkjSv5y26LVuCgRai3CtnsiwV2c889j0xlpOautvd1RVrcuqBMHGZt1IcjrzwwOcI78tknbTRCj2LCEq1tSOIgRScCR246cxB3biT3XDMKy65R2gT3bAMISg8Xh+6jRxyaxUGEEUZgswUJw4wTumnou6W/1ozwVraFiWZyEBcqvfIXBzjBBBMGO+64ozTVyRO2vBIH17hNQrtwNEYH1W3injbKbE+XrprEN6BAnBJqY34dvLR7RokuG2w1dAJgBsQcQMDZYaA4+OphQzM5KIUJo80WesFmAjn27n7ggQeCFVZYQeayw9OYcPQuZw6wL2mR54kXWo+M5bDBlq8zVxz8BWlxa0O7cDRKB1azG+4lEY3SoyiONGcOYt8CCVccmImh/85nu+OIlLLBdOhkELPZpwaXdCQ59Cx6mGg2B+EjAdhs4RKpbCTFPiQcQsIOgsy8YNBmttlmlQMi4HJFfDhaxxEr5OVgDyMct4oXHPxxxx3XtfuoK+LSebM5SHOujkMhL0cZdABjjjlG8McftfndWTiQzatHXg5SdyboNXR7RokySxIY+VcgUpjBoWRUAjWdOSAj2Rx6Vj10lIFDRZ6LLeLATCXOfmVl4jnnnCPntw4ZcpHMnqFrhkNK2KuEbQQWWmghORSCxKOjsbbI64iL4PArEJi9MuWUU4ocID44MMMnXkjnZt8qGbYMHL4FArJ5OIrQoQgOnHmU9qO0kVUP3RE3i4NQZAIOnRdy2TNKpFQSUB7wLJFCgACcSQmU+6ZDz6OHQhk4kGegTYU9zRY28C5lT+Q5uWfhhRcOVlxxxYBdBOnzZesANo1ifjTnwzK17v777w8uueSS4JBDDgm23HJLqdXXavStaU8Qz+HuzMlUnHGqzsCF06fmBHin6XxamcN0Pj4cRemQlwMZ05njW/Lq0QwOkOkIOkBznrNF//c/TkHPnlHYi5qZAWZAzNqiDuZb77rrrsGtt94q35HJm2HLwKHkOQWfxQqzzjqL2IH9u3HOxI/5V131938PZp99DulHpzsgzZ4K6Kp4mLtLi4nrq6++DD7++OPg3XffC958801ZUMbKyZ+rRxDa0C5xAuCYfPLJgrPPPkd2T+S7q00Vsg5y6WgXjp7S4bbbbpMVuyNHjqzeqQcyetq4+OKLZHtkeFxRljgBmc8UBewZPXjwLmEprbYAzZZR3n//vbDWM3XXd5eAsFiDfcE5RcaMlKx6NJtDl+dz+E8i2kVeRaHJQRcB+4ksu+yywXzzzScn5+Pg+Q1nFL0nuhTiEhfP85u6cPQfffRR8NZbb8n16quvyiEROH5qGjRjUSt6PiooWi1OgOKYc87+cpCz2ta4pzNsmTl8Cre88sCVI8mhI2OmDU6xGjhwC+fWcE+GJQ3wsJNnJofOy2+55eZgu+22r3abRI5HKeUCZVCWrM8yyyzynf4iF2OiI/tS0zfcPcNm06OZHD2lAxmXw5LZAbBfv37ShcA188wzS5xH+9xHy5JJVGR21zhR+Omnn6SQ/vDDj8ThU5N///33g6+//lq2amDchEt9xtGbaJw9sjnziSaaWFqka6+9trcD5J15uiZAWTlUWvHhIM7zyPvoEOfQ49LG0KFXhQ59oFN699EjDkVw4L65CFMmh04GpAbG1Dj2Gvm//yOCsmc2znCcd955JSCujoN3sfvdiSeeIO+OUFSm71mOMuiA7ekbnnbaaYIpp5xKBv6mmmrK8Pt0MujHd/rhuXiO521QaUO9F71UvNI9g1Pn+vLLL4MvvvhC/vJ91KhRcqnP33//XZgWlaOPwkF4XGEOcuXhmHzyvjIVlC4wnzQKkuzhikZx+DrzojjwL6AndLA59KS0wTYBLg69LPZEVjlzLm+HDgFKoAwbZG200YZhTatW4rqAF+vO55FHHg6WXnoZb2OcfvrpwdFHH11NIH4ODJh6FMfh7jjyyoNGcnDUGjV6BlPZx4SBVbptmGVkIksCJelRY6O/nkVmo0ePlovVmDj8zz//LPjss8/D2v6HUttnvIX3JKFIe7CrKAdJb7755rIyuqczbLty9JQOpkNHJiltuDj0stgTWfIPFwUUHF4OncfoN0UZyF5+ebhs8v/zz/l2PKRfcoUVVqx+Twd6oCP9XYcffnjw3XfRmY9lcYI+HH36EIHN1SGOg+PWmA3DYQ4zzjijrDugS8ZWO1dxghyAM09fokpr1KZ+++13aZbyG44e504XzjvvvCMDtPxlTAWZIu3Bcn6O+uPQaJx51rCALPZAVm+OtwtHT+qgO3Rk0tJGmkPPqoeOIjhIX/hqgDyyXAyKOrGoDKYrwXS28LYz4gxaG1RNh55R2L9kvPHGlc9lcYK+HGXQweSgBn7GGWeGBfbLsoPjEkssEUw33XQyGFiEM6frhdo3cgomB7K8jzRGdw/7jrNPymKLLRZssskm0gXCdEumWqqBWRIz0zC32GLLYIEFFgg4ZCKLPZgyuu6668n0TfY8b4Yzh6OITF9GDmqieXXw5UDGTOfNOpyiCA7dFwN4FFJr6PzMfQj4zEWT+7PPPpNtIxncSoPNoPBhULYgZW/zNPBePaOQmZnpQo3NFUl6uKJ4jubrQCZlHGPfffcJ1ltvfUlk/K6DRKQuWmnEBYmTKZKcmkSthov1CciTRkwOQDw+/PDDwYUXXigcM800k6xg7ddvdnHa7EkDh+onphma1AQGhN10osh9/vnnUoPH4XPoMxcFgHqWSz3L+MAKKwwINtts82CZZZaRTEY4fJrBZhqF25cDWVumbxcOfUFiGvLqQA2dLXFHj/4m/JaeV+Jq6Hn1AEVwkL7gAMiTRpFXBULqtEV+Ul0s6jGVyRjAYoZE0lxkwIu7O5/IqIDTz7fYYgv5HAdbn9Pw4cPlwIE33nhD7qUhTQ8XFM/RXB0mmWTSYMEFFwyd2GZy4dR0YPNPPvlEjk1jD3pq7ThHpiaqPabRA+fNFEmcM90zOGZ4+UwfPLxmwmU2zH333RfcdNNNwqsKZp5Fjpk31MxJY3R79O/fX37XQZok3HraIHGjT1whQIaghUB/PDrQjdS3b18Z7FU6wkGB4pPZzDTa4cjHUYQOrFPZfffdgpEjR1XvROmF/GKDzaGXzZ6A/AsHevJXIdGhq8yi/gKdgMErMrD/4pIaH+DAgO233776rTsIiKoVAjgxBv2ozLJhE/s0FOkEi+RAthk6jD/+eMHyyw+QwxkYB8GB6okYPuw6bNiw4JFHHhGHq++M6TKLhDjCGdOFw9YCDKpyqDUOFKgESvph/vrDDz8kK1ZZvKQDngMPPFAGJ1XaQ49HH31ULjXzJrqmDMMyk3THucLMbNjHt+bU4ahHXo6idLj11lvkoG5mTtnSqAnToZfNnqR75MkHVFp0Zw4SHToK8JO6UEAnoIZGrSzOofPi7s6nu0HZY4QNpGzg+bhmClPeqFX++9//lt/i4KpHEhrFUZual46idJhllpmDwYN3DdZaay2Z/4+DVYmLuGeQ+oYbbhCHTk3c7FLLogfvUPPfGWSlIKFrRY9XToZ54YUXJT1QkDD7BSBDK26RRRaR5wC6DRo0SLpPGKzlos+c99DqIF3OOuusclHpUH/pWtLB+/X0BUjjqtBxgcmBjr4ZtiwcZXBgReqAg6NbdtSokcKXlld0h14GWwCdA3nlzG0czjV0SMzSgAzHgJXNofNi10zPmaIMcpngveiiG0MfkOH9bF2KA4qDjx5xKANHUTrQFXLaaadJHzG2xHFhTxINNfETTjhBasvMGiEtmMirB+8ibc0004xSqDDAqW9NABczWWgqMyUVPe666y457lDF+7vvviubjn3wwfthGpFbIer1IEOS6PWL91KA0XXDXwoU3k23C90vb7/9trQ6mT3lWsNPS6MuaHcOHweWVx7oHKSdvfbaM/jqq6/lfhqUQ+d9ReoBeoIDh45QF37XjqALSeSoozCzy3cTYalRCTMJVqq7wpfKkU9hpqpeycc/HXPMMVXGGni3OnaJKyw0rMcuhQ4h5LYfg+erh+0qA0dROiy++GKVV199tfLDDz+IPVW8hrW6ynHHHVfp27evPGeT5yrSFqGDrYSFSWWFFVaoPPbYY93ilu+fffZZJWx9SVpQCFtllUUXXTSUVzr46cH7w8xQff94ogPXeOONW5liir5ytKH+viTY0mhcXolDh6OGRuhwww3XV6aaakprWrBdoUMXv8a78+rRCA6bD9SReAQdoHSOK6HDzFT9VEOYYcLSg+f1Glx0xUE1rRXCgDiXSuxPQi3CRBY9TJSBwy7vVzOnZrrNNtsEw4bdLV0P2JF+afrEmW1C3za7K1I7DdNEVaoeReihc/Ce33//LXjiicdl73YW7rDhF/EO0JGpkuxBgxxgIJN58a+99mooL7dC+OnBe3k+zC7h+/+oztr5TbpsLrxwSF23ThLgsKVRn9psh6OGRumQ9YALlQ/y6NEIjriauY7Yt0DCFQd+018QfYdOz/RRBkoC/X4KYSnWrR8waTSYOdJkRh1Z9dDROA6cjxtHvLx7CsWBs0XCqaeeKtPF4CRhPfPMM8HgwYNlb5Jnn322+rQdReiRxMFfulhw7HT50PVBOtDx6aefysDoo48+Ev6m7FeMHsxwOfzwI8QWLhnGlkZdM5sCsjoHcdIMDjMszeAogw4gbOUFeQ+4KENYSN2ZgbMF9gwbZbg0qFKIgFBjUjJwwm9rCShQo6IGqpBHD4XGcrg5n7zygGl/1Lz/9re/SSsGTi762dj2+Oabb5aEkwS7HsU5cx3MRDj55JNlZd+1117bNRgbNjdlm4d//euOsNai9C1GDzLK3/62jQywusyPJo0WMcilZ1g4kiotNiCbl8MWlp7mKIMOAGeO4wyl5Xur2hMQiszA2fJSe4aNlEqDagYTEAIE4CSjJDlzwFQ1psURGXn1AGXgKEIHCrk999xDFmwx8AknCYPZKwxAM/D5h2XQU0e8HsU7cwWamY8//rgcvrHDDjtIbZ0Tlq644vLQsavB92L0IN0ttdTSMguCWnoaeKeZ2XyduY2DwtaXw3TmWTiK0CMPRxl0AMiYzrwV7alASDIjKj3yZXpg9n25BoSIYHk2sxh62vnYkJejKB222eZv4bVtlzPHnmeccYbsGDhixAjhTEIzbYGj5QATWhAc0HHUUUcGP/74k/o1LPTz6wEHG28xRZK++jSgk+lEfZ15HEfkTNzQLhxlCQcyetoIv7akPXX4S1SBErxUGSO8Iwr5ZjZqinCp774BWXvttUKHlV+PZjkwhSJ0wG7LLLNUcPTRx4gd4aSwY98Tul9+TlnVC8pgC0Br7ZtvRslunhEiDpVWXBCnBwXc9ddfH8w111zyTBJ4n1nhwLa+zrwRHL41uDJwFKUDkynycCBjpo2oYtizehTBAeABhMgbvJxIqb2UjBJdrlAG1QPi21+E7HTTTR8sttji1TvZ9Qg/RTeawFGUDpwBetllV3Q5c+zDyVIHHXSQjE+kwa5HzzvzRnKwvzndOGwJnAYKFd35UGD6OuJGcvhUfMrCUZQOXQ4sA0dc2qh9T0cRehTBgayyJ3CXrAIlVPOAEi0yRj1pGkyD8h1nntZnrkPXg4G0kCK3HkWERSUOVw4GZPLIAzjmmqu/LNKiCwGdiGi6LdhiONp3JRnxerg70bJz0M3CgiVWGGOjJJC+zD5N3wpHh6MecDRbhyLSV1nsGekdySsQMmcgrM9EoSSxkSYBxesNGvXF+zpz3Rgrr7xyMP/88+fUQ0VsERxuiQP5qDTOnrjgYGXjbrvtLtvGwoc9n3vuueCkk06SHQfTUJQeZeYYf/wJ5GBx9v+hFpQEW2ZDJm+G7XDUNpdqhg7I5E1fZbEnslTaVO1egdA5AUGcuSJACT77ZjbTAUb33APCO01jsIx7xx13ku8usOnhG7FFcBSlw+qrrxGsscYakijof2PK35AhQ2TrWDPCTZTFFo3k4Dt719CSY5/1JNjSV5Z+0bwcyLYjR7N0QCZv+ipCjyI4SF8UCooDwAMIYSogMJ05SqjvLogzKFDKpIH36X1wSg9KXfZ1YQOoNMTp0QznU4QOU001tWx2xYZUyhZPPPGELNZRdopDmWzRSA5sQ9cT56MmISl9uaIojjLMnGgERzN0QMZMG+16wEUqEwT6TBRAkx4ldNIk2AyKrI9Bed7MKLoxpphiimDrrbdONE4RehTLAbLLjzHGmLLvOAN8ymmwodWee+6ZOghaPls0hoMFQ+edd550yfFcHHg+KX25oJEcvrXAsnL0tA7RO7unDd2fpaEIPYrgMAsEQNqCSyExpUFA1V4FHkG9v9vFKHaDRpd8c+BAB7NkMwcQcGjUVG0HIQC7Hs12PvnkWUC08847dx0gwbTEPfbYQ/aKT0I5bQGK5WA3UObfp52IZaYvMolvZutw1COOwxVF6IBvyZu+ymRPCgTlL+FAnr866r9pQFApAMg45jxN/Xcb7JmtnjfNoRMQs88pbhCVzbqYwcC2qDri9Wiu8/GVN0fo2X+EvnNlCw6I4ASgJJR9JkpRHKz+ZEZL0uEpIC59+Wa2DkcNeTmK0uF//6NnoXojQ/oqmz2Vr4QDedOZg+53qtAdLQQ4DZMgyRlHL7VltihgCkkcPGsag5ItbkYMzWuWjC+88MJdurrqkYR4DvfEYefwk4/CFMmzCpTFQvwFrK5k5SM1gTiYHFnDUXYOWmtsccCMlri0Anjelr58MltZOGyOoxU5itVBpSf/9FVme9p8sYL9bggEFVDARhDnjJHN6wDh1pspcJJR04zBcWoHH3ywzGYoQo9GcrjCJr/55psFc845Z/V7ICsf33vvvYbGSStw8BuHFGy33XbdWmo6bOnLN7OViSOv4ygDRyN0CO+ETtEvfZXVniCtdk+uSASOPK404IUmUNwnw9o4uGcbQIjTQwfPrrbaasEBBxwQBp6FT63twGzyROhee+0tf8HIkSPlhPO4BURlCAfoCQ7SDnu9J20+ZktfLpUFHe3G0ewl7I3RIWr9cN8VZbAFsHG4+MDEX5OcOVAvU+Cl3TNbdLkCTpsz9zEGYIvYHXbYUWSz6GEPS886sDj5zTcfGPTr10/u8J2jtt544w1rwi1DOEBPctx+++3BmWeeKUfLmeB5W/pyqSwotCOHSjvN4GiUDp0DLjRAwpUEXqzAs90zW5ThkqC/g/4is/mZZQABDoxxzDHHBLvs8ndpeqfpocMelp51YHHyHIK80047SQQDauc4dP6aKCIcrTiIStyfffbZwYknnijTOBXM9EUmc80oCh2OeuTlKEs4SF+9/oALvQTpntmiDJcGHDYgIGafE78lDWqZMDlo5hx00MFyIPFkk00m99IQHxZ355PXkSbJM+eck/CJaMCe4U8++aR81pFXBwBH9J7W42AePoPEhx56qNR24tKXT2ZDNi9HEXq0C0dZwoEz19NXq9oTEIrM4MW81O44IqXSQOnDs2ZAuO/jzOM4mL7GjAcydtpBBnnDAuI58jtz7MESdhZRAZzWQw89FHz99dfyXSGvDqAdOHDkl156aXDkkUeGn/P1aSKr15yycphptLdylEEHgIzpzFvRngqEJBfyZlicLhkvT0BoKcRlNj6z1wuHO1x22WUyC8YGnmu2A0uTn3322WXFY7TLZeSwbrnllq6WErBxFHUoRCtykC4uu+zS4KabbpbvcJLmokzsBlv66nBk5yhLOJDR01f4tSXtqcNfogqUiJaX1zIbCvlnWAYuIpmsxjALBBsH99jv5cUXX5QpbXznWRDpwfN5w5Kdw0V+oYUWku4WBQ57ZjBUIY5D2dcF7cjx7bffSU393XfflXj3rSwUUeEoC0ezZ3CUQQeAjJm+eu0BF/T1kLi4IpDZossVyqBkMPU9S5+TmciTOPidZfIXX3yxzIRgpSX7hzd7eqOLPIumlllmGdEfEHZmcqiIzKsDaGeO//znP8E111zjtDe8gpm+qCTYKgtJKBtHV8ZvEkcZdIhLX7Xv6SiLPZFV6QK4S1aBEvT10ETgcy2z1UjToM9YoDTCwDjiPAOgPhw4fM4iveKKK4Lzzz8/2Hff/YLVV189mHrqqaphiQzsgrwzOFzlp5566mCVVVapfgukpfHggw/K57w6gHbn+O23X6WWThcV6SYNcenLt8LR4agBjmbrUET6Kos9I70jeQVC5gyE1daNOPRKJSL0MQaKRyVQZFBKJK68zjwLx4QTThisuuqqcsr8aaedJse1HXXU0XIPBwpvEsyw+CYOV3meW2yxxeq6W3BOxEVeHUBv4fj222+D4447LnWf+Lj0lTfDdjg6B1yAIjiQJQ2b6ZjQOQFBHIgioMbjawwUN0tHnKpPQHi/aYws/VY6ByUjy+hXXHGlYJ999hHH/vTTTwePPfZYcM455wTbbLONOFS6Z9SApC0svvZwleddLGdX72bBzJ133imf8+pQRDhaieOjjz6SWS/ct6GI9IVsh6MGnaNZOiCTN30VoUcRHKRRCgXFAeCRv+GPXSFiuTR9OmzLqoNHVM2cz1w4FU5N53QcF8QZ9Prrb5AdEl3Ae9HPNEZU6rrBh4NnMZy6+I6NmCb40UcfBp9//kXwxRdfBF9++aXcp4VAxPBXXeq7eb9PH2bgjClOms+U0GOPHTW56p+LZClQeAbQF8zpO7/+yhhGYx1gGlqRA3vS9WJuq2tLG741pw5HPUyOLM4rqw5sh0E+GTVqVPh8fdpgthTcOq6++mqpOJHnTPAsg5dKJqstiuCgQAD4LDiQ5++//vWvdIfOz9zHoOpRAvzJJ5/IFDoXhx691J7ZGJxM268a8Lxtao+PMRrJoYzrAmSxM/b0ladg2XzzzYNhw+6SRBmh55woGZIWTa2wGTMMRxSm33+Pxlb+7/9q9klDVj10ZOGYddZZZRxCLTjj+TKnr3bhYHDfFXl1wKHvsssuwejRbAGRnjbiHDrPq/wKstqiCA7lzJHHZyCvKqM49OhTDHi5qpkCSFRGRjkXIJOU2dT2r0lABz1iCUCWQYhGchBOFygObIq8ilRX+VdffTV45ZWXQ55Ih55wgHSLzTvvvMGGG24oe4zTQqA7avjwl4Lnnntepk8++uijwdChVwVHHHFksNVWW8kWxmmZ11cPG7JyUCGhO02lcTNefTNbh6MecRyuKEIH4jZv+lJ6KB+YxxZ5ONDb5ECevzrqv2lAUBkTkHGi7oGo9NJLmzi4ZLa0SMYYZp+TrocLkDU5VC3TFTY98nJkKVCGDRsWNiHVplP+CdRnlB87DxgwIDj55JODyy+/XBw5A8isVmVzMPaVYdEWJwMxBrHuuusG//znP2UBFzOITj/9dNn50hbHzZ4Rgy2pwX388UfWePWNlw5HDXk5itKhnQ640J05HMibzhx0v1OF7qxtBGk19EgmPbPRhI8Dz5vGwDn4OnO9pFccPgaN0yMvh6/8559/LoO1HDWXJYHyzigO0x0gtWvOJr3wwgtlM7DFF19c7tnCYdqCgmCBBRYIdtxxR5kWCo9+2r6PHnEoguODDz4I7r//gcSwpMHFHmmwZfreylGsDiot+KeNMtsT/2dz5sB+NwSCCihgKqGXGCaQda05EUAb4DYdcZYBlTJzuELJ0+cbbZP7ZxjR/g7QjJM4DsJ21llnyWwQBr5x0MAWjqQEyn1q8py4z2KuqaaaykuPOBTF8csvPwdPPPFEMHr06NSw2OBrDxvgyJvp24WjETqEd7zTRlntCdJq97EOXYGSwFYakJBtQHFXZw4IpAkCQgtANwYOMK5UsqFdOJQ89n7uueeCTz8dIVzcd0VcnNg4cN50r3AWJ33nyIK4cKQlUJ6DZ5NNNpFBp+gUoXQ94uATljgoDkReeeWVYMSIEU5h0cH7yrDsu104GqND1ILivivKYAtg48BXpvmNxF8RjiOwOXRe2j2zRVccaD7QrFAX0yPpUuAv3wkQzxBA/bmkq9U5VCTyVzlRulsefPCB6u/5HaCNgxkf1157rZzFqce7rgdwTVwmlltuOXHq0fYF8XrEwScscTA56HZh2qkPlD2IR5DFHh2OGhqlQ2884MJpHroNDJBxILNy7Lw0S2Y78MAD6/Yq//NP3WFF0/rGGsu9zzx83HB6rcVBDXmllVaSKaEUBNgQnpNOOjE45ZRT5Z4rGDSMElJ6nBDnbDHMSU/67BTenbfpqHOQ3G6++eZgn332lk2zXOETljjEcey99z7SLTTJJJNU78fDtAd8eQfKejNHI3VgGh/z0G2Hv5ggbVxyySXBxhtvIpWuVrQn4SWDdSF0FpUff/yx+i0Z559/fiV8EbmpEmbySp8+Y4VXn+o1ViVURH5zvewcY1ifjbtanSN0lJXQoVbeeeedyi+//FL56aef5Lr66qsqk08+mVUm7vLRgWcHDhxY+fTTT6uxGyEs4Ov0CFsbcs8HNo6vv/66ErYC5L02fcwLvbPYU7+SOBZffPHKJ598UtU4Ho2yR2/laLQOt956a2XKKafslhbMS6WNyy67rPLdd9+1rD3vuOOOins7wAC71oUc1VqnreYUlTAuiOfA3m5oZQ5K35VXXllWLx5xxBHBDDPMIDLg2WefDQ4++GCv2qyvDgxWbrrppsG0005bvRM1+/SaApy+/YBxHBzQQbcOi3vSgAy1FNew2JDG8frrrwdhBpLPcYgLSxH26I0cZdABIKOnjWbpUQQHICSZQAbgpe3siBs9+4LuFeZp33PPPeLM2QFSTQ0EDz30YLDtttsGI0Z8Kt9dkCUczERZfvnlqwk7lAgLatvsDfW7C5I4uNgKeO6555bf4tBTcRLWimRgVOlqotH2cEW7cJQlHMjoaSP82pL21OEvUQU19LCpEn6qZRQUypvZysSBoV3hwkEE0R+G0+b0ofvvv18OeGZ3R+ZpqxKafnLu/+Mfe4ijcdUjSzgoVGgdsLsk4FnGUZADcJK4fGoKLhyEl0IkmvXSHT0VJwpxDp1nyzrroRU5yhIOZMy0QV5oNXsqwAMIkTfouI+6XKo3qhmlnZx5Xg4MPN5448sOjdREl112WaltM7+b6Ycc7syBzzh43ocDpJTm/jHHHB3sttuusjzdFVnDgaNlhScgXnVHTAHk68x9ODhgRJ2PqqMZ8crWuipTKKiwdGWWalh8ak4djnqUQYe4tFH7no6y2BNZldeAu2QVKEFN8vvvv68q4p/ZqNnnzbBl5GCmyDzzzBOsv/4GMnPilFNOCS666KLghhtuCO6++27Zw5zNgtgXRUUa9mTa3L333huceOKJwc477yxO/5tvRsvvLsgTDmZ2oI+KV+QAiT7vCH0aBwWdue98s+IVvVXGAs2whw3txtFsHYpIX2WxZ6R3JK8QeRVHIKym0v3www/hHX9joHjkzLIbtCwcNNHmm2++YIcddhQnzFROFuXw+ZhjjgkGDx4crLPOOjIF0TYl7vnnnxcnzhL5fffdNzjzzDOCl156MYzs+khKQt5wsESfDdLMxEVNIW8CTePo06eP7AGjnmlmvGIDZEGWsJjocNRDcYBm6YBM3vTF83n1KIqDS6+EgMz7oS+99NKyys4VKJ23ZGwmx8wzzywzQdi6lpolMiQOLjjp94oSSz1oyjNThd0IH3roITkth64VbAhHhObZYvfddw1OOOGkru9x4YgD4SDNqLD4crCB1yGHHBKmvfoDxynU4HaFzR4+HE899VSw5JJLWgenfDKazR5ZOOhXVbq3E0fWPuYsOvTG/dBTcx0EOHpdCQLMzABXRC+tN2izHJgrB2FkwRM12AsuuCAYPnx4cOqpp8pBE/zGpRuUiGJPkE8//VT2eN9jjz3klH6mBLI74UknnSQHFdOyiUpnzmMFzbVFnz7jdH0ncfk4c95pc14+HFQUbGFR6c0FcfZw5aDbh778vM48zh5ZOPT81k4cvvJ5HWD0znzpy6aHb8FUFIeqDCooH6SQmPMQpKmjK4Ej0xNtGuIMWlZnTjcKNXB2GGQqIU6Yfm+cO7ZQmZ7Ieeutt4IHHnggOO+882SFJY6bPvSNNtpI9tp++eWXpTDUUa9H821BAUOi8M0oui1AVg6mv9bSZ3PsQc0c3fOGpQh75OVAtswcrlDyyvdk0QFZ+szzpI04PfjrChWvRXOoSqWOWEYEVWQAMo6qmf7888/ygjQ0a4DLhCvH9NNPH+y3334yeElXANP5cPCA8OL86D6hxr7vvvsEu+66q8xcQYa+c2avMPsnDqYeZbAFi2qaMaCjON5///1qWmpe2lhqqSW7uhnzhKUIe+Tl0J1oq3IUpQP7oYfS0Y0MaaMoPYpKG8qZw4E8f02QG6xQwkARKCVwbErBOCATlR7ZDdpTHPxO/zh7jBx00EEyPkBzSIHuJWaqsAMhtfUTTjheBkBx4N99912dreJg16P5tvjwww+lxeUK3mkm0Cy1Nzionb/55puS8YoISxaOvn2nCFtk80gYsoTFlmHLwuHbpC8DR7E6qLTgnzbKbE9bzVzBfjcEggoooCvBlEVeFAdk89acbBzmCr80uHAw2Dl06FCZXkjTW1/oQv8uJ++sssoq0qXCis73339PluHD44o4PVzRSFvQ2mJ8wAUUXGaNxdfx6BzsdPj995Etm5U22H6ALQ/IIFnCYma2MnHEZXobysDRCB3CO95po6z2BGm1+1R2FDCVoIYe59BR3MxsKJQ3w8JBAF2RxsHvLOxhReaWW24pR6lxD/DcfffdJzX1wYN3CV544YVqmOsPy3ZB3rA02hY4V+bIp4Fn9bETOH1rG3Aw9qA4osMlui/oSULR9sChTzPNNLnDUoQ9ejNHY3SI8jL3XdEoW+DMi+BIKxASf7U5c0A3g82h81JbZivCmRfJwdL7zTbbTGrfzCNXYaQ0pI8cB7/xxhsHL788PPjjDzUo3PNh6Qlb0ArhwOevvvpKvtvA86Yz961tKA6VuTiJ/YEH7peC0hVF24PxkXnmmTuYfvrpcoWlCHu0EweyPhx55YGNI+9+6EXpAYePM8/DkWk/dI4T4zBgHLsCg0tRwN0yG/1AdHFQ+imgSpieQkQcfCaB+WTYNA50XH311WUWi37OJX3J9IvT9fLZZ596hcUGX3uYyCsPXDk4cIIpmZzWrwaBFcw+PPjyDgwBpnZy4PQXX3xRvZOMRthjxhlnCK6++hrZKMwVjbBHb+ZopA69cT/0TA6dJe2shFQzOnCYvjUnTopnEJKZJYCAUFtU6kQ1hXHCv/C6wYUDA80000xdBsJ46EFksriE742uFachrzzw4eBZTvenMGPlpgLP5+0zt3Gw2IrVsWxOpu4noRHOPFRDVvFee+11skrUBWZmy2KPDkcNjdZBLSxKc+gqbVx00cXSMqdS04r2dFpYZIPe5cJLszgfFnLMNttssnUr/ZgzzjhjMMsss8hn7jMXfPbZ55DfXS5XDn5TBiIc7DXOtENWcmLM3ubMAQXg008/LTN51IIxnjcdsW9foo2D2gbH3D3yyCNd95OATF5nbuPg3uabD3R25rzTzGxZ7NHhiFAGHQAy9QV9a9pTgZB4Q81y4aWm43AdUWahDsriTGy1wMjIbsjCQd/tscceG1x44YVdzf6sYVHIYw+QVx5k5SAxsZr11ltvlZZao+KEGTXHH3+8/JaGRtqD6YobbLBB9V4ympVGTbQLR1nCgYyeNsKv4kRbzZ46/CVC4NB5uZlRuIdyLmBWCQrTxWMGxKdU4n2+HNRCWTjEak6m7ZkR6xsWkJejDDpgC3Z7vOWWm8XBAzh9awq8zxyhp1/y8ccfD9ZYY426sZc4NNIegHCqs1O5F61Y7c5tC0sR9uitHGUJBzJm2qCrxdcRlyEsAB7grn0VvDiamQBBfUbxqTnh0KkJqoBgSF9nTitBd+YuHJ999pkcTM0YAE7LFrG+YcnLUQYdABy///6b7B5Jy+Wrr76ULhKfRK7iRCUwOEkvV111lcwsYr+bNDTaHosuumiw9957V+8HUtDQWkNvHWZYVPrKY4/ezlEGHeLSRu17OspiT2Qj3SO4S1ZBLS5SonojQ2ZjEKJv38lDo0aOFwPnHQ124WCZ+e677x6ce+65IoceeR1HXo4y6AB0Dpp/Rx11pIwt0NdNfLvAjBO+M9AMD9sDf/PNN3I/CY22B3POmdGjZjgxQMtWDwyKszePQpb0ZaLDUQ84mq1DEemrEfbEiftyRHpH8gqEzBkI01wmw0fwNwaBR/nJJoscOt8plfJGbBrH559/LjVzFhJRqik98kRsXo4y6ABsHMTxnXfeJfvV0D1xxx13aPHeHXqc8Nzjjz8mA87IM9hKN10aGm0Pftttt91kuiyfwZNPPik1dAobZvmQNrKkLxMdjnooDtAsHXDmedMXz+fVw8aR1Zmr2r0CoXMCgkwJ/Pnnn6oRky2zqdKRLhf6VbP0OZnGSONgeiUDccOGDZNuHl2PCPnCEsGfoww6JHFgq/feey+4/vrrZZohK2fZFvimm26Sefs4afr/SBfvvvuOTJs67rjj5LDr7bbbTmq97777rvCkoSfiBP3p9iEDArqCKODZ8hgw+4YFVo3IsB2OiKNZOiBjOnPfAXbeT2Uljx5FcKhKh+7M4QGEMBXKmfOXAcVff436rfNktskmmzSYcMIJqkZ2A++n+a8bA2eexEHAr7vuOlk0hPMx9TAzvQuK4iiDDi4cxD2HBDBDhZ0mt956azm2jvNSWU/wl79MESyxxJKyedkZZ5wuWyV89dXXiTV6HTY9ip7dwzRZaucczh3ZPtpp8sYbb5QwAwp++vrVd57LktnMNNrhqHE0QwdkbGkDbleUyZ564QbgUSCUiYCAGpYK/A8//Bg6dUZls2c23o8jGHvs6HAFFxAAmzHSCgT6RTnmja4iUw8iFr5GOMEk1DhAuZ25DpUWcNQUjlwU7qQHPv/226/dElsa4vRQ6c0FaRykEwob9qlXmQfnfdhhh0kfOlAcQ4cOlXTGd9/MxjuRVe9tdQ7itGiOvPK+LfronfnSVxF6FMVB3tN1x//BpUBIY4GgXrVHkIyAYq6wGZSEMf74E9QpkgR00JspBMIlcdGkJtPSPWDTA77mOtLm6NDogUdX9BQHq/8OOOCArkVEODsKeY4EBDrHJ598Ivd9nVfWNKqjbBwq3xfJ4Yo4ef66AlniNk/6KkKPRnHYttGNZURQJQqAI4EAh06GcEFcZptooomldHIBATH7z1wGENCfueayHLaHHEcaTI5m6RAlgt7BQa2cBVN0uQC6j84444zg7LPPlu8mx//933+DO++8U9KcK7KmUR0djhqK0qGIAy7KZE/lzOFAnr8mSMlWKGGgCLjUQFgakInLbOwV41Ja87xpDORcjMGsDDItsnkdR1JYXGHnKIMO7cnBb/SZn3nmmbIlhMKQIUPEobOQyMZBl9JLL70UvPHGG9V7ybBlWN+mdIejhmJ1UOnJP32V2Z5JC6Dsd0MgqIACSgm6MdJq6MiaNUl9gMrFoVOg0MTQA+LqzFk8xJQ5Cp8kPVyQFhYXxHG4opE6tCMHCZ6Tp4488kjZiE2BWU44cwZ4kzjoonv++efrKjU28LuZ2Xyb0h2OGhqhQ3jHO32V1Z6A2n0SRyo7wooAYrpceEkcUNzMKMihnAIOHcXiwLMUGroxXEs2ZFn1x2k4NKeT9EiDS1jSkJejDDqAVuEg0+yzzz6ymIltgRWYeXP44YeLswZJHMzkYn76119/Ld9t4FlaqsgB9PKtfXU4arDJE5f5dKCG65e+GqNHcRxpBULir7ozB9SYkxaI8FJbRjFLR1bpxe1yx/OmM3cJiAK7JrIta97+M9ewJCEvRxl0AK3CwcypvfbaKzjkkENk8zcFpifuueeewYsvvijfXfTg0A9WFtucAc+TRtVvpE2fNAo6HDXEyfs4QBsHB1z4oFF69CRHrMXJPFw6eEmcQ6c27JphWVSkNkbSQX9R1m4WwBQ05pt/8cXn4bfsjsMnLHHIy1EGHUArcJBG1l57bdl/hj161Lmw9IdzvN62224rNW4fPUaMGBHce++9UkvSYaZRMluWQa4OR4SyhIO08ccfv7e8PUndzohz6DheXuyaYXHoZg2dgNj6nHyM8corr8jeI7//rlYm+jsO37DYkJeDxJVXh97Cwf73rE49//zzuw4nAKw74D5bD/znP//JpAcrZOlvV7Cl0SwZtsMRoSzhMNNGq9oTEApnUHKYDp2X+ta+aA7rDp3nzYD49uFR2Dz88EMyIBrB33FkCYuJvBzI53WAvYGD78stt5xsrIXTnnnmmaOfQ1C7ZosCpq1+/PHHmfWgyyXqvos2lcqbRjscNZRBB4CMnjb4nqWLxNSjGRyAkDgDhx5tnRuBl5rOK21EmRoUfehKUfqJ9CaGCkhkZDfAweZKd901TDKfix4msoTFRF6OMugAys7Bd44Wowa94oor1lUO3n777WCHHXaQ30irefQgTVJgMHe9iDTa4YhQlnAgo6eN8Kt3gRCnR09zKLiHPgQvVQ7dNEaoliiEcknAYJNMMol85llq1nmNAQcZ+dVXX+WOkx46soZFR16OMugAysoRfpXm52KLLRa2xB4OzjvvPDmPVmVg0ibdbZwT+sADD4gTLkKPZ599NnjqqSdFDsCZJdObMxZ6K0dZwoGMmTbKcsBFFmcOD3DXPgSZhi4XmzFQyKXWQ4DpcqEmrTtzDOkbEJ2DDbgqFXTIXwvsaY4y6ADKysEmbksssURw5plnySymFVZYQZ4BxD+bhv3zn/+UXR7pJgFF6nHGGWdKWlNp1CfTqzTaleF6OUcZdIhLG7Xv6WikPX0LhEj3CO5vD8HqOmrokdLZMgrNY2roZn9RngEE9GK5to8egMGQvJk+L0cZdABl5Vh44YVl/viVVw6VrhQ1O4qEzNa87Mmy5ZZbyqElpAdQtB7s7cKAe6sOlJWJo9k6FJE2TD3wh3nDkoUj0juSVyBkTkCQhRYogiEj+BuDEoiFRUoRuHxLJdMYrOobOfJrLz14b56CCeTlKIMOoIwc/fv3D44//rjgsssuC3bddbegX79+1d9C5tCZ33777bJHO6cPsaMm7wKNCAvH8l1++eW50iicedN5K3MgCwfII59HB5x53rRh06MZBVOkd/fuwyiHOAAl2IkufHcV2TLKBBNENXT1PUufk2kM+lR99chbSts4fAf98soXoUPZOKaaairZtoF9ynfbbfdgvvnmkzSiwDjJFltsEey0007Bv//9bzkSUaGRYSGNMXvGBaSlvM6n3TjUoF9eeZCFAxnTmfumjSL0QDavPfGB+GPdmcMDCGEqlBP98ssv1R1RKEtGGXfc8WThB9/JqKrW5QL0oM9JNwYcDFy5QukRfopu5AiLyaEbOA1w5JW3OZ5W5Rh77D7BqquuFtxyy61y/ig1dH3xGScJsZx/+eWXD26++WaZ1aTSAWh0WHgfTj0NPGum0SwZtl05mqEDMnnTRpnsqRcIAB4FQpkICFhxR4nAuZzYAGNkdYA4YKYtEhAfZ04AbMZAtzfffFPupUHXI0JxzlznwBHtsssuoYNata52qVDjAM0rUMrAQRzOOuuswWmnnS5TDRdYYIFgwgknDHnHEi4W9gwdOlQcOfPKGZTnvo6eCAvjNPSl6y0CEzxPGlUycPpmWDiY9dCuHHnlyU8+HNE786WNIvQoioMWgq47PhQuBUIaCwRV1R4yzl70NYY+CMGLmeFCl0uWgPAXEAiVuDjzkkyUhqIHyiJ056AvbJtttgmOOuooORx57733DqaeeurqryZHY3RIQ1k4cOTY55577pEzSLEd8Uo6YcCT4+AY8GQwlO+2dNdTYeHdrDh9+eWXq3fqQT6JS6OuUBwqnO3I4Yo4ef66AlniNk/aKEKPRnHkOuCC7zh0RegCjBm9MDIo36eddtpMCUPpQmbXBxDo10zTydQjS8S6cjB17sADD5S+4L59+wZHHHGEzJnmDE6To1E6JKEsHPPMM09w9NFHB/vvv7/MJ1fxSiuQLW533nnnYPDgwcGDDz4orTAbejosTIl86qmnulUgSKNmv6jvIFeHo4aidOiNB1yMET7UFUIyDolVzULhJ3XR5MQZ41xdEL20PqPAM9ts/aRZ7QNlDEAzBSdJHyugOc4AGQG2waaHb8S6ciy55JLSbcD+Ijp4Fkew7777BC+++FL1Ll1ZrGp1Q0+GIwlFcJCOOEx6tdVWl5oKnCRybMT+K4yJMD1WS5rd0Kyw0I3G6lG1z7otw5JGo0LCDR2OGorUgdPK2H1z1KiRwpeWNq6++upg4MCBUvMtoz2RR5a8YuMgvGSaLvz++++VH3/8UT6HBJXQwcu9kLTy1ltvYQ2nK3xxpU+fscKrT/UaS+7xW6hIJSxdUi/kxh13nPAat3qNI/cmnnjiSpjhRUdwwQUXVMIAdtOBK0kP18uVAx2HDx9e1aoe2DIsECsPP/xwZbHFFquMPXYfLz16MhxJVxEcxO2RRx5Z+e6778QmP//8s6SzDz/8sBK2auR3m5x+NTMsYYasPPTQQ5IniNdffvlFwqGHxQcdjhqK1iGsXFWmmWZq57QROnTxd2W2J+kuDnfccUcltaigJOBiyqILQuNZaz3h++Qbnyl1ki6eQY7B1+jeH7KUOzSIfNdLp+jZ7kjTwwU+HLRc6OuNBo5rv/OZwRCw+OKLB+ecc7Z0N8Dtgp4ORxyK4ph//vmD3XffXWpBfKfGEjpx6Z6aZpppJH6T0Oyw0IK99dZbJU65kAN6WFzB+xrBQaun1TgaowM1XL+0UQZbgDgOW81cR+KvypkDtaQ6CbzUllHCgqb6PR0uHDRBFHAMJnpKDxOcikOT/Omnn+5qJumzHojQxRdfImwa3Rmsu+66ci8JzQqHiaI4ppiir5zpqZqdegJlBfFmm22WmGDLEhamTVLBUfFqhsUFvFNPG1k4KPxsHD6OowwcjdKhGQdcNNuesamHhM+lwGySJDC4lDejuHAQSI7BU6Bmp+vZU3rEgVWLrGC86aYb5cAN5ACRogZD6H+lv2666aaT32xodjgUiuSgBTP33HPX2UKBjZFWWWWVYIYZZqjeqUeZwvLNN6NkBg6ytrCkgQyrD/Rn5dD7Z1uVoyzhIF6LOOCi2WEhdTshyaHjUHlxnoziysE9/axHpgQqh16EHkRsHg4KnLfffis47LDDgosuukiaTehlRgqLq9iHhCXtJvLqAMrGMfXU0wRbbLGlfI5LoHPOOWew9NJLV7/VUEZ74NC/++7b3BnWljbS0C4cZQmHmTZa1Z6AUDjhnXfeqX6qBy/NW+vx4eC+OugXzDXXXBIZRemRN9MrjhEjPg1OO+00Od8SDlukbL755sHJJ59c59SL1KFMHGussYZMT6RrJS6BcpIVh1bo54GW1R5ffvlFcM8998aGxQbeaWZY3z5zG4dvk74MHGXQASCjx2uz9CiCAxCSVDAYqTtRBV5qOtE8q0gjJHNQiun9+Zzszmk1Pa2HDSbH999/J5s6bbLJJnIkmgkibIMNNpCaPN0wzbCnDY3gWG65ZWVBWZR57OA3VoTOOOOM8r3s9qDbzBW03Mz1FMR/kj1MxHH4ZPoycCBPH3FeHfJyIKPHa/g106B0GcKi4JSacObMMtFhGiNUSxRCOVdk4eB3FhPp+iyyyCLh/z2rh4k4DvTkwIUNN9xQjkPjng4ibeWVVw6GDRsWLLjgguF3NchbrnDk4aDGvdBCC0siTQOzYLADfeplDIvO8dxzz9V1/8WB580ZC1lq5u3AoeRVHOTRIQ8HMma89unjd8CFTQ9fR1wEB1DyTtq/8cYbXQLAZgwUS6v1MCDGiTNciy66aPh30WDhhReRPa8XWYRrkfDifvRM3EVtloUn1NYp2bgXwU0PHVnDoiONA9s98cQTMljKohmzcCQcdLuwJSy1+YkmmrBwHVzQKI55552nrhslCWQodlNkRkwZw6JzEG/MaEoCz1Cb7cpwYfjIsD6Oo504yqBDXLxy3xVxevg44iI4kEV3hdiVojpOOOEE6QvmUQLNi2uBd88o7FaHMyYg0YhyJAPXOONQOroFhIGCKaecsisw7POxzDLLhMah2ZKuh0JPD7YRTgotdg3EcVMLxRZ63xkzeC644ILgwgsvdKr9gZ4ORxziOLbe+m/BKaecInGWBuxBVxUDqI899lgoH61LKGO8kvFYtcwAuA1m3BL/WTJ9O3HgXwC2zTtomMZx2223ydmzI0eOrN5Jjld9pWgSfPWwoQgOZJVP5uKQH0KWCqbiAYR4MX8juGcUBsOWWmopWRZPH+nMM88imzPNNttsMrA5xxxzSi3V5WK6n3LmgHvU8n0yrAqLLWJd4cuBzsxVZ/+Sk046yZpJcHpsWEUBqm/qFYdmhMOGJA41GJoGZQ+2WB40aFCYuMcsVA9XuHIQn7axJWCL21Z1xMgWxQGQz+K8TB18OYoo6G32zOvMs9qTizSog9ClAoeOIAYJ312F3+ASjpwaad6AoIfJwXa11HhdgYzZ5OrJwTY2OWPKItPebLage4L9ac466ywZ9I1Ds8OhkMZBAazvbW4DdtDjlcOeZ5hhxtKFRQdp0TbYbYYFzmY60bwcdAsUxdEsHZAxnblv2uD9jYqTSDc3kO4oFHRnDg9IZaEb5qOPPrKWbDphGuaYY45ukeI7kMH74gZkWHlJSZkGZMwM6xsWGweJw4fjl19+CWvi+8hYAHxmwlArJ2k22mrqRejQExzECXPukxIsz5qj/BRqbKnrimbZgzStwxYW30zfzhzN0AGZvGmjTPbUCwQAj0J8LqsCZ64P4mEDjOFb65ljjtm7DKgC4lMqEQCMEcdBVwVdOklAxoxYePPW4OBQerlAcbCE/PDDDwu+/voruWeCsDEvm4E39oFRfXtF6tBoDgpcrjjwvC1eSeRsoUthkIZm2gNdFXi+DLMebBy+ladGcfS0DtE786WNMtmTCoSuOz4CLgVCGgsE33nn7dCBqw2T/I1BNw0G7d9/rur37KPBvBvYOBjIpdsFI9mg9DAj1seZF83B4cNXXnllsOeee4nTVuEzwVjDTTfdJDX2SSaZuHThiGDnoKUR192SFq9TTDFFai29mfFKRlJdYiosKm/kSeeN4OCvKxrJ4YoidECWuM2TNspsTyp4JkcsI4IEniX/kAEMoQhdgDGjF0anuPO5iAEEGwf98yuuuKIcJGFC1yNCtkxfNAfyv//+h+xjvOuuu4pzV+E0wewg9gpnP5SJJlK11nKEI4kDh24bEHWN17/97W9yZKENzY5XdKawdQ1LEjocNRSlQ2884IKUbIUSfu+994UQhXycOS9TGYVaM6s5szQxTGMkcVBo4NT1moCuRwT/iG0cR03+lVdeCQ444AA5uo6S2AS2Z3vZffbZV2bATDjhBCUKRzwH8WW2mnjeNV6ZBbXssstWv9XQjLCYQH6++ebzSqM22DJ9b+UoVgcVj/5po1G2wDfl5aDyGqXb7rDfDYEgYHWjuRAmDcjqTVhOqElb9m0CB4ZjM42RxMHvzI5QuxiaehCxWfr/G8VhgvmyHL927LHHyqCpgm4L9juhln7FFVdqNfV0NMsWZAK9hu4br6Qb9oHRM0GzwmKCcC2++GLOYbEBe9gyfW/kaIQO4R3veG2kLXycefewRJMMkvRI1BBHjkOnlHAFipsZZdZZoymLriAgDCDoxnAtHQcMGCADiVGzpl4P+OB2hS0sjeZgYRFOnUsdw2bagi4I9oC5//77u87jTEIzwqFAIuYCtrCkxSu/scaAmjpoVFjI9L4cbNkw8cSTdH3PkmFNe/RWjsboQA3XPV55rjF6FMeRVqgk/som/npNMQ281JbZ+vWb3TkwFB76rAcC4BIQBd7DIc0UIqYeeWtwPcXx888/ywHKdL/op93rtoB7iSWWCG688UbZ+iCuwGxmOIAaFM0Tr3RrEEbitlFhUXq5AI4+fcaS3TKBCotPho2zR2/kaJQOnQMuNJBoP/jgA2eHzuBSXGZjJaiLMgTEbKZkGUBgoOqAAw6sNvX9M31SWFyRl4OtETiubo899ggeeeQRqy24x/7h559/frD++utLpOsoQzhw5uilxysJ1Cde6WZaf/31gmmmYT5+88ICFAd7EFFD9w0LMNN5b+YoSziIVwZRW92epO5YsKzZxaHjWHhxXEZhUy7f/RHg9C3ZkFUcdEkMHLh5nR4uIGKTwuKCvBxKngL6oYceCvbddx/ZZ0KV2DqwE7VX9krhrE4iH5QhHGC88cYNWw99RA7YCqY0kDZWWmklcaKRXHPCojjGG2/84KCDDpI58nkzbFZ7tANHWcJhpo1WtScgFLFgURH9OEngpUm1Hvp7mZ0RGcwOnjcD4juijKw+2IY80/zmnXc++e4C3ps30+flsMkzdfTII48MLr30UusMGECrhE2izjvvPKkVNzscAA5aSezNor5niVfSBgPAbIfA7J4sA6BmWPJwrLfeerKILWtY+AvgzFNpAa3KUQYdADJ62miWHkVwAEJiBaUFe47EORDAS01nbmYUzohM2seDWqfPrAcb4jimnHKq4NRTT62bZREHl7CkIS9HkvyXX34pDvuaa66JjRMKz2222Sa44oortLnbPR8OAAc18wknnCjkiubMZolX+hJVvFJL/9vfthEuV8SFxdbaiYPOwWKnnXbaURYU+WQ2MyzKHr2RoyzhQEZPG+FX70K6LGFRiM1d33zzTTB69Gh5mQ2mMUK1RCHzeRbExDlUns87GmzjUJHCZ/qYcXJJnK5hSUJejjR5/jKtkT71iy++uO6gbAWeZ2YS0/xOPfU0cTo9HQ6gOBiUYtoh37PUZolX9V44JpxwQtnKmcFgvqehyLDAQcXkn//cP1hyySVTuxB12MJShD1akcMmnzXP5+FAxkwbbX3ABXtx49BtsBkDxWw1OLoCbA6dFgA1zS5FQkP6BiSOQ48U+jnZExnHbuP2CUsc8nL4yDMDZq+99pIteN9+++3q3XpbwMd0xqmmmqpHwwF0Duzdt2/fbnGShqR4xXkwnsD+90mcRYeFWURbbbWVbOs7wQQTRg84wCWNpgG924XDJu/rAPNy0GduSxvEtyuK0KMoDi6F2Jj46quvpJZugkBHEeiWUZg/bHa5kMjN/qJGDiAssMACwaGHHir7puuRFhexPpk+L0cWecI+ZMgQ2byKQVNq5botRoz4RGqyr732mnx3QSNswdQ+364Jl3glTZ177rly/miUFutRdFh4x+abbyaF6FRTpe9Rr1BUOifTl40Dm2ThyCufVwfiNUoz2dNGUbbIy4GsKgwUuueGKmjemzV0EgIv5m+EZGOgIDVF/ioQEDOR+5ZKvhzozBQznJzqW1ZhyROxeTnyynOs3b777hvcddedYg/wyy8/ywwMflP2SUOjbEF8sErYFa7xyn3OHmV8ZPXVV6+bg190WKiMHHbYocHxxx/ftbjJBbaw+HZvFMGBbCM4stQk4QBZ5IvwG0U587x6FMGBI0feyaHzEF0u33//ffVOBAwSvruK9IEymttcKAzgLSIgWTjI9MxO4KQgItWswTVj4DCvPHjzzTdkD5gHH3wwtMuvssf63XffI/vYu6CIcMRx0CfJGIoLiE+feOU+x/kx84cxEuK36LBQGF1yycXBXnvtHUw33fTRAw6IC0vkTNxQFIdZM282R7NsgUz0fPa0UYQeRXDgA8nfujOHB1hZeOHnn3/e9VJgGoPfdEIbmBGgDgfmWTr/9YD41hTycpDpt99++2CfffYJv9VHbFpYdPBem+Pw5ShCBxLkRx99LLs1/vWvg2TlaF5nXpQtsDfHDaaBZ7OM8pMm2beHhVUcBDLnnHOGd/OHhWmWrAK9++5hwYYbbtTtjN0kZA2LjnbmaIYOyORN52Wyp14gAHgUCGU3IMDgG4NqXJyYwwESXH/5y5Sho/6L/FW/x12zzz67OHVeTkCUAVVAfEu2Ijjob6ZLgsEtDqbmnuJ0Ae81E0d2DpBHPtKhUvkzGDVqZHDPPfc4b6RWbDjsHKw/YJVnEnjeFq8+iZxnmdJINxPz9dlCma4115kopCGc9rTTThMsvvgSMujKId1zzz1PXXdOGghLI2Y9ZOki0TkIX1k4elqHItJ5mexJS0fXHR7CqGA99Z8XseyfPnQVeP5GxommA+okcaB2rprcyAMUyDKAoJdKRXAw6MtpQbfeepsY2gVF9MHVc+SVB+Xl2HPPPYMzzzyz+q07GhGvcPz004/BM888Gzz77LOy2pnWJgP8rHomfZN2eQ9TKqmk0De+4IILBAsssGAwzzzzSPovQxrtzRxF6HDrrbcGu+22a1jZUZM7ktO57dT/stkTKD+Mnrof5lwFq0OntqKcuPoLIMkTEF7uW2NpJMf7778vs1/uuOOOLmPFoRFO8M8/GfUv1ommoSc57rzzTjnr1YaeShu0NL/44ovg22+/lYJbOXRq3kxppQXBOI+qiTdKjzR0OGooSodbb70l2GOPPUOHPiq8k57OTYdeNnvii5En76GjyZHo0FGAn9SFcJSJ3YC8OZhCzadMHIRrxIgRwX777SelOYazARlbs83HCdo4/vgj37bERejQKA4cJK0gW5eLLZH7xmuHox6N4mhVZw7Hk08+GZx11lkyuUNzc7FgJfYqq6wi7yqDLYDOgTzxSe3eFq/ONXSEfRIGMvDkCUhPcnz33XcyqHjddddV79SAjOnAihw4dEEZdAA+HKym5JxUZHTwbCuljSR0OOqRl6NoHZQ/gwOuNDBFlYpIme2ZVEjj0O2/aMjizGnamkr4BqQnOejrHzp0qJxfqf+OjOnA4IPbFXk5yqAD8OXYeOONRUYHz5pxkiWRdzhqaBeORuiAc2ZhG/mbQfK0SznzMtszzRcn/urrzGkeUKKgDEDWRQkdzeKgT4rVh0xrZM8QDGhzYD3ZxVEGHYAvB5mDZfI64uLEJ5F3OOrRLhxlDodvRbIoDpx5Fg5yqRVkYi5XoITZX5R3NLgIDozhysEgGacEsaR+8smZP5/dCTJwmMeR5pUHzeLYZJNNZKqrQp44Uehw1KNdOMoeDv66okgO3Zn7cLi/KQEEQA8Ijti3dGwUh2/EMn+eza8YHY8WlGRzglEEZHfmeeRBszhotjLHP2mmQN7M1uFoD452t0WWFkJejtwOnZfbZpH4KFEmDgzKYqjBgwcHp512qgyU+DhB3pvHkdrkGXjMq0NPcXBIN3O5kVf21OOkLAV9h6O5HGXQATSSI8o/biiCA/g9bYBmgelEfZWAgz6nsnFQOx80aOvgrruGiYN3Ae81uyd8HGmcvGp+uaCZHNTKt912W7FXXJz4ZJQORz3ahaPdbeFbkSyCQ8Hd4xng5eYobJYasd75XzYOml1s0coCGbbeTSogkLH1NSvONOSVB83mYI9yDp/ATmWO1w5HjcPXgeXlKIMOoJEcPhXJIjiAkveTqoK+HmrmXSThy32VaCUO5lRfcsklwbLLLit9xCaIBJsTdK2ZZxl4NNFsDmYGbbjhhrLVQ9444Z0djhoamc59HFgRHGXQoZ04ovwZVaqBe4qoQimhSHBm7TSQYePA0CussEJw9tlny9Jg3anndaRZBh5NNJsDuy244ILBWmutJYkzzZ5JKCp9tROHnkaJo1bmaJdwlIEDWVUYKHg5dAjYzU+RkECzlEp6QFqFg98XWmgh2U/9iCOOEONzj4gIf40e8nSkeeVBGTho+u+yyy6yVa5uT98uAVuctCoHso3gyFKDKwOHsinII1+EDu3AoSpOmR06gnmdObJFBKSZHOy/zX7ql19+eXWv95oT9BkABWbN3lcevcvAsc4668jhIQrKnlEh4QbiwhYnrcph1sx7O4eyaV550Ns58F9sa6B8MYAHOLEgaDpz39oGsnT+mwFpRQ7CjgOjC4ad+kJWcYLKPi6IIqDeifrK2xxxT3MQ/hNPPKGrGyprnLTzrIcOR42jY4v8HGaBwKWQ6tAh0EsDpYRvqURATA6fgJSNg/Cvv/76wSmnnBLMPvscdUZNA89GjhTYm05JqMnXHHEzOFhZy37nU089jXzHJlnsqY/ytxtHlm6Wdubo2CIfB60lxQHIx7rvSfTKCNLfowgQpCbmowTyepONgPhmlLJyYAv2LOFcy8022ywYf/zx5X4S6gdR/fqqQd5BWFAEBwdDsN0oLRXSBfbMMjCkJ9B25OCvK3oDhys69qyHjYP0aXLEMiKoHBcg09o2VU8CSpjNAwLSThzYhPnXZ5xxhtTW6WOPgzmTBC5fR6zLZ3XmeTmomTMIuvXWW0uh1o7x2uFoHke72yJLRRIO5czhQN505iDRoStA4OvMCYAZkCxNjFbh4IT4HXfcMbj22mtlNowJZLo7Uncnapf3c8RFcODA2Xxru+22E8eexZ62RF4ER9aM0uGIUAaO3mALmyOOg42DPBjHEcuMoAKB8FGCwoDmQZ6AtCIH91lZShcMi5CUDflrdnEw+OiKOHlfZ14ER//+/WWWD10ufM9iz7yJPI7DJ7N1OOpRBo6idDDzq29loawcgBZCUl5JzUUI+2Y2Ov/zBqRVObDVIossElx11VXB2muvXX0e+9UcKXxwu4B32hyxqzwogoNwTT/99HIaPocq8z1LZjPt2eHocIAideAvUBxZ/FerciT+irCPEjQP9FkkyPoGpF04Zp111uD6668Pjjnm6GCuueaubifr18VBJOYpDEARHISblbLsaUN3krKFT2aLs2eHo8Nhk/etfBXFoTvRVuSI9U44Ai5XoITZXMo7gEBAWpmD5wcP3jW48sorg5122lGOw3J15mWZzTLJJJNIf/mQIUOCOeaYo+XjpMNRQxk44uT564oiOXQn2oocsYdE+wBD2vqZ8ySMduP49df/C+67735ZjPT888+LreNQltksnNpEgcQJTmyJC18nXtuXg1qgq+MAeTnKoANoFw6nQ6LTwMtx5pQLKMDlm7jgICDtzDH55H1ldsh1110XHHjggbGFZvh4eKloqQgPEe3jiIvgmGiiCUXPf/zjH9KyIFF14rW9OXycT16OMugA2okD5KqhI6qcOUAJ3yZGb+RgG4W33norWGCBBap3ajAzJo7YF3k5ZpxxhuCiiy6WmTr0/XfitcOhIy9HGXQA7cQBctXQeTklCkABXp40P9KGdueIixS4559//uDGG2+UGTGsMEUm6u9WoIskizPPxsH7mVe+0047SZfQiiuu2GWDLAnU1RZx6HDUo104OraoRxEcAB7gXUOnacCliXXV4lzR4ahByX/55ZfBK6+8Ejz77LPBvffeGwwfPrwrol2gJwCli66TDRQkzF7ZdNNNg1VXXbXbKtdOvHY4FIri0FuL7WQLWsU+TrgoDuTRnevOO+8M/h8+X7dANWK41QAAAABJRU5ErkJggg==;" vertex="1" parent="1">
          <mxGeometry x="1690" y="16" width="150.15" height="173.56" as="geometry" />
        </mxCell>
        <mxCell id="FxiHw-7HybhJhLXKP8Io-4" value="" style="shape=image;imageAspect=0;aspect=fixed;verticalLabelPosition=bottom;verticalAlign=top;image=data:image/png,iVBORw0KGgoAAAANSUhEUgAAAOEAAADhCAMAAAAJbSJIAAAAilBMVEX///8zMzMnJyc0NDQwMDAtLS0bGxspKSn39/cgICAZGRkkJCQoKCj7+/sdHR0XFxdBQUFNTU2ZmZlFRUXx8fHo6OjR0dE8PDwSEhKtra2+vr6VlZXa2tq1tbXMzMxmZmahoaFxcXGHh4ddXV1sbGxUVFR9fX3j4+ONjY2xsbFRUVEHBwd4eHgLCwu9SXHkAAAPJklEQVR4nO1diXLiMBKNLcmX8IUN5oZwJpnM///eSt3ybUMy2djsll5VZgAf6KlbfUkWLy8aGhoaGhoaGhoaGhoaGhoaGhoaGhoaGhoaGhoaGhoaGhoaGhoaGhoaGhoaGhptpJvVcnr8fD2fz6+fx+lytUnHbtJ/D7PVek8tz+WmbTMJ2za561n0tF7Nxm7cj+GsjonlmsxogRgGM10rOa6csRv570i3+4Vr0zqz5lvbXey3/5saO/80OSMFEyZV07UkXKmwrKBKGDc/52M397vwt4knOCBBxgOPnK7T99Vuvtls5rvV+/R6Il7AmVJYyrxk64/d6G/AORiuEh81LbY/7LrUMN0d9swzqRKkaxz+ZzguKcdmU76ID5u7524O8cLMz2bLgVr4M+wiF1vMrGh6+8IFt2lkobpSN1r9evt+itk5xOFnLl6/bj3mrwsTB2R4fnIXuXRRGpy/fa+lszfOUfLBM6tqureglfbi7fseLn1b2HC1tX9a97hD60/Dz4r8bstlf4PT5bIyUmefIUXvsvvFVv4A0xAVNCrHX7q8BNylfQo7oy4PLpUemEeoquH0l9v6L/BfLRRg2bjN1QK3wY891xw5OAnrWnqUqRQjMazXp/ONaWyCAJOisfOTh+PKYPuei/YqIre9fSH3TQJiNOMnG4yzDBrrXfMPbvtQRjUQ2IR91nEZqizDYOG+GJBXD7oleyq3cWMMdCun4hy9MmGanPFDv0yTHKWD50lxFvOO+fGlBbkV+0q4MBBukChQnqvainElPvlxhnSWtnVGDs7ZsrEv/CzPMMTZnOUBzRyGL30eijOQYKlW00U1CXRxZG7Fh/wVXr5ygy628HLjVs6ki9xKCaUHKT6JoqYwBlmUmwYnrLTa8FBaG7C0JrwGm2Qh8aVXPTnMFTWN4J7ZU5gbP2ZCx1hcjLLZosh7DaIGoUNB7xRDeE3xgrNdEiR/C6E56q7P4DReTZCgU7blY1Km9hSlsAceVYaGjT4kZZXu+Cju4TsgxcnrgEx6MLWIQWhNndKTVagdGo9DYLQYGsEB3q1ypabWqXaXjIqOskaPbnYhWNGGSdgyjL5sFMFmYXQwNBY4FF9RTznb1m8yA4sajhyjpsDEU25iVST0zptnU0I5CMWPaCdDGvl4D3Gm7b3lA3lzUF5j7kHvjWttIO5S5tK/hLyw9y+za+C52NQ3nittxZaC2N7g/cr1gmuhBdMF9y7KhUqKvTHfIFjK8cVVqLY3xbhxL+imRRNnc+x9Z0GV5aET+GCiZEjoAuWWzmdwhcDtIjwkMRWrq+ybMVPiWSDaShNs2xWdN7MOjbOcP4VpteGDwj+QP81690FVbFzsNT+RXxCM5/jPsjlh03XzpGEc9m4e4ygZ5sbTbSjgLin0OQ8UpCFj519n0gOw8y6OvHkpKJko1EqI/jELAm6zPCoTUR2zuWVlx5o/34h0pPSNf9B6Td3S5wwPaSJpBC9TUpuPYN5r3QLOdsvj6ZIPqOXldFzu6rqXvlq1+RtK0uaXDI4ldC92tfBppNo+YxJ/826xWbue5L50DooyirHxZcqkmrGqBduA8H6tu4mN174D6uanLROpMeLTg7QKC1A1h9F2+5QSPvLX6viszZAysLQzGRDxw2/R6IcvZwJNdNlH3mqe8tMrGkTH3pne2eoYBRRFtW/PoppYwXoz5azj8ELcBjItBwnc2jpqeOAxbiLtpaZrZef1dnerVDFuu+36nFmuCODoAmKEXVuIhgdHZGRIgm1HG34XSSnCdveLZAOOHCe5wpluYC32qoqxX1iBa+aqPUFRZZQ0b6MUAYSYDE0QomIchXnmUFOwA1CZ1D8tqxg12ED8UDemAMw+YCR6Q88Sfwq5MWzwqWMdggvclw0qlMMFvGGXOPiCWdC+DTthl4hvsD+HJZjKDregWzvsfN6yuMm9EZfmZ6Pv7OopD4Q4lxm1OWwWtXVJHmlc7db4Mfg7cG+pbyN7yoHK+N62yMTGCFwENsQd1tZI44I+KrVa7RLOEPp73aTSyIBL4mu4U4dJNiy4k/S9w+aJjiynoZ1Zum0RKiWNmkz6GCpt6FBTgvGatDVkMeTSopVbjJ5LO5xR0t2ETe59DAmGeIe2mhr0ApfIEe0OmWEc7ZzGrcMCEqunwX0M8y6x2upgBLf8XnbfJN1vQLp7pNF0CAAGJ13Yl2XIUFIdxlS5ElkyH9Lpz+T3IY0uE482wQmba9j6x6Eq53fEpvmYlgGQNVw1A4Yh0uiIZ1RAs2vrb6+WGgGEsV1hjbEoyA84EKUb4IpGx9CxoLnTdnP7GZpQ39i1PQ8hijzPncogkKqpaPAuhuDDOlSunyFqRJdvJaorrUJhh4CcSEIa546RQwmclLV59DNUuQjpcD1YaZPkKR2KIHxbLw3V1WmHG+lnaATQYV12q0LeGio0lX6rn4byW/OOgLwvLjXy5OjYDMpr5JWfHQDSlGJIvOkKSnHgbLsClHpVHz4yMtADDnF1pzFFXld7QGMqvTwav5Xb0SJMArpCsHb2ROPT5XQpu6XzfsBLmmY+VFERvuy9r0UErey6S4bNDJjGFyOJkg9qcPAEHe4i77H3olsHwLFQmFnApIlDwAthaCZQFpv/pcURddwIMNu7uupcSk/kknwkH4T+BVX0J5X7qYsYTszA0BgqMpU1WvTDL/PEnJiIiXw1sflFmYNVVhzC4za/YknQv3JbHppM3BOLGf2IaKbS280FD5VXmQkWaGSINFglQ5ZNglZhyHf+IX/zHd9JX5wvFEPnQVEY+n1IN9823M73GOLZzouT+ulXLpRme7BpNsGQdjL8Tl1adYi46GuXbSw6KMOmDB0AqKoP/2KznVyw8oPiDRx2UgfO8osLWhfVMKgM2+MQCYoG5jSxtbLVvmy17ys68MaBjvDLK+QnfqqYAdO2WAcdh8KWktKWCrCMJREhiUnEP5cNElxlLLKThGbEZBFNIk6TI4w4Jz2KdwlLBAzxf8QjlqyAsb+5yHNjHpn2mLa07g+F04ppzFiUxUy+sG1HaKC/seAdlR8mJGaZOEyPIJzPiIlrsogx+T9J5N+fOWhuNEnoR5JkSe5Mx/GHzZhGttAwBENorsF3gqHIkulH/rFgSLNE/GUw0sxYtD8WLLI4QYZZxKdSW1eZfB9nH3KxNxkvpmnGpTQ2Ygr/IMOVtP8iLgUZthn6tpRQbJDJKYqCRDE8SIbvmbxNkuBTDePFpZXcAlOkLMniOMoiAxkefBiGVH6cNBmK0UYTec1lLtim76cgYoKhu5IMpxFelMh7RoqhN3xusfGa+WESUSOKKaqrIC8Y7qiQR0TjRDIUf6RkKGuR/Kq8gj8/uqJzrLlk+Jmoe0U0ivOSeZkfekPlh+0cn0oZipdZTCDHF22fiUOimUIFhSziTLZc/DmS/EScc8mdprA9zvYULmaS4ZnIEn8cx+JWUabyjxFy/Eqdpig3UUXVqJOneEQdNTB7MvM6VokNLh7COg2ltDIMx6jTVGpth85aG5j3c/4IbJk5FlUMiqlwUyQdCzIMwotC44C1tgf10rLC2QAtGMKsTvqHrWsPHMxDt1WkGqde+qDmnZO/wxCn0xgzg33VPqbvSdgsRo1S8/7SvIXfmlyrVBPdYgqVWWZNkJujWZvnH2fe4sHck1qj1SZfMsTSmpyak6tymoKMK4IcZ+7pwfyh8Wj+UEgGnzvYwwSc8K4WrQvyytWz+mPNHz6aAwbz116kUal5o/Nelf3TGJHOe2LJ1ThjzQHfn8fPJzyTO/OHapFFWeAXggzItDrSNlfXpXykefyHazGgpa35teq8BYf21pZrENoU5DL+M9JajIfraaDnb4vmkcq8BaZfrWHMrLogcXSOsJ7m0ZooVNPLnTVRha1pXktN67SqVzF2f43B10RBVfjOuja0gM2if62qHzZtTaWDgqwxIkNuDryu7dHaRLSmDq3bmtraRGVrOkwx9MWiMSKjwZ9/erC+FNOAN2VIOteXum1bc0+Qg+PBGuEAK1VyjbDds0b4BKZj1mWLuwU5MB6t88ZwckfurPNGc9K1iOY5BPlorb6Kwh5awE5bUxGkGZ5HEiQ+b4EW7kfPWxjtBd5NQZJxBAnPzHg9z8yYX39mZto1H94W5BjPkt557sn6xnNPXQu8uwQ5wi5SX3527a3r2bUgyN7Q1nSFDB3g2cD8Xr78/OFr0PP8YaCemup3GDlkCnkd4YHgrz1D6pcxT3O1yQIu9bsWe9XBvPM4m2Tcfw4434fOKzYBaawYIhae0LGMsSZA6l1G23Ww/iy3V3uW2/IwsHmZFklyfdUXUWO4s05aggbJiJHNvefxy2eU8ydLGiv3WOFR7tkaTt4HpdTE/T0VVF5+8zoZhsXQuhPX2OuxN//o3hdDbfdILEzMl1YHQ6v0b37XKk68ZAQX0cTdvU0MJV04qc7QRFcxg77ptzXm+mVsId7dnybPMXzYpafKkKnNlT6KYlonhBoMN1vRh/t7DKk9Wm7gLVUVQ750cRAeQjQ3d3Iob3wp3t8nShna1YLSfG1iQOkCHcDcK+o1/QnGE0jx/l5f+Ej2yzZjxdpEptYiysRS1Wt6bY1AOL4U7+zXRsqJzbKV+Ss5OW9gveZuDuWNL8Viz7287dU999RQbGMKbtC9b2tyKY6NfN/EqGPfxN5pMZzYoA9tzXOMxXzvS6+992XvkkLIvij/A2a1FtdQ0jQ8T6CouDFne/9Slwd9JZtNwN1y/9KKrZlk7QjgCaT4snM796A99FeRZofKHrSlreHrl3XHTiBPQPFH+wi/zIqN2+QmGOt2+U66/rG9hkiJ/3EvaAlla4gL6dK6Xdt4BkX9x/28dzBS1fqUfEehJ1VUYRP/YU/2vxjXYL3GyzP6thTZcOu+7mLJin31w3j6cF/9kOfPAUMOpWZXJZpjkU6GWpz4CP7XfxvBwmRRLUiw5LP5FeWuKyo1n2ZTWvx9C/sbv29hYiovQgD7XMavfk2K1H4WCSp87zdKsIi8c/O8MUc5Fp9Kggr/8DszlF9rt/ALRaV8M3oK1YXv/lbQkrRGLFKkk+eTYIHe33vaf+33nqSiSiv6jBKs4Ce/2bX2mP3EEvw5xFgkTy/BH+H/mZuGhoaGhoaGhoaGhoaGhoaGhoaGhoaGhoaGhoaGhoaGhoaGhoaGhoaGhsZ/Hf8B6SkB6EQFrqsAAAAASUVORK5CYII=;imageBackground=#ffffff;" vertex="1" parent="1">
          <mxGeometry x="1360" y="268" width="225" height="225" as="geometry" />
        </mxCell>
        <mxCell id="FxiHw-7HybhJhLXKP8Io-6" style="edgeStyle=none;rounded=0;orthogonalLoop=1;jettySize=auto;html=1;sourcePerimeterSpacing=5;endArrow=none;endFill=0;targetPerimeterSpacing=5;" edge="1" parent="1" source="FxiHw-7HybhJhLXKP8Io-4">
          <mxGeometry relative="1" as="geometry">
            <mxPoint x="1580" y="268.0009523809523" as="sourcePoint" />
            <mxPoint x="1670" y="200" as="targetPoint" />
          </mxGeometry>
        </mxCell>
      </root>
    </mxGraphModel>
  </diagram>
</mxfile>
